<?xml version="1.0" encoding="UTF-8" standalone="no"?>
<svg
   xmlns:dc="http://purl.org/dc/elements/1.1/"
   xmlns:cc="http://creativecommons.org/ns#"
   xmlns:rdf="http://www.w3.org/1999/02/22-rdf-syntax-ns#"
   xmlns:svg="http://www.w3.org/2000/svg"
   xmlns="http://www.w3.org/2000/svg"
   xmlns:sodipodi="http://sodipodi.sourceforge.net/DTD/sodipodi-0.dtd"
   xmlns:inkscape="http://www.inkscape.org/namespaces/inkscape"
   inkscape:version="1.0 (4035a4fb49, 2020-05-01)"
   sodipodi:docname="iisalmi.svg"
   id="svg206"
   version="1.0"
   viewBox="0 0 492.27118 494.24539"
   clip-rule="evenodd"
   fill-rule="evenodd"
   image-rendering="optimizeQuality"
   text-rendering="geometricPrecision"
   shape-rendering="geometricPrecision"
   height="494.24539"
   width="492.27118"
   xml:space="preserve"><metadata
   id="metadata212"><rdf:RDF><cc:Work
       rdf:about=""><dc:format>image/svg+xml</dc:format><dc:type
         rdf:resource="http://purl.org/dc/dcmitype/StillImage" /><dc:title></dc:title></cc:Work></rdf:RDF></metadata><defs
   id="defs210">
  
  
  
  
  
  
  
  
  
  
  
  
  
  
  
  
  
  
 </defs><sodipodi:namedview
   inkscape:current-layer="svg206"
   inkscape:window-maximized="0"
   inkscape:window-y="0"
   inkscape:window-x="0"
   inkscape:cy="256.48903"
   inkscape:cx="287.48353"
   inkscape:zoom="1.4745167"
   fit-margin-bottom="0"
   fit-margin-right="0"
   fit-margin-left="0"
   fit-margin-top="0"
   showgrid="false"
   id="namedview208"
   inkscape:window-height="1291"
   inkscape:window-width="1233"
   inkscape:pageshadow="2"
   inkscape:pageopacity="0"
   guidetolerance="10"
   gridtolerance="10"
   objecttolerance="10"
   borderopacity="1"
   bordercolor="#666666"
   pagecolor="#ffffff" />
 <g
   transform="translate(-3.2751823,-44.83371)"
   id="g463"><circle
     r="227.26346"
     cy="311.81564"
     cx="268.2829"
     id="path214-6-5-6"
     style="fill:#000000;fill-rule:evenodd;stroke-width:0.90548" /><circle
     style="fill:#000000;fill-rule:evenodd;stroke-width:0.90548"
     id="path214-6-5"
     cx="251.15839"
     cy="293.20987"
     r="227.26346" /><circle
     r="227.26346"
     cy="274.72845"
     cx="233.36703"
     id="path214-6"
     style="fill:#ffffff;fill-rule:evenodd;stroke-width:0.90548" /><circle
     style="fill:#000000;fill-rule:evenodd;stroke-width:0.90548"
     id="path214"
     cx="230.7433"
     cy="272.09717"
     r="227.26346" /><path
     d="M 457.51902,273.58628 C 452.37247,413.93753 343.68765,496.64299 231.89532,498.88412 117.81384,501.17114 1.535183,404.80758 3.7503965,268.52491 v 0 c 7.4301145,0.1289 19.5771415,10.89685 27.2173385,11.45883 16.553745,1.21848 34.053127,-24.79405 50.628445,-24.20406 16.577554,0.59021 31.40814,24.44897 47.62539,25.43623 16.5106,1.00508 35.62358,-25.47454 51.32398,-24.95133 17.79684,0.5925 31.33706,24.4974 49.9108,24.85904 16.38904,0.31921 35.2947,-24.59971 51.08139,-23.80902 17.89271,0.89596 32.09884,23.86255 50.5366,23.44541 13.98207,-0.31642 34.50276,-23.6504 49.33361,-23.02541 19.0693,0.8031 33.66267,24.22975 52.03339,23.61514 10.11774,-2.06688 13.86965,-7.64864 24.07768,-7.76346 z"
     stroke-width="0.888102"
     stroke="#000000"
     fill="#bf9f4f"
     id="path1937_0"
     sodipodi:nodetypes="csccccsccccccc" /><g
     id="g268"
     transform="matrix(0.75237829,0,0,0.75237829,43.057784,65.992286)"><path
       fill="#000000"
       stroke="#000000"
       stroke-width="0.992126"
       d="m 153.199,502.609 c -1.6475,1.01282 -1.43433,4.81663 -0.29055,7.68983 l 30.6825,21.9181 c 1.54318,0.42718 6.18747,-1.31641 5.87027,-3.99033 -0.44419,-7.5257 0.66246,-18.1528 4.5601,-23.8181 3.66633,-6.18775 4.54167,-21.3687 25.5742,-39.651 67.2092,-46.6345 83.8707,-57.2962 124.101,-93.6973 l 1.50605,0.88554 c 7.96876,-2.82898 20.2793,-9.06917 24.8372,-8.17711 11.5838,4.64173 18.5162,11.1441 16.4554,17.9566 -8.03934,14.5205 -11.4741,24.1784 -2.11606,49.8657 44.6389,-21.8395 68.5007,-44.9198 75.9266,-87.8471 -28.7901,-17.2746 -48.9164,8.49856 -56.6799,3.88035 -4.10514,-1.9868 -10.6912,-7.075 -10.7649,-12.4733 l 5.30277,-10.3751 c -5.13383,-6.07522 -9.02693,-12.7707 -18.1919,-15.745 -17.5947,13.2321 -34.9112,26.2369 -51.8253,39.9229 -1.05704,0.98391 0.43483,3.91663 -2.57017,6.36152 -40.4201,32.8859 -84.348,65.4395 -133.283,94.8595 -1.97036,2.15688 -4.25055,2.14271 -5.91052,6.47008 -10.8544,22.5576 -15.1965,30.5396 -33.1835,45.9644 z"
       id="path177" /><line
       fill="none"
       stroke="#4c4c4c"
       stroke-width="1.41732"
       x1="327.52802"
       y1="353.035"
       x2="345.51401"
       y2="371.95099"
       id="line179" /><polygon
       fill="#666666"
       stroke="#666666"
       stroke-width="0.992126"
       points="250.62,444.517 227.672,427.461 252.481,409.475 274.809,425.911 "
       id="polygon181" /><path
       fill="#000000"
       stroke="#000000"
       stroke-width="0.992126"
       d="m 348.946,504.094 c 1.63134,1.03861 1.3578,4.83874 0.16866,7.69352 l -31.0261,21.4288 c -1.54999,0.4028 -6.16592,-1.41421 -5.80649,-4.08303 0.56353,-7.51748 -0.37445,-18.161 -4.18195,-23.8873 -3.56769,-6.24501 -4.20236,-21.4382 -24.9423,-40.0516 -66.4614,-47.6941 -85.1228,-59.2385 -124.77,-96.2728 l -3.04923,0.48756 c -6.68948,-2.62375 -15.5497,-8.34832 -20.9993,-7.25074 -11.6561,4.45748 -17.7012,9.93884 -17.0725,18.2889 8.38404,17.7667 11.4191,23.4369 1.65487,48.9728 -44.287098,-22.5445 -67.779798,-46.0001 -74.524298,-89.04 29.0602,-16.816 48.7755,9.27298 56.611298,4.77836 4.13603,-1.92132 10.8017,-6.90463 10.961,-12.301 l -5.13751,-10.4579 c 5.22936,-5.99301 9.22819,-12.6261 18.4391,-15.4548 17.3829,13.5094 34.4911,26.7871 51.1861,40.7395 1.04117,1.00063 -0.49691,3.90926 2.46898,6.40148 39.8937,33.5225 83.3001,66.7684 131.762,96.9605 1.93578,2.18778 4.21597,2.20961 5.80706,6.56277 10.4956,22.7268 14.7107,30.7769 32.4508,46.4848 z"
       id="path183" /><line
       fill="none"
       stroke="#7f7f7f"
       stroke-width="1.41732"
       x1="157.897"
       y1="368.85001"
       x2="176.814"
       y2="349.93301"
       id="line185" /><g
       id="_46725200">
   <path
   id="path9185"
   fill="#000000"
   stroke="#000000"
   stroke-width="1.32661"
   d="m 244.618,347.508 c -9.37389,-5.35323 -15.4378,-16.7105 -13.748,-18.5959 1.68917,-1.88504 17.1431,8.36334 16.5708,16.348 -0.57203,7.98435 7.67396,10.5817 8.1669,0.58536 0.49266,-9.99638 11.7683,-18.7736 14.512,-16.7953 2.74365,1.97829 -3.19408,16.7128 -12.685,19.1546 -2.99764,1.56954 -3.5538,9.33052 1.3028,6.55937 4.85632,-2.77143 23.3875,7.91717 22.0314,11.3885 -1.35581,3.47159 -19.8763,-1.20246 -23.5463,-8.82199 -4.9303,-5.48165 -8.08186,-1.69484 -4.66583,3.23149 3.41575,4.92634 3.26693,22.5261 -1.39918,22.6386 -4.66611,0.11226 -6.51884,-14.28969 -2.18126,-22.22649 4.34296,-7.93616 0.62249,-8.64964 -5.30674,-3.27742 -6.37144,5.34019 -22.0272,10.2373 -23.351,7.02057 -1.32378,-3.21676 14.4009,-12.12151 22.0272,-10.2376 7.62633,1.88419 2.27225,-6.97181 2.27225,-6.97181 z" />
   <path
   id="path9187"
   fill="#000000"
   stroke="#000000"
   stroke-width="1.32661"
   d="m 250.385,367.651 c -6.08542,12.1584 -25.5011,4.5258 -13.9683,-9.36114 -15.5571,-4.23666 -8.63972,-23.3578 6.18123,-16.611 -4.59921,-16.268 23.4071,-14.0389 16.5504,1.1863 15.0494,-8.84098 20.509,14.0647 5.80706,16.467 12.4081,11.0336 -10.2648,21.0002 -14.5704,8.31884 z" />
   <circle
   id="circle9189"
   fill="#000000"
   stroke="#000000"
   stroke-width="1.32661"
   transform="matrix(3.53077,0.253051,-0.254331,3.54863,250.568,352.728)"
   r="2.2813201"
   cx="0"
   cy="0" />
  </g><g
       id="_46769120">
   <path
   id="path9185_1"
   fill="#000000"
   stroke="#000000"
   stroke-width="1.32661"
   d="m 243.375,501.545 c -9.37389,-5.35323 -15.4378,-16.7105 -13.748,-18.5959 1.68917,-1.88504 17.1431,8.36334 16.5708,16.348 -0.57203,7.98435 7.67396,10.5817 8.1669,0.58536 0.49266,-9.99638 11.7683,-18.7736 14.512,-16.7953 2.74365,1.9783 -3.19408,16.7128 -12.685,19.1546 -2.99764,1.56954 -3.5538,9.33052 1.3028,6.55937 4.85632,-2.77143 23.3875,7.91717 22.0314,11.3885 -1.35581,3.47159 -19.8763,-1.20246 -23.5463,-8.82199 -4.9303,-5.48164 -8.08186,-1.69484 -4.66583,3.2315 3.41575,4.92633 3.26693,22.5261 -1.39918,22.6386 -4.66611,0.11225 -6.51884,-14.28971 -2.18126,-22.2265 4.34296,-7.93616 0.62249,-8.64964 -5.30674,-3.27742 -6.37144,5.34019 -22.0272,10.2373 -23.351,7.02057 -1.32378,-3.21676 14.4009,-12.1215 22.0272,-10.2376 7.62633,1.88419 2.27225,-6.97181 2.27225,-6.97181 z" />
   <path
   id="path9187_2"
   fill="#000000"
   stroke="#000000"
   stroke-width="1.32661"
   d="m 249.142,521.687 c -6.08542,12.1584 -25.5011,4.5258 -13.9683,-9.36114 -15.5571,-4.23666 -8.63972,-23.3578 6.18123,-16.611 -4.59921,-16.268 23.4071,-14.0389 16.5504,1.1863 15.0494,-8.84098 20.509,14.0647 5.80706,16.467 12.4081,11.0336 -10.2648,21.0002 -14.5704,8.31884 z" />
   <circle
   id="circle9189_3"
   fill="#000000"
   stroke="#000000"
   stroke-width="1.32661"
   transform="matrix(3.53077,0.253051,-0.254331,3.54863,249.325,506.765)"
   r="2.2813201"
   cx="0"
   cy="0" />
  </g><g
       id="_46716104">
   <path
   id="path9185_4"
   fill="#000000"
   stroke="#000000"
   stroke-width="1.32661"
   d="m 331.647,423.348 c -9.37389,-5.35323 -15.4378,-16.7105 -13.748,-18.5959 1.68917,-1.88504 17.1431,8.36334 16.5708,16.348 -0.57203,7.98435 7.67396,10.5817 8.1669,0.58536 0.49266,-9.99638 11.7683,-18.7736 14.512,-16.7953 2.74365,1.9783 -3.19408,16.7128 -12.685,19.1546 -2.99764,1.56954 -3.5538,9.33052 1.3028,6.55937 4.85632,-2.77143 23.3875,7.91717 22.0314,11.3885 -1.35581,3.47159 -19.8763,-1.20246 -23.5463,-8.82199 -4.9303,-5.48164 -8.08186,-1.69484 -4.66583,3.2315 3.41575,4.92633 3.26693,22.5261 -1.39918,22.6386 -4.66611,0.11225 -6.51884,-14.2897 -2.18126,-22.2265 4.34296,-7.93616 0.62249,-8.64964 -5.30674,-3.27742 -6.37144,5.34019 -22.0272,10.2373 -23.351,7.02057 -1.32378,-3.21676 14.4009,-12.1215 22.0272,-10.2376 7.62633,1.88419 2.27225,-6.97181 2.27225,-6.97181 z" />
   <path
   id="path9187_5"
   fill="#000000"
   stroke="#000000"
   stroke-width="1.32661"
   d="m 337.414,443.491 c -6.08542,12.1584 -25.5011,4.5258 -13.9683,-9.36114 -15.5571,-4.23666 -8.63972,-23.3578 6.18123,-16.611 -4.59921,-16.268 23.4071,-14.0389 16.5504,1.1863 15.0494,-8.84098 20.509,14.0647 5.80706,16.467 12.4081,11.0336 -10.2648,21.0002 -14.5704,8.31884 z" />
   <circle
   id="circle9189_6"
   fill="#000000"
   stroke="#000000"
   stroke-width="1.32661"
   transform="matrix(3.53077,0.253051,-0.254331,3.54863,337.598,428.568)"
   r="2.2813201"
   cx="0"
   cy="0" />
  </g><g
       id="_46762792">
   <path
   id="path9185_7"
   fill="#000000"
   stroke="#000000"
   stroke-width="1.32661"
   d="m 155.102,420.861 c -9.37389,-5.35323 -15.4378,-16.7105 -13.748,-18.5959 1.68917,-1.88504 17.1431,8.36334 16.5708,16.348 -0.57203,7.98435 7.67396,10.5817 8.1669,0.58535 0.49266,-9.99638 11.7683,-18.7736 14.512,-16.7953 2.74365,1.9783 -3.19408,16.7128 -12.685,19.1546 -2.99764,1.56954 -3.5538,9.33052 1.3028,6.55937 4.85632,-2.77143 23.3875,7.91717 22.0314,11.3885 -1.35581,3.47159 -19.8763,-1.20245 -23.5463,-8.82199 -4.9303,-5.48164 -8.08186,-1.69484 -4.66583,3.2315 3.41575,4.92633 3.26693,22.5261 -1.39918,22.6386 -4.66611,0.11226 -6.51884,-14.2897 -2.18126,-22.2265 4.34296,-7.93616 0.62249,-8.64964 -5.30674,-3.27742 -6.37144,5.34019 -22.0272,10.2373 -23.351,7.02057 -1.32378,-3.21676 14.4009,-12.1215 22.0272,-10.2376 7.62633,1.88419 2.27225,-6.97181 2.27225,-6.97181 z" />
   <path
   id="path9187_8"
   fill="#000000"
   stroke="#000000"
   stroke-width="1.32661"
   d="m 160.869,441.004 c -6.08542,12.1584 -25.5011,4.5258 -13.9683,-9.36114 -15.5571,-4.23666 -8.63972,-23.3578 6.18123,-16.611 -4.59921,-16.268 23.4071,-14.0389 16.5504,1.1863 15.0494,-8.84098 20.509,14.0647 5.80706,16.467 12.4081,11.0336 -10.2648,21.0002 -14.5704,8.31884 z" />
   <circle
   id="circle9189_9"
   fill="#000000"
   stroke="#000000"
   stroke-width="1.32661"
   transform="matrix(3.53077,0.253051,-0.254331,3.54863,161.052,426.082)"
   r="2.2813201"
   cx="0"
   cy="0" />
  </g></g><g
     id="g276"
     transform="matrix(0.89515024,0,0,0.89515024,3.0631558,8.8525251)"><g
       id="g284"
       transform="matrix(0.98708746,0,0,0.98708746,3.2791301,3.5981015)"><path
         id="path167"
         d="m 283.2338,129.24714 c 6.73936,-9.25634 9.39894,-20.55265 32.45713,-21.13946 51.96676,0.0923 61.60594,84.83959 87.56409,86.46195 11.6599,-1.13875 -0.13885,-17.0667 10.50115,-16.67533 7.47973,-0.34014 12.91932,8.49941 12.74928,13.25925 0.0189,9.2773 -12.18318,16.45327 -20.85223,16.61287 -22.60272,0.41609 -61.66765,-75.25795 -89.39602,-73.18151 -4.33068,0.3243 -18.75597,1.41646 -26.93831,16.14992 l -71.82468,0.15795 c -8.18238,-14.73351 -21.52222,-15.98356 -25.85271,-16.30788 -27.72853,-2.07623 -66.79347,73.59754 -89.39602,73.18151 -8.669047,-0.15958 -20.871129,-7.33552 -20.852226,-16.61287 -0.170068,-4.75981 5.269551,-13.59941 12.749281,-13.25925 10.639965,-0.39139 -1.158791,15.53656 10.501145,16.67533 25.95799,-1.62215 35.59716,-86.3699 87.56409,-86.46195 23.05819,0.58685 25.71783,11.88312 32.45713,21.13946 h 58.56963 z"
         fill="#bf9f4f"
         style="stroke-width:0.821867" /><path
         id="path169"
         d="m 106.12534,186.81829 c -1.86748,-5.48599 4.67711,-6.63732 7.39843,-6.51384 l 139.98846,89.07549 142.0234,-87.15068 c 2.88976,-0.68003 9.09378,0.67934 7.394,6.11918 l -141.77766,87.57888 c -5.86292,3.10503 -9.17556,4.17017 -15.29328,-0.11951 L 106.12501,186.81779 Z"
         stroke-width="2.3297"
         stroke="#000000"
         fill="#bf9f4f" /><rect
         id="rect171"
         height="133.10286"
         width="13.769216"
         y="128.93704"
         x="246.62376"
         stroke-width="1.63079"
         stroke="#000000"
         fill="#bf9f4f" /><polygon
         id="polygon173"
         points="222.698,75.3903 254.344,15.2014 286.61,74.7698 262.41,70.4262 262.41,96.177 245.036,96.177 245.036,70.4262 "
         stroke-width="1.98425"
         stroke="#000000"
         fill="#bf9f4f"
         transform="matrix(0.82186613,0,0,0.82186613,45.236979,49.637324)" /><polygon
         id="polygon175"
         points="285.059,190.804 281.646,247.27 262.1,232.378 262.1,172.81 "
         stroke-width="0.992126"
         stroke="#000000"
         fill="#bf9f4f"
         transform="matrix(0.82186613,0,0,0.82186613,45.236979,49.637324)" /><polygon
         id="polygon203"
         points="221.897,190.7 225.309,247.165 244.855,232.273 244.855,172.705 "
         stroke-width="0.992126"
         stroke="#000000"
         fill="#bf9f4f"
         transform="matrix(0.82186613,0,0,0.82186613,45.236979,49.637324)" /></g></g></g>
</svg>
