<?xml version="1.0" encoding="UTF-8" standalone="no"?>
<!-- Created with Inkscape (http://www.inkscape.org/) -->

<svg
   version="1.0"
   width="59.651943"
   height="58.29319"
   id="svg3390"
   sodipodi:docname="julmat.svg"
   inkscape:version="1.1.1 (3bf5ae0d25, 2021-09-20)"
   xmlns:inkscape="http://www.inkscape.org/namespaces/inkscape"
   xmlns:sodipodi="http://sodipodi.sourceforge.net/DTD/sodipodi-0.dtd"
   xmlns="http://www.w3.org/2000/svg"
   xmlns:svg="http://www.w3.org/2000/svg">
  <sodipodi:namedview
     id="namedview238"
     pagecolor="#ffffff"
     bordercolor="#666666"
     borderopacity="1.0"
     inkscape:pageshadow="2"
     inkscape:pageopacity="0.0"
     inkscape:pagecheckerboard="0"
     showgrid="false"
     inkscape:zoom="4.8841808"
     inkscape:cx="45.043378"
     inkscape:cy="65.005784"
     inkscape:window-width="1920"
     inkscape:window-height="1017"
     inkscape:window-x="-8"
     inkscape:window-y="-8"
     inkscape:window-maximized="1"
     inkscape:current-layer="svg3390"
     fit-margin-top="0"
     fit-margin-left="0"
     fit-margin-right="0"
     fit-margin-bottom="0"
     lock-margins="false" />
  <defs
     id="defs3392">
    <clipPath
       id="clipPath3108">
      <path
         d="M 58.759,314.505 H 166.24 v 109.87 H 58.759 Z"
         id="path3110" />
    </clipPath>
    <clipPath
       id="clipPath3100">
      <path
         d="m 49.5,306.881 h 126 V 432 h -126 z"
         id="path3102" />
    </clipPath>
    <clipPath
       id="clipPath3092">
      <path
         d="M 0,0 H 360 V 576 H 0 Z"
         id="path3094" />
    </clipPath>
    <clipPath
       id="clipPath3128">
      <path
         d="m 49.5,306.881 h 126 V 432 h -126 z"
         id="path3130" />
    </clipPath>
    <clipPath
       id="clipPath3120">
      <path
         d="M 0,0 H 360 V 576 H 0 Z"
         id="path3122" />
    </clipPath>
    <clipPath
       id="clipPath3196">
      <path
         d="M 58.759,314.505 H 166.24 v 109.87 H 58.759 Z"
         id="path3198" />
    </clipPath>
    <clipPath
       id="clipPath3188">
      <path
         d="m 49.5,306.881 h 126 V 432 h -126 z"
         id="path3190" />
    </clipPath>
    <clipPath
       id="clipPath3180">
      <path
         d="M 0,0 H 360 V 576 H 0 Z"
         id="path3182" />
    </clipPath>
  </defs>
  <g
     id="g37367"
     style="fill:#ffffff"
     transform="translate(-4.6142504,0.88867488)">
    <path
       id="path37365"
       style="fill:#ffffff;fill-opacity:1;fill-rule:nonzero;stroke:none;stroke-width:0.557382"
       d="m 24.978516,-0.83984375 c -0.503256,0.1593839 -1.41686,-0.10907296 -1.637729,0.34473422 -0.07989,0.92422331 -0.455744,1.89669263 0.06668,2.75567333 1.563276,3.1562228 3.321662,6.2387293 4.391444,9.6125562 0.372246,0.592684 -0.685392,0.433914 -1.053954,0.630618 -2.964444,0.658508 -5.839505,2.286257 -7.494962,4.8947 -0.129577,1.549576 -0.02003,3.119307 0.347656,4.630859 -4.094315,0.300559 -8.108755,0.277406 -12.2011716,0.449219 -0.8229069,0.115304 -1.645835,0.230457 -2.46875,0.345703 0.2929856,0.928153 0.463612,1.927898 0.8306616,2.812712 1.0816092,1.190056 2.7565516,1.499406 4.1894198,2.091382 4.3978922,1.572005 8.9874282,2.716983 13.4760122,3.851765 -0.252245,0.833704 -0.360085,1.741169 -0.373047,2.583984 -1.958722,1.868157 -3.713041,3.951597 -5.326172,6.121094 -0.392789,0.55369 -0.627533,1.278956 -0.591809,1.929904 0.363451,0.525235 0.603495,1.203686 1.038784,1.637149 1.397503,0.62177 2.929031,0.123985 4.39663,0.184568 1.185553,-0.06032 2.53099,0.08645 3.556588,-0.535372 0.547146,-1.209317 1.146858,-2.407443 1.988479,-3.442811 0.03725,3.256733 0.621026,6.492522 1.433594,9.638672 0.340515,1.335663 0.984728,2.589895 2.029817,3.509641 1.110503,1.197958 2.221007,2.395916 3.331511,3.593874 -0.171863,-2.335653 -0.438606,-4.668434 -0.552734,-7.005859 0.186115,-0.84353 0.878751,-1.64168 0.491594,-2.535978 -0.05761,-0.557525 -0.620087,-0.878264 -0.854181,-1.278863 0.02781,-1.243407 0.102926,-2.505999 0.473915,-3.700784 0.727864,0.21875 1.455729,0.4375 2.183594,0.65625 0.07333,-0.407521 -0.615929,-1.539944 0.07813,-1.357422 2.111368,0.329168 4.222668,0.658778 6.333984,0.988281 -0.814232,-1.391636 -1.515444,-2.854337 -2.404297,-4.199218 0.30488,-0.697199 1.124902,-0.08044 1.6875,-0.316407 0.851287,-0.254351 1.747856,0.175553 2.628906,0.04883 1.115951,-0.250927 2.228308,0.266785 3.356531,0.02692 0.881881,-0.288707 1.73743,0.236022 2.641516,0.211357 1.563766,0.03325 3.319428,0.330734 4.707032,-0.554688 0.646972,-0.250466 0.750065,-0.85784 0.845972,-1.470661 -0.05742,-1.787457 -0.683274,-3.532733 -1.170191,-5.230511 0.570869,-0.375597 1.280782,-0.797894 1.279297,-1.564453 0.354056,-0.624076 -0.214245,-1.109072 0.0024,-1.735963 2.012688,-2.526068 4.194857,-4.979392 5.80159,-7.804825 0.346314,-0.394795 0.963378,-0.576258 1.232462,-1.098354 1.039668,-1.463419 0.501957,-3.333976 0.0031,-4.896324 0.03662,-0.880577 -0.794019,-0.563956 -1.381553,-0.582924 -1.379823,-0.01232 -2.772411,0.123552 -4.037347,0.717024 -0.523667,0.236599 -0.640017,0.964951 -0.946844,1.434569 -0.24118,0.504856 -0.382251,1.039875 -0.248047,1.595703 -0.675166,1.334111 -1.4545,2.611825 -2.283203,3.855469 0.544457,-1.543573 1.421134,-3.03405 1.541015,-4.6875 0.01121,-0.554398 -0.243508,-1.151288 -0.536657,-1.579979 -0.625125,-0.279081 -1.212677,-0.805326 -1.928186,-0.498146 -1.587868,0.510937 -3.05428,1.38924 -4.600902,2.030061 -1.35041,0.610864 -2.747147,1.114923 -4.082692,1.759002 -1.905838,-1.503652 -3.899736,-2.898721 -5.992188,-4.13086 -1.494898,-3.080551 -3.437671,-5.924323 -5.71856,-8.475326 -2.237502,-2.5459365 -4.769121,-4.97944894 -7.939643,-6.30787688 -0.180338,0.016276 -0.360677,0.0325521 -0.541015,0.0488281 z" />
    <g
       transform="matrix(0.5598098,0,0,-0.5549637,-30.796718,236.66217)"
       id="g37291"
       style="fill:#ffffff">
      <g
         clip-path="url(#clipPath3092)"
         id="g37289"
         style="fill:#ffffff">
        <g
           id="g37287"
           style="fill:#ffffff">
          <g
             clip-path="url(#clipPath3100)"
             id="g37285"
             style="fill:#ffffff">
            <g
               id="g37283"
               style="fill:#ffffff">
              <g
                 clip-path="url(#clipPath3108)"
                 id="g37281"
                 style="fill:#ffffff" />
            </g>
          </g>
        </g>
      </g>
    </g>
    <g
       transform="matrix(0.5598098,0,0,-0.5549637,-30.796718,236.66217)"
       id="g37343"
       style="fill:#ffffff">
      <g
         clip-path="url(#clipPath3120)"
         id="g37341"
         style="fill:#ffffff">
        <g
           id="g37339"
           style="fill:#ffffff">
          <g
             clip-path="url(#clipPath3128)"
             id="g37337"
             style="fill:#ffffff" />
        </g>
      </g>
    </g>
    <g
       transform="matrix(0.5598098,0,0,-0.5549637,-30.796718,236.66217)"
       id="g37359"
       style="fill:#ffffff">
      <g
         clip-path="url(#clipPath3180)"
         id="g37357"
         style="fill:#ffffff">
        <g
           id="g37355"
           style="fill:#ffffff">
          <g
             clip-path="url(#clipPath3188)"
             id="g37353"
             style="fill:#ffffff">
            <g
               id="g37351"
               style="fill:#ffffff">
              <g
                 clip-path="url(#clipPath3196)"
                 id="g37349"
                 style="fill:#ffffff" />
            </g>
          </g>
        </g>
      </g>
    </g>
  </g>
  <path
     d="m 8.9395969,58.279291 c -0.0011,0.0011 -0.0028,0.0022 -0.0039,0.0039 -0.0039,0.0033 -0.0084,0.0072 -0.01176,0.01 z"
     id="path2822"
     style="fill:#ffffff;fill-opacity:1;fill-rule:nonzero;stroke:none;stroke-width:0.557382" />
  <path
     d="m 37.867769,36.351964 c -0.08957,-0.129312 -0.305657,-0.192017 -0.392992,-0.415668 -0.03919,-0.101557 -0.06493,-0.228645 -0.154508,-0.272481 0,0 -0.35212,0.509457 -0.184726,1.268082 0.359392,0.08325 0.722714,-0.265817 0.722714,-0.265817 0,0 0.07277,-0.22365 0.0095,-0.314115 m -2.163665,-0.672061 c -0.437217,0.160945 -0.576038,0.465054 -0.576038,0.465054 0,0 0.08956,0.06383 0.173535,0.181484 0.08454,0.116537 0.10637,0.282466 0.111397,0.334083 0.0056,0.05161 0.468001,-0.0083 0.468001,-0.0083 0.131001,-0.03052 0.491518,-0.946218 0.491518,-0.946218 0,0 0.07613,-0.205331 0.04087,-0.248618 -0.03583,-0.0444 -0.272067,0.0616 -0.709279,0.22254"
     id="path2818"
     style="fill:#ffffff;fill-opacity:1;fill-rule:nonzero;stroke:none;stroke-width:0.557382" />
  <path
     d="m 0,38.807678 c 0.00112,-0.0022 0.00224,-0.0039 0.00336,-0.0061 0.00224,-0.0039 0.00392,-0.0089 0.00616,-0.01332 z"
     id="path2942"
     style="fill:#ffffff;fill-opacity:1;fill-rule:nonzero;stroke:none;stroke-width:0.557382" />
  <path
     d="m 30.700524,37.799309 c -2.989385,-1.121581 -3.751846,-1.394623 -3.751846,-1.394623 0,0 -1.602175,-2.913005 -1.721415,-5.06072 -0.812838,-0.108212 -3.483696,-0.782488 -4.289262,-0.988385 0.138833,0.220326 0.279339,0.440086 0.422662,0.659852 -0.335892,0.85576 -1.118506,3.011788 -0.905218,3.963551 0.242397,0.02664 1.023332,-0.907921 1.885439,-1.548349 0.01232,-0.411222 0.0011,-0.745316 -0.01399,-0.986725 0.09293,0.132081 0.18753,0.264712 0.282698,0.399019 1.724214,2.402432 3.017386,4.11172 3.017386,4.11172 0,0 -0.404183,3.764885 0.02687,6.968685 0.430488,3.20436 1.185117,7.315526 2.126723,8.116344 0,-0.400684 -0.241278,-1.360766 0.08173,-2.295891 0.32301,-0.934553 0.484795,-0.934553 0.403623,-1.094388 -0.08061,-0.160373 -0.915855,-0.534424 -0.915855,-0.774724 0,-0.240299 -0.134349,-3.257087 0.565973,-5.366499 0.700322,-2.108862 0.646581,-1.842474 0.646581,-1.842474 l 0.888418,0.267487 c 0,0 -0.134354,-0.561068 0,-0.561068 0.13436,0 1.212548,-0.187028 2.935642,0.08102 1.72422,0.266388 2.279546,0.356281 2.279546,0.356281 0,0 -0.976868,-1.888542 -3.965693,-3.010118"
     id="path3064"
     style="fill:#000000;fill-opacity:1;fill-rule:nonzero;stroke:none;stroke-width:0.557382" />
  <path
     d="m 17.55619,24.370298 c 0.06101,0.15539 0.222244,0.427877 0.292775,0.585482 0.843639,0 1.457196,-0.138181 1.995727,-0.15594 0,0 2.361278,2.315869 2.409422,1.472869 0.04758,-0.84243 -1.459984,-2.562817 -2.813045,-2.373025 -1.3525,0.189803 -2.070736,-0.138741 -1.884879,0.470615"
     id="path3066"
     style="fill:#8d1a1d;fill-opacity:1;fill-rule:nonzero;stroke:none;stroke-width:0.557382" />
  <path
     d="m 22.677324,30.944392 c 0,0 1.522688,2.676601 2.100972,3.577857 1.320031,2.05558 2.55889,3.497381 2.55889,3.497381 0,0 -2.554971,-3.997953 -3.296714,-6.73393 z"
     id="path3068"
     style="fill:#8d1a1d;fill-opacity:1;fill-rule:nonzero;stroke:none;stroke-width:0.557382" />
  <path
     d="m 48.424102,31.574831 c -0.574365,-1.210376 -0.660016,-1.452329 -0.660016,-1.452329 0,0 -0.488154,-2.103873 -0.883939,-2.566158 -0.395232,-0.462839 -1.077069,-0.746981 -1.077069,-0.746981 0,0 -0.07613,-0.09379 -0.212179,-0.257503 0.602926,-1.003374 1.602741,-2.790918 2.469886,-4.922528 1.347457,-3.311474 1.912871,-4.726071 1.455506,-4.566236 -0.45793,0.160374 -3.582223,1.708728 -5.495099,2.482908 -1.91231,0.774724 -3.178029,1.335237 -3.366136,1.575536 -0.0834,0.106553 -0.141072,0.197567 -0.202086,0.276927 -1.82274,-1.525595 -4.050224,-3.174392 -6.320247,-4.557911 -2.980993,-1.815291 -3.375664,-1.992879 -4.776308,-2.099994 -1.400639,-0.106553 -3.876672,0.0333 -5.071312,0.184254 -0.452886,0.05717 -0.949437,0.173703 -1.412405,0.303559 -4.578685,0.915696 -6.304573,3.694954 -6.304573,3.694954 0,0 -0.273747,2.614989 0.988065,5.446969 0.843633,0 1.508127,-0.124873 2.04667,-0.142626 2.908206,1.652676 2.516339,2.390778 1.617285,2.850294 1.358093,0.941773 3.615811,2.695464 4.036788,2.82976 0.674017,0.216435 1.335152,0.498912 1.662635,0.665401 0.888419,0.453955 2.692686,1.655457 4.4169,2.643292 1.724214,0.987835 5.304752,3.312023 6.139439,3.445209 0.835231,0.133758 2.022033,0.32633 2.668614,0.299131 0.64546,-0.02608 1.031718,-0.174819 1.031718,-0.174819 0,0 0.875548,0.250294 1.737101,0.250294 0.862101,0 1.48517,-0.321879 1.48517,-0.321879 0,0 0.64602,0.374051 2.046664,0.480593 0,0 0.918083,0.07271 1.779636,0.06216 0.890092,0.01887 1.536683,-0.128185 1.636889,-0.246404 0.163459,-0.192572 -0.863232,-4.225493 -1.437597,-5.435869"
     id="path3070"
     style="fill:#000000;fill-opacity:1;fill-rule:nonzero;stroke:none;stroke-width:0.557382" />
  <path
     d="m 41.433757,36.205454 c -0.684088,0.0011 -1.912864,0.0017 -2.408302,-0.0838 l -0.216086,-0.03663 0.18921,-0.110987 c 0.282709,-0.165934 0.608519,-0.362946 0.816208,-0.521671 -0.801653,0.03163 -2.100406,-0.0083 -2.490034,-0.104883 l -0.143306,-0.03552 0.108038,-0.100448 c 0.105244,-0.09768 0.261991,-0.21865 0.428255,-0.345742 0.178579,-0.137082 0.369474,-0.286362 0.503823,-0.411223 -0.585001,0.06049 -1.46837,0.130966 -1.902782,0.114877 l -0.177466,-0.0067 0.152828,-0.160939 c 0.129871,-0.135972 0.373953,-0.394025 0.490399,-0.606026 -0.0062,0.0011 -0.02407,0.0039 -0.02407,0.0039 -0.473593,0.07936 -1.121858,0.188133 -1.39448,0.178699 l -0.14891,-0.005 0.08565,-0.120982 c 0.121479,-0.170368 0.245757,-0.349072 0.328049,-0.482818 -0.05991,0.0111 -0.121473,0.02331 -0.121473,0.02331 -0.342604,0.06993 -0.767505,0.157055 -0.995907,0.08712 l -0.108604,-0.03274 0.06717,-0.09101 c 0.130441,-0.176484 0.184189,-0.296906 0.209374,-0.378491 -0.250789,0.06272 -0.655537,0.138192 -0.88226,0.04606 l -0.112522,-0.04495 0.08565,-0.08546 c 0.06495,-0.06438 0.122604,-0.168709 0.157312,-0.256393 -0.968465,-0.0094 -1.524922,0.152621 -1.524922,0.152621 1.508128,0.05328 3.034169,2.260361 3.429389,2.669919 0.395232,0.409008 1.579789,0.943449 3.070557,1.103823 1.133061,0.120987 1.927431,-0.02275 2.156393,-0.07325 0.122038,-0.07659 0.245197,-0.172033 0.372833,-0.284696"
     id="path3072"
     style="fill:#ffffff;fill-opacity:1;fill-rule:nonzero;stroke:none;stroke-width:0.557382" />
  <path
     d="m 40.196572,34.783083 c -1.633525,-0.836332 -2.62047,-1.601627 -4.595479,-1.975671 -0.566522,-0.107663 -1.07091,-0.15428 -1.502524,-0.16705 -0.02855,0.08991 -0.07725,0.184248 -0.128196,0.260833 0.207124,0.02386 0.530145,-0.03607 0.79381,-0.110432 l 0.103005,-0.02941 v 0.105998 c 0,0.07325 -0.03471,0.23031 -0.192015,0.473384 0.213853,0.01276 0.54357,-0.05217 0.799969,-0.105443 l 0.444483,-0.08269 -0.06101,0.138741 c -0.0459,0.104894 -0.166263,0.286911 -0.331967,0.522776 0.313494,-0.0222 0.838041,-0.110443 1.20639,-0.172039 l 0.297259,-0.04939 -0.03415,0.121543 c -0.0627,0.221431 -0.307336,0.501132 -0.489834,0.696468 0.482002,-0.0033 1.300998,-0.06937 1.910637,-0.13818 l 0.175774,-0.01998 -0.100206,0.144835 c -0.108603,0.15928 -0.396905,0.380161 -0.67569,0.594377 -0.106918,0.08268 -0.202651,0.157604 -0.289982,0.229194 0.534619,0.07437 1.797544,0.109323 2.505704,0.0616 l 0.196504,-0.01332 -0.129881,0.146521 c -0.137154,0.15428 -0.470806,0.369606 -0.817317,0.576608 0.578272,0.05439 1.599371,0.05383 2.183818,0.05272 l 0.368909,-5.55e-4 -0.137713,0.137631 c -0.06382,0.06326 -0.200412,0.196457 -0.380677,0.329654 0.269275,0.05383 0.767505,0.145395 1.071476,0.158154 0.501601,0.01998 1.094994,0.07048 1.72366,-0.07103 -0.880021,-0.39181 -2.280665,-0.978956 -3.914755,-1.815841"
     id="path3074"
     style="fill:#ffffff;fill-opacity:1;fill-rule:nonzero;stroke:none;stroke-width:0.557382" />
  <path
     d="m 27.197799,20.098187 c 0,0 0.933763,0.676501 1.902783,1.9224 0.970156,1.245888 1.616176,2.207085 1.436477,2.314193 -0.179139,0.106559 -0.897369,-0.214216 -0.897369,-0.214216 0,0 1.561298,0.959538 2.99833,2.204865 1.435918,1.246454 2.172633,1.960693 2.172633,1.960693 0,0 2.334401,-0.03552 2.585196,0.53388 0.251914,0.569393 0.359963,0.818566 0.538531,1.139335 0.179711,0.320209 1.293172,1.922394 1.436478,1.922394 0.144431,0 0.578289,-0.0022 0.686892,-0.109327 0.107472,-0.106553 0.282699,-0.460065 0.282699,-0.460065 0,0 0.144436,0.782504 -0.143877,1.174303 0.283829,0.214765 2.94741,1.913515 5.263891,2.880811 2.01756,0.84133 3.854296,1.573327 4.033995,1.394624 0.179699,-0.178138 -0.82292,-3.777083 -1.397285,-4.987459 -0.574919,-1.21037 -0.660016,-1.45289 -0.660016,-1.45289 0,0 -0.488714,-2.102757 -0.883939,-2.565597 -0.395232,-0.462839 -1.077634,-0.747536 -1.077634,-0.747536 0,0 -1.759482,-2.176007 -3.770319,-4.026816 -2.010831,-1.85081 -4.920169,-4.125046 -7.900036,-5.940887 -2.980427,-1.815841 -3.375653,-1.993984 -4.776297,-2.100537 -1.400644,-0.107108 -3.626443,0.102662 -4.811566,0.316329 -1.185117,0.213661 -2.76546,0.783054 -2.76546,0.783054 0,0 1.615611,0.748096 3.304003,2.065025 z"
     id="path3076"
     style="fill:#8d1a1d;fill-opacity:1;fill-rule:nonzero;stroke:none;stroke-width:0.557382" />
  <path
     d="m 36.265033,29.549219 c 0,0 0.628112,0.569942 1.005419,1.104383 0.377311,0.534425 1.005412,1.512826 1.005412,1.512826 0,0 -0.843627,-0.374051 -1.077068,-0.498363 -0.233435,-0.124861 -0.431059,-0.266927 -0.431059,-0.266927 0,0 -0.269823,-0.605471 -0.340353,-0.978961 -0.07278,-0.374046 -0.162351,-0.872958 -0.162351,-0.872958"
     id="path3078"
     style="fill:#f28f20;fill-opacity:1;fill-rule:nonzero;stroke:none;stroke-width:0.557382" />
  <path
     d="m 31.815099,27.917626 0.426581,0.582151 c 0,0 -0.466327,1.880778 -0.41034,2.441291 0,0 -0.344289,-1.346903 -0.01623,-3.023442"
     id="path3080"
     style="fill:#8d1a1d;fill-opacity:1;fill-rule:nonzero;stroke:none;stroke-width:0.557382" />
  <path
     d="m 30.772734,26.960868 0.42658,0.668171 c 0,0 -0.390747,2.082784 -0.29222,2.789808 0,0 -0.461289,-1.533925 -0.13436,-3.457979"
     id="path3082"
     style="fill:#8d1a1d;fill-opacity:1;fill-rule:nonzero;stroke:none;stroke-width:0.557382" />
  <path
     d="m 29.74157,26.090691 0.427134,0.582701 c 0,0 -0.337011,2.179902 -0.238479,3.114456 0,0 -0.526221,-1.641577 -0.188655,-3.697157"
     id="path3084"
     style="fill:#8d1a1d;fill-opacity:1;fill-rule:nonzero;stroke:none;stroke-width:0.557382" />
  <path
     d="m 27.394847,22.696522 c 0,0 -3.716577,-2.313638 -6.158468,-2.971825 -2.441884,-0.658742 -2.656857,-0.748086 -2.800728,-0.640984 -0.143871,0.106554 -0.557011,0.40957 -0.557011,0.40957 0,0 0.359398,-0.712024 0.538532,-0.712024 0.180264,0 1.688392,0.249185 3.825186,1.06775 2.095933,0.803033 3.859894,1.975666 5.152489,2.847514"
     id="path3086"
     style="fill:#8d1a1d;fill-opacity:1;fill-rule:nonzero;stroke:none;stroke-width:0.557382" />
  <g
     transform="matrix(0.5598098,0,0,-0.5549637,-35.447162,237.51465)"
     id="g3088">
    <g
       clip-path="url(#clipPath3092)"
       id="g3090">
      <g
         id="g3096">
        <g
           clip-path="url(#clipPath3100)"
           id="g3098">
          <g
             id="g3104">
            <g
               clip-path="url(#clipPath3108)"
               id="g3106">
              <path
                 d="m 98.321,383.86099 c 0,0 -7.024,-0.76999 -14.43401,-1.05899 -7.40899,-0.289 -15.502,-0.33301 -15.53898,-0.47999 -0.14402,-0.57801 10.96899,-4.571 21.31299,-7.21801 12.66101,-3.238 17.464,-4.473 24.53601,-4.32901 -0.72101,1.00901 -1.53901,1.82801 -2.93401,2.93502 -1.396,1.10598 -8.179,7.64898 -12.942,10.15098"
                 id="path3112"
                 style="fill:#000000;fill-opacity:1;fill-rule:nonzero;stroke:none" />
              <path
                 d="m 110.444,391.55901 c 0,0 3.801,0.67298 8.131,-0.14501 4.33,-0.81801 6.486,-1.43001 6.92801,-1.15401 0.76899,0.48002 -4.57001,12.74901 -9.47802,19.19501 -4.89599,6.433 -10.53599,12.509 -16.069,14.915 -0.599,0.261 4.668,-8.708 6.832,-14.626 2.16501,-5.918 3.60901,-10.34401 3.60901,-10.34401 0,0 -5.77301,0.28901 -9.43,-0.57699 -3.656,-0.866 2.261,-5.677 9.477,-7.26399"
                 id="path3114"
                 style="fill:#000000;fill-opacity:1;fill-rule:nonzero;stroke:none" />
            </g>
          </g>
        </g>
      </g>
    </g>
  </g>
  <g
     transform="matrix(0.5598098,0,0,-0.5549637,-35.447162,237.51465)"
     id="g3116">
    <path
       d="m 130.40401,365.948 c -0.019,0.021 -0.38201,0.31801 -0.60501,0.636 -0.011,0.20399 -0.053,0.646 -0.222,0.795 -0.035,0.19999 -0.34501,0.272 -0.697,0.268 -0.61,-0.007 -0.772,0.185 -1.636,0.048 -0.865,-0.138 -2.658,-0.50901 -7.374,-0.49201 0,0 -6.41601,-0.033 -9.626,0.192 -3.211,0.224 -4.625,0.467 -4.88,0.303 -0.25501,-0.163 -5.03101,-3.676 -7.795,-6.46201 -2.76199,-2.78799 -5.011,-5.66499 -6.37399,-7.31599 -1.36301,-1.649 -1.931,-2.618 -1.89801,-2.746 0.018,-0.066 0.348,-0.566 0.391,-0.67299 0.067,-0.16001 2.566,0.12098 4.586,0.17399 2.021,0.052 4.683,0.079 4.77899,0.209 0.09401,0.12799 1.502,3.672 4.29502,6.68399 2.793,3.01201 5.90699,5.99501 6.22699,5.96601 0.322,-0.029 8.018,0.21 11.60901,0.56601 3.58898,0.35699 8.26799,0.85299 8.554,1.04899 0.28698,0.19499 0.89199,0.545 0.666,0.799"
       id="path3132"
       style="fill:#000000;fill-opacity:1;fill-rule:nonzero;stroke:none" />
    <path
       d="m 102.903,362.489 c -1.271,0.079 -2.261,0.11301 -3.024,0.11999 -0.706,-0.61699 -1.386,-1.24299 -1.97499,-1.836 -0.13401,-0.13499 -0.26702,-0.27198 -0.39901,-0.40798 1.917,0.21598 5.169,0.49398 7.266,0.20599 0.37699,0.403 0.76001,0.80501 1.13501,1.194 -0.57401,0.33301 -1.5,0.63 -3.00301,0.724"
       id="path3134"
       style="fill:#8d1a1d;fill-opacity:1;fill-rule:nonzero;stroke:none" />
    <path
       d="m 97.192,360.039 c -0.63299,-0.66099 -1.233,-1.319 -1.797,-1.95801 0.795,0.077 1.948,0.14602 3.676,0.19901 1.477,0.043 2.614,-0.043 3.38299,-0.25301 0.10001,0.12001 0.19001,0.22402 0.26801,0.30802 l 0.036,0.039 c 0.52,0.57801 1.13301,1.25101 1.772,1.93901 -2.05,0.22901 -5.23599,-0.026 -7.338,-0.274"
       id="path3136"
       style="fill:#8d1a1d;fill-opacity:1;fill-rule:nonzero;stroke:none" />
    <path
       d="m 99.08,357.99001 c -1.966,-0.059 -3.181,-0.142 -3.96901,-0.23101 -0.20399,-0.23601 -0.403,-0.466 -0.59799,-0.694 0.577,0.097 1.368,0.211 2.439,0.32601 l 0.345,0.037 c 1.947,0.21102 3.807,0.41301 4.852,0.21601 0.038,0.049 0.074,0.096 0.11,0.14 -0.62401,0.152 -1.612,0.253 -3.179,0.20601"
       id="path3138"
       style="fill:#8d1a1d;fill-opacity:1;fill-rule:nonzero;stroke:none" />
    <path
       d="m 96.242,354.129 c 1.758,0.077 2.52601,0.11101 3.49399,-0.1 0.27101,0.46599 0.552,0.92199 0.832,1.35798 -0.61599,0.24601 -1.513,0.46102 -2.78698,0.472 -1.638,0.016 -3.12401,-0.008 -4.33701,-0.067 -0.418,-0.50301 -0.80499,-0.97901 -1.159,-1.414 L 91.744,353.717 c 1.051,0.163 2.467,0.32501 3.967,0.38999 z"
       id="path3140"
       style="fill:#8d1a1d;fill-opacity:1;fill-rule:nonzero;stroke:none" />
    <path
       d="m 97.328,357.142 -0.34601,-0.039 c -1.29299,-0.139 -2.179,-0.276 -2.763,-0.383 -0.17999,-0.213 -0.35598,-0.42399 -0.52699,-0.629 1.16899,0.051 2.563,0.073 4.09,0.057 1.351,-0.013 2.298,-0.24299 2.948,-0.50999 0.43499,0.66499 0.86,1.26601 1.225,1.75301 -1.035,0.14 -2.916,-0.064 -4.627,-0.24901"
       id="path3142"
       style="fill:#8d1a1d;fill-opacity:1;fill-rule:nonzero;stroke:none" />
    <path
       d="m 100.32899,363.00101 c -0.041,-0.036 -0.082,-0.07 -0.12399,-0.10701 0.718,-0.014 1.61,-0.049 2.71601,-0.118 1.40499,-0.087 2.47299,-0.354 3.19499,-0.796 0.082,0.084 0.16301,0.16799 0.24299,0.249 -0.20799,0.095 -0.43399,0.18399 -0.66899,0.263 -0.835,0.27601 -3.919,0.444 -5.36101,0.50901"
       id="path3144"
       style="fill:#8d1a1d;fill-opacity:1;fill-rule:nonzero;stroke:none" />
    <path
       d="m 102.689,364.944 c -0.64499,-0.51199 -1.34501,-1.08099 -2.038,-1.668 1.552,-0.074 4.312,-0.239 5.129,-0.50999 0.268,-0.089 0.54001,-0.19701 0.795,-0.319 0.66,0.66198 1.268,1.24099 1.75399,1.64299 -0.49699,0.263 -1.31799,0.511 -2.666,0.67199 -1.222,0.14801 -2.19599,0.194 -2.97399,0.18201"
       id="path3146"
       style="fill:#8d1a1d;fill-opacity:1;fill-rule:nonzero;stroke:none" />
    <path
       d="m 100.87199,355.328 c 0.022,-0.13299 0.045,-0.265 0.068,-0.392 0.368,0.56 0.75099,1.09099 1.14701,1.59501 -0.023,0.138 -0.049,0.29199 -0.077,0.45098 -0.348,-0.47399 -0.74,-1.03999 -1.13801,-1.65399"
       id="path3148"
       style="fill:#8d1a1d;fill-opacity:1;fill-rule:nonzero;stroke:none" />
    <path
       d="m 102.677,357.246 c 0.15199,0.17501 0.304,0.351 0.459,0.51801 0.019,0.02 0.64,0.68899 1.49201,1.57199 -0.02,0.156 -0.048,0.353 -0.081,0.56801 -0.50099,-0.54001 -1.028,-1.11501 -1.575,-1.72402 l -0.039,-0.041 c -0.099,-0.10701 -0.218,-0.248 -0.353,-0.414 0.024,-0.11802 0.061,-0.29401 0.097,-0.47901"
       id="path3150"
       style="fill:#8d1a1d;fill-opacity:1;fill-rule:nonzero;stroke:none" />
    <path
       d="m 106.14999,361.595 c 0.048,-0.17799 0.10001,-0.37401 0.15001,-0.558 0.077,0.076 0.155,0.152 0.23101,0.22901 -0.026,0.19099 -0.055,0.41499 -0.083,0.63598 -0.098,-0.1 -0.198,-0.20199 -0.29801,-0.30699"
       id="path3152"
       style="fill:#8d1a1d;fill-opacity:1;fill-rule:nonzero;stroke:none" />
    <path
       d="m 108.31799,363.713 c -0.42498,-0.377 -0.972,-0.903 -1.614,-1.551 0.027,-0.201 0.057,-0.42801 0.084,-0.643 0.55301,0.539 1.08901,1.045 1.54801,1.445 -0.006,0.243 -0.012,0.51101 -0.018,0.749"
       id="path3154"
       style="fill:#8d1a1d;fill-opacity:1;fill-rule:nonzero;stroke:none" />
    <path
       d="m 100.709,354.575 c -0.022,0.132 -0.046,0.265 -0.068,0.393 -0.22901,-0.363 -0.45801,-0.74 -0.67801,-1.11999 0.02099,-0.136 0.043,-0.27701 0.06399,-0.41301 0.222,0.391 0.44802,0.77099 0.68201,1.14"
       id="path3156"
       style="fill:#8d1a1d;fill-opacity:1;fill-rule:nonzero;stroke:none" />
    <path
       d="m 105.916,361.353 c -0.353,-0.366 -0.726,-0.76 -1.117,-1.17701 0.029,-0.194 0.059,-0.39599 0.085,-0.57598 0.36901,0.38099 0.77001,0.791 1.18,1.20098 -0.053,0.19701 -0.10601,0.39 -0.148,0.55201"
       id="path3158"
       style="fill:#8d1a1d;fill-opacity:1;fill-rule:nonzero;stroke:none" />
    <path
       d="m 102.34599,357.42799 c -0.032,-0.041 -0.064,-0.083 -0.097,-0.127 0.026,-0.15699 0.054,-0.317 0.08,-0.47099 0.037,0.045 0.072,0.092 0.11001,0.137 -0.033,0.166 -0.066,0.328 -0.093,0.46099"
       id="path3160"
       style="fill:#8d1a1d;fill-opacity:1;fill-rule:nonzero;stroke:none" />
    <path
       d="m 129.7,366.036 c -0.166,0.077 -0.416,0.195 -0.455,0.52 l -0.011,0.202 c -0.007,0.332 -0.028,0.34201 -0.21998,0.34001 -0.25601,-0.002 -0.44501,0.027 -0.61101,0.053 -0.26399,0.041 -0.492,0.077 -0.98399,-10e-4 l -0.235,-0.039 c -0.92202,-0.153 -2.83802,-0.47198 -7.18201,-0.45698 -0.065,0 -6.465,-0.03 -9.649,0.19299 l -2.91201,0.24001 c -0.92199,0.084 -1.64898,0.14999 -1.80499,0.099 -0.141,-0.094 -1.20601,-0.871 -2.58101,-1.95201 0.72501,-0.005 1.59401,-0.058 2.64301,-0.18399 1.308,-0.158 2.267,-0.414 2.873,-0.766 0.33,0.25399 0.58099,0.397 0.716,0.38501 0.472,-0.032 8.183,0.088 11.713,0.43899 l 6.28799,0.607 c 1.16401,0.10901 1.47602,0.138 1.558,0.16999 l 0.025,0.01 h 0.026 c 0.23999,0.002 0.627,0.024 0.96199,0.052 -0.047,0.032 -0.098,0.061 -0.15899,0.089"
       id="path3162"
       style="fill:#f28f20;fill-opacity:1;fill-rule:nonzero;stroke:none" />
    <path
       d="m 96.254,353.84 -0.53099,-0.022 C 94.02499,353.745 92.495,353.55 91.468,353.38 c -0.90001,-1.096 -1.298,-1.70001 -1.472,-2.02101 0.519,0.024 1.334,0.071 2.039,0.112 l 2.292,0.11801 c 1.28199,0.035 3.71299,0.11001 4.235,0.16201 0.285,0.65098 0.64,1.33899 1.024,2.01599 -0.883,0.181 -1.63001,0.149 -3.332,0.073"
       id="path3164"
       style="fill:#f28f20;fill-opacity:1;fill-rule:nonzero;stroke:none" />
    <path
       d="m 127.41499,361.938 c 0,0 -0.82599,-0.108 -0.836,-0.015 -0.009,0.093 -0.048,0.392 -0.19899,0.60199 -0.15,0.21201 -0.30999,0.32702 -0.30999,0.32702 0,0 0.24798,0.54798 1.02899,0.83799 0.781,0.29 1.203,0.48101 1.267,0.401 0.063,-0.078 -0.073,-0.44799 -0.073,-0.44799 0,0 -0.644,-1.65001 -0.87801,-1.70501"
       id="path3166"
       style="fill:#000000;fill-opacity:1;fill-rule:nonzero;stroke:none" />
    <path
       d="m 127.94701,363.744 c -0.084,-0.032 -0.17701,-0.067 -0.26902,-0.102 l -0.47,-0.177 c -0.43799,-0.163 -0.67299,-0.41401 -0.78599,-0.56501 0.064,-0.062 0.13501,-0.14099 0.208,-0.24199 0.06,-0.084 0.21599,-0.34201 0.25,-0.434 0.344,0.45599 0.988,1.214 1.06701,1.52"
       id="path3168"
       style="fill:#f28f20;fill-opacity:1;fill-rule:nonzero;stroke:none" />
    <path
       d="m 152.026,373.50999 c 0,0 0.72,0.41102 0.662,0.50301 -0.057,0.093 -0.235,0.39999 -0.265,0.692 -0.03,0.291 0.013,0.5 0.013,0.5 0,0 -0.57501,0.36 -1.38501,0.15 -0.81098,-0.21 -1.27299,-0.292 -1.26599,-0.405 0.005,-0.114 0.11,-0.42301 0.11,-0.42301 0,0 1.911,-1.10998 2.131,-1.017"
       id="path3170"
       style="fill:#000000;fill-opacity:1;fill-rule:nonzero;stroke:none" />
    <path
       d="m 150.35201,374.881 c 0.089,0.024 0.18499,0.047 0.28099,0.071 l 0.49,0.123 c 0.455,0.119 0.813,0.029 1.00501,-0.045 -0.005,-0.097 -0.006,-0.215 0.009,-0.35401 0.011,-0.11698 0.041,-0.23098 0.077,-0.33898 -0.585,0.21598 -1.331,0.46499 -1.86199,0.54399"
       id="path3172"
       style="fill:#f28f20;fill-opacity:1;fill-rule:nonzero;stroke:none" />
    <path
       d="m 130.964,362.479 c -0.16,0.23301 -0.546,0.346 -0.70201,0.749 -0.07,0.183 -0.11599,0.412 -0.276,0.49099 0,0 -0.629,-0.918 -0.32998,-2.28498 0.64199,-0.15001 1.291,0.47898 1.291,0.47898 0,0 0.12999,0.403 0.017,0.56601"
       id="path3174"
       style="fill:#000000;fill-opacity:1;fill-rule:nonzero;stroke:none" />
  </g>
  <g
     transform="matrix(0.5598098,0,0,-0.5549637,-35.447162,237.51465)"
     id="g3176">
    <g
       clip-path="url(#clipPath3180)"
       id="g3178">
      <g
         id="g3184">
        <g
           clip-path="url(#clipPath3188)"
           id="g3186">
          <g
             id="g3192">
            <g
               clip-path="url(#clipPath3196)"
               id="g3194">
              <path
                 d="m 130.549,362.05 0.04,0.034 -0.035,0.05 c -0.132,0.193 -0.321,0.49401 -0.481,0.851 l -0.056,0.12199 -0.037,-0.11599 c -0.084,-0.26599 -0.17501,-0.691 -0.124,-1.20101 l 0.008,-0.078 0.235,0.063 c 0.143,0.056 0.296,0.14901 0.45,0.27501"
                 id="path3200"
                 style="fill:#f28f20;fill-opacity:1;fill-rule:nonzero;stroke:none" />
              <path
                 d="m 166.17599,396.92999 c -0.08,0.79901 -0.39799,1.75202 -0.39799,1.75202 0,0 -1.548,-0.032 -2.47701,-0.12801 -0.929,-0.096 -2.149,-0.61 -2.149,-0.61 0,0 -0.57798,-0.994 -0.70498,-1.53999 -0.035,-0.13901 0.224,-1.41101 0.224,-1.41101 0,0 -0.83501,-1.668 -1.765,-3.4 -0.93001,-1.733 -3.91201,-6.448 -6.03,-9.304 -2.11901,-2.854 -4.17101,-5.325 -4.17101,-5.325 l 0.67101,-1.512 0.63099,0.44999 0.161,0.06 0.545,-0.044 c 0,0 0.99701,1.091 2.278,2.343 1.28399,1.25 6.095,7.50501 7.92399,9.976 1.82801,2.47 3.46601,5.742 3.46601,5.742 0,0 0.639,-0.096 1.12201,0.19201 0.48098,0.289 0.73599,1.34799 0.73599,1.34799 0,0 0.017,0.61799 -0.063,1.41099"
                 id="path3202"
                 style="fill:#000000;fill-opacity:1;fill-rule:nonzero;stroke:none" />
            </g>
          </g>
        </g>
      </g>
    </g>
  </g>
  <path
     d="m 55.649013,17.277862 c 0,0 1.060828,-0.112658 1.13137,-0.120982 0.06101,-0.08491 0.244083,-0.350743 0.350435,-0.61712 -0.223353,0.0028 -0.674559,0.01387 -1.042366,0.05106 -0.415933,0.04273 -0.949437,0.244189 -1.107858,0.3069 -0.07613,0.135417 -0.210488,0.386804 -0.291101,0.591591 0.241844,-0.08435 0.563729,-0.167044 0.95952,-0.211441"
     id="path3220"
     style="fill:#f28f20;fill-opacity:1;fill-rule:nonzero;stroke:none;stroke-width:0.557382" />
  <path
     d="m 48.737596,27.745587 0.136028,-0.122641 -0.06661,0.188127 c 0,0.0111 -0.01735,0.09101 -0.04534,0.14762 0.06438,-0.01831 0.261437,-0.114328 0.261437,-0.114328 0,0 -0.346528,0.371276 -0.432179,0.482824 0.02351,-0.01387 0.157301,-0.09157 0.180819,-0.105443 0.29558,-0.195897 3.131016,-3.623913 4.73935,-5.732215 1.376012,-1.803082 2.585201,-4.218839 2.834311,-4.729406 -0.157861,0.0011 -0.389062,0.01776 -0.591713,0.03274 -0.329168,0.02497 -0.495426,0.114883 -0.642656,0.194792 l -0.179699,0.08603 c -0.05823,0.08213 -0.188108,0.405667 -0.188108,0.405667 -0.0045,0.0094 -0.473593,0.939004 -0.989738,1.891322 -0.503834,0.930674 -2.186057,3.574516 -3.388534,5.182806 -0.727742,0.972846 -1.528829,2.007298 -2.042181,2.551723 0.103565,-0.08325 0.3538,-0.304115 0.41482,-0.359617"
     id="path3222"
     style="fill:#f28f20;fill-opacity:1;fill-rule:nonzero;stroke:none;stroke-width:0.557382" />
  <path
     d="m 48.599323,28.130732 c -0.05262,0.01498 -0.101886,0.0283 -0.106364,0.02886 -0.156747,0.126532 -0.361637,0.168154 -0.437772,0.196463 0.02575,0.04995 0.199852,0.389579 0.226158,0.441745 0.04087,-0.0283 0.115881,-0.08214 0.139952,-0.09878 -0.01567,-0.04218 -0.03471,-0.09434 -0.05598,-0.158715 0.07949,-0.132087 0.165699,-0.321329 0.234001,-0.409568"
     id="path3224"
     style="fill:#f28f20;fill-opacity:1;fill-rule:nonzero;stroke:none;stroke-width:0.557382" />
</svg>
