<?xml version="1.0" encoding="UTF-8" standalone="no"?>
<!-- Created with Inkscape (http://www.inkscape.org/) -->

<svg
   version="1.1"
   id="svg39196"
   width="58.936398"
   height="66.865845"
   viewBox="0 0 58.936398 66.865844"
   sodipodi:docname="lhj.svg"
   inkscape:version="1.1.1 (3bf5ae0d25, 2021-09-20)"
   xmlns:inkscape="http://www.inkscape.org/namespaces/inkscape"
   xmlns:sodipodi="http://sodipodi.sourceforge.net/DTD/sodipodi-0.dtd"
   xmlns="http://www.w3.org/2000/svg"
   xmlns:svg="http://www.w3.org/2000/svg">
  <defs
     id="defs39200" />
  <sodipodi:namedview
     id="namedview39198"
     pagecolor="#ffffff"
     bordercolor="#666666"
     borderopacity="1.0"
     inkscape:pageshadow="2"
     inkscape:pageopacity="0.0"
     inkscape:pagecheckerboard="0"
     showgrid="false"
     fit-margin-top="0"
     fit-margin-left="0"
     fit-margin-right="0"
     fit-margin-bottom="0"
     inkscape:zoom="7.7034882"
     inkscape:cx="29.337359"
     inkscape:cy="33.426416"
     inkscape:window-width="1920"
     inkscape:window-height="1017"
     inkscape:window-x="-8"
     inkscape:window-y="-8"
     inkscape:window-maximized="1"
     inkscape:current-layer="g39202" />
  <g
     inkscape:groupmode="layer"
     inkscape:label="Image"
     id="g39202"
     transform="translate(1.817892,2.1256069)">
    <rect
       style="fill:#ffffff;fill-opacity:1"
       id="rect46373"
       width="31.024906"
       height="36.087547"
       x="11.81283"
       y="11.163774" />
    <path
       id="path46273"
       style="fill:#ffffff;fill-opacity:1;stroke-width:0.32"
       d="M 13.447266,-2.1132812 C 9.3824723,-2.0512283 5.3058122,-2.17302 1.2507231,-1.8524691 0.0230523,-1.805049 -1.2266431,-1.0666551 -1.4693715,0.20690104 -1.9115617,2.6971327 -1.733149,5.2492587 -1.8152299,7.7674274 c -0.012601,12.1610636 0.017552,24.3227176 0.1331054,36.4832296 0.09922,2.09566 -0.076878,4.243875 0.4301714,6.294265 0.45788851,1.548983 2.20030449,1.983654 3.4804917,2.639221 8.4868684,3.690398 16.8481634,7.661533 25.2421644,11.556091 3.360493,-1.329262 6.590866,-2.967446 9.889834,-4.4413 5.579964,-2.580489 11.177328,-5.153593 16.797666,-7.61534 1.104855,-0.478965 2.312101,-1.191025 2.492269,-2.499991 0.409025,-2.524188 0.271008,-5.101396 0.353089,-7.650355 0.07786,-11.982493 0.147637,-23.965714 0.09864,-35.9484171 -0.06878,-2.1575975 0.07213,-4.3486204 -0.356108,-6.4754559 -0.289927,-1.2485563 -1.542512,-1.9216554 -2.750869,-1.9683667 -4.17074,-0.3144022 -8.361828,-0.1961682 -12.541709,-0.2547297 -9.335439,-0.016443 -18.670811,-0.015381 -28.00625,4.402e-4 z m 7.794922,18.4238282 c 1.295843,0.01884 2.591993,0.03489 3.886718,0.0957 0.197412,4.758473 0.184308,9.53825 0.0059,14.291016 -1.432115,0.05458 -2.865806,0.08632 -4.298828,0.08789 -0.229627,-3.918785 -0.176569,-7.848754 -0.0918,-11.771484 0.01851,-0.530008 0.03724,-1.178667 0.07186,-1.718024 0.113627,-0.347935 -0.195163,-1.176004 0.426186,-0.985101 z m 10.126953,21.394531 c 1.400288,0.02916 2.811498,-0.04538 4.201171,0.16211 0.01536,1.360916 0.02711,2.728724 -0.115234,4.083984 -4.553347,0.130162 -9.113579,0.09032 -13.667261,-0.0335 -0.532332,0.0084 -1.157908,0.0692 -1.003433,-0.657666 -0.105429,-1.148771 -0.148095,-2.307475 -0.06563,-3.45922 3.546602,-0.152967 7.101254,-0.06242 10.650391,-0.0957 z" />
    <path
       style="fill:#b72e21;fill-opacity:1;stroke-width:0.32"
       d="M 23.809812,60.828749 C 15.426576,56.904058 6.1670157,52.670896 3.9120697,51.732157 c -1.324334,-0.551322 -2.681115,-1.20216 -3.01506898,-1.446314 -0.58577,-0.428253 -0.610217,-1.307385 -0.693018,-24.921097 -0.0772,-22.0175339 -0.03471,-24.52830239 0.422857,-24.98587159 0.45672898,-0.4567286 3.21685598,-0.5086857 27.02297328,-0.5086857 23.806115,0 26.566243,0.051957 27.022973,0.5086857 0.457568,0.4575692 0.500061,2.96833769 0.422854,24.98587159 -0.0828,23.613712 -0.107248,24.492844 -0.693017,24.921097 -0.333952,0.244154 -1.700804,0.899184 -3.03744,1.455629 -1.336641,0.556445 -5.311406,2.343235 -8.832814,3.97065 -10.884389,5.030201 -14.922997,6.878838 -14.983946,6.858758 -0.03224,-0.01062 -1.714611,-0.794579 -3.738611,-1.742131 z m 9.6,-4.45768 c 4.667052,-2.217408 13.127277,-6.145875 16.053744,-7.454483 1.171859,-0.524013 1.878116,-1.050874 1.995633,-1.48872 0.100035,-0.372724 0.183853,-10.260877 0.186256,-21.973678 0.0033,-16.1418295 -0.08857,-21.3889368 -0.379632,-21.6799992 -0.291613,-0.2916144 -5.973336,-0.384 -23.616,-0.384 -17.642668,0 -23.3243873,0.092386 -23.6160013,0.384 -0.291063,0.2910624 -0.382943,5.5381697 -0.379631,21.6799992 0.0024,11.712801 0.08622,21.600954 0.186255,21.973678 0.117515,0.437846 0.823774,0.964707 1.99563,1.48872 2.359763,1.055196 10.5775703,4.858979 16.0537463,7.430809 2.376,1.115863 4.536,2.106957 4.8,2.202429 0.938392,0.33936 2.454907,-0.152323 6.72,-2.178755 z M 24.289273,54.727661 C 22.52957,53.92729 19.649812,52.645501 17.889812,51.879238 11.570612,49.128006 6.5511737,46.588029 6.2234927,45.975754 5.7162487,45.027958 5.7647327,6.5232675 6.2738127,6.0141888 c 0.555152,-0.555152 42.1968483,-0.555152 42.7520003,0 0.290297,0.2902992 0.384,5.1619002 0.384,19.9645492 0,18.189508 -0.03978,19.626292 -0.56,20.224462 -0.308,0.35415 -2.576,1.586349 -5.04,2.738218 -5.643783,2.638348 -14.896065,6.789177 -15.706734,7.046473 -0.381005,0.120928 -1.829562,-0.357734 -3.813806,-1.26023 z M 37.257732,43.209357 c 0.171644,-0.451456 0.31208,-1.954084 0.31208,-3.339168 0,-4.502308 0.788092,-4.16 -9.577579,-4.16 -8.95342,0 -8.95342,0 -9.161256,1.107859 -0.369752,1.970944 -0.03796,6.559661 0.498835,6.89895 0.271095,0.171348 4.208924,0.305524 9.047921,0.308292 8.567919,0.0049 8.567919,0.0049 8.879999,-0.815933 z M 27.049323,31.710189 c 0.282091,-1.322507 0.296146,-14.423013 0.01716,-16 -0.226441,-1.28 -0.226441,-1.28 -3.897668,-1.371192 -3.174195,-0.07885 -3.725907,-0.01641 -4.075117,0.461162 -0.520371,0.711648 -0.581188,16.460822 -0.06727,17.421079 0.309717,0.578711 0.635543,0.621779 4.077371,0.538963 3.740755,-0.09001 3.740755,-0.09001 3.945524,-1.050012 z"
       id="path39286" />
  </g>
</svg>
