<?xml version="1.0" encoding="UTF-8" standalone="no"?>
<svg
   xmlns:dc="http://purl.org/dc/elements/1.1/"
   xmlns:cc="http://creativecommons.org/ns#"
   xmlns:rdf="http://www.w3.org/1999/02/22-rdf-syntax-ns#"
   xmlns:svg="http://www.w3.org/2000/svg"
   xmlns="http://www.w3.org/2000/svg"
   xmlns:sodipodi="http://sodipodi.sourceforge.net/DTD/sodipodi-0.dtd"
   xmlns:inkscape="http://www.inkscape.org/namespaces/inkscape"
   version="1.1"
   id="svg2110"
   width="350.68271"
   height="385.12146"
   viewBox="0 0 350.68271 385.12147"
   sodipodi:docname="mursut.svg"
   inkscape:version="1.0.2 (e86c870879, 2021-01-15)">
  <metadata
     id="metadata2116">
    <rdf:RDF>
      <cc:Work
         rdf:about="">
        <dc:format>image/svg+xml</dc:format>
        <dc:type
           rdf:resource="http://purl.org/dc/dcmitype/StillImage" />
        <dc:title></dc:title>
      </cc:Work>
    </rdf:RDF>
  </metadata>
  <defs
     id="defs2114" />
  <sodipodi:namedview
     pagecolor="#ffffff"
     bordercolor="#666666"
     borderopacity="1"
     objecttolerance="10"
     gridtolerance="10"
     guidetolerance="10"
     inkscape:pageopacity="0"
     inkscape:pageshadow="2"
     inkscape:window-width="2560"
     inkscape:window-height="1376"
     id="namedview2112"
     showgrid="false"
     fit-margin-top="0"
     fit-margin-left="0"
     fit-margin-right="0"
     fit-margin-bottom="0"
     inkscape:zoom="2.203125"
     inkscape:cx="145.97985"
     inkscape:cy="208.55609"
     inkscape:window-x="0"
     inkscape:window-y="27"
     inkscape:window-maximized="1"
     inkscape:current-layer="g2144"
     inkscape:document-rotation="0" />
  <g
     inkscape:groupmode="layer"
     inkscape:label="Image"
     id="g2118"
     transform="translate(-28.063594,62.383696)">
    <g
       id="g2144"
       transform="translate(13.61145,-0.1997376)">
      <path
         id="ellipse992"
         style="fill:#ffffff;stroke-width:1.0183"
         d="m 188.51172,-62.179688 c -33.12037,0.212865 -66.16019,9.768468 -94.159051,27.490554 -25.758973,16.238878 -47.21787,39.3316168 -61.17809,66.420615 -12.248402,23.658337 -18.791198,50.267885 -18.72189,76.919289 0.02717,27.68229 7.105649,55.31669 20.372979,79.61139 13.277994,24.40663 32.617043,45.45527 55.743362,60.84334 24.91594,16.65508 54.11137,26.8076 83.97218,29.30419 29.45752,2.50996 59.53138,-2.33263 86.64925,-14.13365 26.25101,-11.37839 49.72813,-29.20197 67.47942,-51.66512 16.5438,-20.87289 28.1385,-45.67724 33.2959,-71.82062 5.16651,-26.00657 4.00714,-53.247671 -3.41433,-78.706516 C 350.86036,35.566132 336.51022,11.033949 317.24889,-8.7408985 296.5075,-30.116457 270.19542,-45.987156 241.67637,-54.54239 c -17.2073,-5.184232 -35.1941,-7.761298 -53.16465,-7.637298 z" />
      <ellipse
         style="fill:#000000;stroke-width:1.0183"
         id="path847"
         cx="189.79906"
         cy="108.43887"
         rx="169.34692"
         ry="164.62181" />
      <path
         id="path2164"
         style="display:inline;fill:#ffffff;stroke-width:0.290645"
         d="m 210.69922,-1.0488281 c 3.70934,2.3618244 7.34893,4.8343692 11.10351,7.1230469 2.9104,1.3910268 5.9437,2.495813 8.92579,3.71875 -8.02908,0.012505 -16.08164,-0.083873 -24.07196,0.8335812 -5.00703,0.550687 -10.06751,1.260555 -14.98078,1.775794 -9.75856,-1.233099 -19.53534,-2.6536599 -29.39518,-2.5940754 -3.08488,-0.038638 -6.17016,-0.042098 -9.25521,-0.027019 3.05488,-1.2770298 6.16994,-2.4283736 9.15039,-3.8710938 1.43621,-0.8353307 2.79177,-1.8066205 4.22579,-2.6409936 1.58384,-1.0667812 2.19652,-3.47803694 0.94023,-5.0230688 -1.06045,-1.5932125 -3.14158,-1.7951126 -4.89081,-1.815032 -1.9182,-0.1650503 -3.88759,-0.4796308 -5.78497,0.016204 -0.385,0.079921 -1.17764,0.2342546 -1.71868,0.3426597 -5.78714,1.229964 -11.56221,2.53501164 -17.27905,4.06102406 -6.73074,1.84536694 -13.29119,4.32886234 -19.48412,7.55537534 -6.58688,3.3675275 -13.0143,7.0377665 -19.416659,10.7402135 -3.525996,2.121761 -7.095027,4.29256 -10.038358,7.199859 -3.234003,3.306026 -5.571608,7.563671 -6.256954,12.164073 -0.991249,5.770044 -2.016936,11.534112 -3.034699,17.300077 1.650986,-1.679092 3.302466,-3.357697 4.953125,-5.037109 0.03233,2.904139 0.344192,6.00696 2.167401,8.393907 0.615369,0.399965 0.04561,0.86332 -0.09109,1.368436 -0.371675,0.875354 -0.296526,1.875196 -0.261856,2.766953 -1.080808,1.933445 -0.57794,4.265677 0.316692,6.162743 0.304612,0.699746 0.77502,1.328268 0.731973,2.128803 0.557425,4.854085 1.008974,9.786556 2.722222,14.40266 0.504733,1.509348 1.092129,2.989262 1.674426,4.469857 -3.025827,8.077031 -5.745761,16.265353 -8.817367,24.325733 -2.548182,7.13058 -4.486618,14.53455 -5.05568,22.10591 -0.08294,0.7541 -0.190307,1.81256 -0.272142,2.6848 -0.144464,1.23467 -0.199745,2.53327 -0.450854,3.77337 -3.396972,6.00352 -5.665584,12.71907 -6.171427,19.61642 0.06835,1.11791 0.53685,2.20632 1.181532,3.11486 0.82473,1.08478 2.142323,1.63715 3.460938,1.79688 2.718071,0.68996 5.754791,-0.68917 7.04123,-3.17764 0.105597,-0.7739 0.928947,0.0882 0.554909,0.47503 -1.884551,4.90074 -2.651573,10.17849 -2.703561,15.40964 0.162156,2.05312 0.948042,3.98618 1.358826,5.99341 0.64826,2.56137 1.29614,5.12283 1.943908,7.68432 2.690083,-3.8536 5.516472,-7.61069 8.173828,-11.48633 0.439881,-1.05316 0.830086,-2.12556 1.210938,-3.20117 1.321427,1.22303 2.593059,2.57737 4.203125,3.41602 0.355953,0.25722 0.914355,0.3444 1.189453,0.625 0.543412,4.03183 1.249526,8.1592 3.191401,11.78125 0.22712,0.42431 0.82861,0.75526 0.3418,1.2207 -0.73029,1.52314 -0.54425,3.25522 -0.85419,4.87836 -1.251411,10.23012 -2.445764,20.47884 -3.061263,30.77048 -0.38966,11.23706 -0.339124,22.48701 -0.08273,33.72641 0.25827,6.44048 1.142836,12.83551 2.035303,19.21306 1.04688,7.03266 2.36671,14.03782 4.24093,20.89902 1.13917,3.3921 3.42308,6.32621 6.13404,8.61793 3.68092,2.89019 8.27283,4.24625 12.76067,5.3041 3.79351,0.96698 7.58705,1.93386 11.37997,2.90314 -1.85741,-3.17979 -3.73582,-6.34744 -5.57617,-9.53711 1.10443,-1.10746 0.93647,-2.76503 1.26758,-4.17578 1.80476,-12.0294 3.37023,-24.09201 4.95991,-36.15175 3.36784,-25.66098 6.69986,-51.38318 12.5461,-76.62333 0.0889,-0.56757 0.14277,-1.20809 0.76559,-0.60321 4.77216,2.57304 9.75459,4.76097 14.85933,6.58415 9.00271,3.13859 18.48023,4.97733 28.01399,5.27326 7.45951,0.0262 14.99125,-0.30229 22.25024,-2.15884 7.71464,-1.87939 15.12276,-5.04257 21.765,-9.40036 4.26943,18.12128 7.36784,36.47951 9.93213,54.90954 2.44485,17.3552 4.7434,34.71923 7.20298,52.07905 0.46905,2.74917 0.67797,5.55509 1.40004,8.2536 0.0636,0.49058 0.75173,1.05927 0.0435,1.34247 -0.42798,0.41658 0.46079,1.0541 0.59364,1.56479 0.98141,1.60262 1.80109,3.59152 3.70757,4.28045 1.90873,0.84982 4.07797,0.67289 6.01647,0.021 4.53126,-1.27663 9.09516,-3.42638 11.94233,-7.32173 1.98104,-2.57981 3.47738,-5.56651 4.07588,-8.7791 1.45895,-6.90865 2.88087,-13.83258 3.8049,-20.8372 1.52063,-11.66504 2.0398,-23.44704 1.90813,-35.20498 -0.17941,-15.51909 -1.62056,-30.99738 -3.6655,-46.37347 -0.13273,-1.15077 -0.29997,-2.3345 -0.90347,-3.34461 2.1906,-2.96439 2.94464,-6.66797 3.60352,-10.21876 0.15369,-0.90132 0.29376,-1.8045 0.42773,-2.70898 1.81339,-1.41389 3.6832,-2.77162 5.32031,-4.39453 0.55007,1.69174 1.08898,3.40372 2.09123,4.89301 2.10876,3.68056 4.21804,7.36083 6.32479,11.04254 1.32027,-4.70791 2.78077,-9.37539 4.06836,-14.0918 0.76032,-5.21514 -0.5615,-10.45943 -2.22369,-15.37281 -0.0466,-0.39561 -0.53141,-0.8775 -0.2978,-1.20922 0.38202,-0.82034 0.50545,0.0935 0.70703,0.51758 0.81973,1.3926 2.33116,2.12942 3.3379,3.36132 1.98228,-0.49573 4.19077,-0.30868 5.97863,-1.41278 1.79455,-1.59763 2.74964,-4.15411 2.11002,-6.51451 -0.89845,-6.0674 -2.83696,-11.99999 -5.94813,-17.30047 -0.68575,-1.2026 -1.4257,-2.37423 -2.21084,-3.51442 0.81018,-1.19244 1.21271,-2.64909 0.97994,-4.0831 -0.43968,-5.3321 -1.54329,-10.60102 -3.14355,-15.70398 -2.37151,-7.58364 -5.46712,-14.91513 -7.95819,-22.458764 -0.80304,-2.36445 -1.65473,-4.712042 -2.54421,-7.045175 1.99643,-4.956293 3.47979,-10.150216 3.96568,-15.485406 0.24709,-1.536919 0.29175,-3.134954 0.68275,-4.631781 1.33103,-2.416631 1.47305,-5.232333 2.15883,-7.856702 0.83726,-3.896025 1.67435,-7.792086 2.5111,-11.68822 -0.68881,0.552083 -1.37761,1.104167 -2.06641,1.65625 0.13394,-2.222143 0.0362,-4.596335 -1.2309,-6.515367 -0.46631,-0.393121 -0.29772,-0.739272 0.0324,-1.155936 0.3647,-0.561962 0.3221,-1.332899 0.97046,-1.668783 0.86302,-0.946658 1.62762,-2.060975 1.99426,-3.299947 0.57347,-2.288563 -0.60742,-4.504938 -1.46663,-6.557577 -1.72524,-3.808634 -4.43884,-7.137217 -7.79319,-9.629583 -4.44755,-3.34757 -9.3945,-5.944288 -14.20564,-8.717729 -6.1098,-3.395098 -12.2409,-6.7819134 -18.62372,-9.6420594 -6.3858,-2.8372261 -13.14468,-4.6972715 -19.93826,-6.26369282 -4.33127,-0.99549028 -8.67405,-1.96586238 -13.04394,-2.76865918 -3.49888,-0.3788487 -7.02085,-0.4901757 -10.52836,-0.7746922 -3.77161,-0.2551397 -7.54329,-0.5092909 -11.31494,-0.7637872 2.15951,1.3984375 4.31901,2.796875 6.47852,4.1953125 z m 35.66992,25.9492191 c 5.12742,0.0247 10.46396,0.286712 15.40234,1.167968 3.29791,0.510877 6.43942,1.714555 9.378,3.272109 3.19888,1.616163 6.34362,3.337565 9.45013,5.124376 -4.40206,2.459164 -7.19641,7.253337 -7.81096,12.187371 -0.2018,2.045933 0.0202,4.105124 -0.0972,6.156379 0.27312,0.883458 -0.45893,-0.400005 -0.70703,-0.638672 -2.61648,-3.32501 -5.53015,-6.4714 -8.95168,-8.981382 -1.55988,-1.260977 -3.60296,-1.92625 -5.60435,-1.615804 -2.03863,0.212798 -3.98071,1.494976 -4.69397,3.46242 -0.87464,2.070647 0.0502,4.282006 0.91674,6.185079 4.79395,10.502765 10.50626,20.582558 14.73543,31.34216 2.48872,6.136228 5.064,12.238342 7.8452,18.248635 3.31547,7.75201 6.54507,15.55004 9.3403,23.50642 0.20545,0.63992 0.41982,1.27722 0.6135,1.92083 -3.3999,0.0928 -6.76952,2.31834 -7.73438,5.6582 -0.96861,3.10183 0.36147,6.6781 3.05464,8.46938 0.48512,0.35176 0.9934,0.67138 1.52153,0.95445 -3.85816,-0.9272 -8.41443,0.62006 -10.36718,4.20117 -0.32131,0.60193 -0.57472,1.2432 -0.72266,1.91016 -3.85347,-0.56171 -8.26032,1.12197 -10.06164,4.72547 -0.31163,0.61805 -0.52456,1.28595 -0.62,1.9718 -2.36053,0.3949 -4.62574,1.64342 -6.04688,3.5957 -0.14698,-2.00817 -0.79557,-4.07478 -2.36328,-5.43164 -2.47714,-2.36689 -6.37978,-2.86557 -9.4567,-1.44274 -1.23,0.52482 -2.32689,1.38816 -3.21517,2.34508 -0.47595,-0.26176 -0.95829,-0.51549 -1.46094,-0.72265 0.56095,-2.51629 -0.13868,-5.2765 -1.95518,-7.13067 -2.58179,-2.80714 -7.01372,-3.50193 -10.40825,-1.8348 -0.68781,0.29125 -1.33279,0.77745 -1.93149,1.14906 -7.47054,-4.13315 -15.74708,-6.87047 -24.25437,-7.73695 -8.57268,-0.93931 -17.34452,-0.6255 -25.73415,1.45351 -5.20819,1.40071 -10.23067,3.53956 -14.88453,6.24633 -2.79427,-2.13802 -6.81963,-2.70289 -9.96057,-0.99069 -2.60408,1.31898 -4.39602,4.14505 -4.25924,7.09069 -0.006,0.51264 0.0438,1.02405 0.1163,1.53086 -0.57342,0.23004 -1.11962,0.5232 -1.65821,0.82422 -1.7696,-2.17526 -4.62955,-3.33873 -7.41484,-3.0609 -3.42991,0.23286 -6.62742,2.8224 -7.28438,6.24645 -0.12036,0.50079 -0.21194,1.00822 -0.27343,1.51953 -1.34682,-2.05852 -3.68817,-3.33807 -6.07617,-3.69336 -0.44141,-2.83481 -2.76601,-5.00865 -5.26521,-6.17601 -1.69581,-0.74949 -3.62396,-1.01244 -5.44769,-0.64431 -0.90507,-3.69459 -4.66933,-6.1236 -8.35462,-6.19499 -0.9454,-0.0375 -1.89792,0.0547 -2.81725,0.27898 2.37292,-1.12604 4.63811,-3.12039 5.00323,-5.85839 0.71764,-3.31515 -1.04291,-7.00648 -4.17315,-8.3877 -1.30219,-0.60022 -2.741802,-0.87308 -4.171878,-0.88086 1.461907,-5.03944 3.655928,-9.82 5.545378,-14.70508 2.46566,-6.17308 5.12253,-12.266452 7.83877,-18.332374 2.82606,-6.48141 5.41233,-13.032491 8.25407,-19.45627 2.31767,-5.228588 5.12645,-10.220659 7.55475,-15.397352 1.60381,-3.337087 3.31128,-6.645135 4.52774,-10.14799 0.70324,-2.70676 -1.20836,-5.613529 -3.86914,-6.289063 -2.73773,-0.942411 -5.72603,0.202746 -7.79184,2.06239 -3.35411,2.881878 -6.33438,6.183889 -8.98551,9.71886 -0.005,-0.985382 0.29956,-2.083917 0.39698,-3.160915 0.45948,-2.680585 -0.15361,-5.416976 -1.10947,-7.922614 -1.34155,-3.307631 -3.57009,-6.409772 -6.77188,-8.121549 4.1415,-2.357349 8.32747,-4.657257 12.66497,-6.635139 2.98927,-1.311509 6.22034,-1.905292 9.44635,-2.269158 1.06166,-0.131302 2.37578,-0.256129 3.53907,-0.347656 0.62843,-0.03829 1.36352,-0.09767 2.0606,-0.132057 8.09501,-0.397699 16.11826,-0.07665 24.17902,0.809935 4.0096,0.453675 7.91182,1.050146 11.84554,1.81171 5.76085,1.119609 11.62368,1.891933 17.50427,1.661932 6.51202,-0.08948 13.02555,0.03638 19.53692,-0.02767 7.8051,-0.201627 15.36965,-2.335694 23.08745,-3.278281 6.43659,-0.78347 12.92349,-1.161638 19.40729,-1.163928 z m -58.0332,17.896484 c -9.49184,0.380588 -18.61385,3.586302 -27.13282,7.605469 -5.34825,2.583412 -10.54096,5.571315 -15.18945,9.283203 -1.78704,1.579544 -2.53495,4.415963 -1.24805,6.525391 -1.89481,1.401085 -2.24508,4.03692 -1.77218,6.207585 1.15517,5.421864 3.30155,10.883788 7.43625,14.735774 4.21297,3.744372 9.65554,5.602808 14.89223,7.415626 4.01037,1.357644 8.19569,2.188851 12.13063,3.76303 2.00849,0.983518 4.41792,1.276042 6.51425,0.385797 1.33768,-0.491094 2.3147,-1.637266 2.92382,-2.890625 1.42628,0.112737 2.89562,-0.195849 4.12696,-0.933594 0.43304,3.412 0.88837,6.821239 1.33008,10.232419 2.03081,-2.49669 4.05797,-4.99638 6.08984,-7.492184 1.80985,1.011016 3.99608,1.649493 6.03798,0.967863 1.72594,-0.47648 3.2965,-1.345841 5.05949,-1.71649 5.4953,-1.540475 11.013,-3.087485 16.23859,-5.414535 3.84423,-1.642293 7.60997,-3.912134 9.97545,-7.458009 2.93229,-4.084589 4.67314,-8.969848 5.22365,-13.951095 0.0356,-1.852486 -0.93289,-3.732415 -2.47999,-4.732981 -0.44199,-0.181428 -1.19226,-0.248401 -0.52783,-0.735769 1.59433,-1.990994 1.16267,-5.048033 -0.62896,-6.767737 -1.24823,-1.176589 -2.82364,-1.940359 -4.30563,-2.782486 -4.28151,-2.18896 -8.70504,-4.092966 -13.154,-5.914154 -8.23952,-3.349552 -16.94239,-5.742557 -25.85292,-6.242412 -1.89302,-0.120111 -3.79144,-0.137004 -5.68739,-0.09009 z m 1.82617,16.794922 c 4.53869,-0.0293 9.04075,0.659869 13.50391,1.416015 -2.97723,0.815947 -5.92159,1.902076 -8.55079,3.539063 -1.1505,0.747914 -2.22429,1.629104 -3.10937,2.681641 -2.00793,-2.503613 -4.96917,-3.935009 -7.90458,-5.052436 -1.37342,-0.514129 -2.77943,-0.939126 -4.2048,-1.283502 3.37822,-0.697554 6.80583,-1.294151 10.26563,-1.300781 z m 35.22656,6.185547 c 1.49062,0.342415 2.98167,0.685399 4.48438,0.970703 -3.45047,3.452474 -6.3363,7.711604 -10.85826,9.878876 -3.95885,1.852063 -8.05313,3.445225 -11.81948,5.683624 0.20614,-1.016413 0.23052,-2.148948 0.35352,-3.115235 2.50524,0.111608 5.05719,-0.45872 7.15911,-1.860584 2.12913,-1.315932 4.11538,-2.8523 6.12135,-4.344675 1.87174,-1.44245 3.7803,-3.445927 3.70625,-5.974756 -0.006,-0.509063 -0.0941,-1.01709 -0.24843,-1.501625 0.36719,0.08789 0.73437,0.175781 1.10156,0.263672 z m -65.62305,1.05664 c -0.10734,2.558646 1.44495,4.944801 3.57368,6.268942 2.76403,2.021708 5.51299,4.147459 8.64703,5.566996 1.52159,0.551421 3.16502,0.613049 4.76562,0.527344 0.0128,1.2614 0.0844,2.525612 0.29102,3.771484 -3.89851,-2.357543 -8.11308,-4.110325 -12.23549,-6.022919 -2.35397,-1.132871 -4.44875,-2.746063 -6.18422,-4.695005 -1.23238,-1.315568 -2.38704,-2.697676 -3.6174,-4.014498 1.59187,-0.546873 3.17907,-1.106252 4.77734,-1.634766 -0.006,0.07747 -0.0117,0.154948 -0.0176,0.232422 z m 128.61329,78.033206 c 0.10664,0.11777 -0.12269,-0.10948 0,0 z m -78.02149,10.03515 c 2.41885,1.33792 4.85655,2.75949 7.33594,4.07227 -2.24454,10e-4 -4.4455,0.53616 -6.66867,0.78756 -8.06953,1.17019 -16.24863,1.58401 -24.39664,1.31578 -5.49972,-0.24881 -10.98552,-0.80634 -16.43786,-1.55734 -1.81632,-0.31285 -3.72101,-0.56822 -5.51831,-0.009 0.17765,-0.35211 0.91138,-0.3411 1.29526,-0.58647 1.8933,-0.80486 3.67354,-1.96246 5.42544,-2.91744 0.41678,-0.21284 1.12815,-0.60575 1.65481,-0.88897 0.51179,-0.194 1.01663,-0.81483 1.56157,-0.38779 5.83403,2.51503 12.14848,4.20217 18.54464,3.93504 2.74655,-0.10605 5.46268,-0.60867 8.14333,-1.18797 2.88715,-0.6761 5.66481,-1.74739 8.36713,-2.95078 0.23112,0.125 0.46224,0.25 0.69336,0.375 z m 8.76563,15.39649 c 0.19269,2.18236 1.24344,4.46237 3.32422,5.41797 2.3379,1.11366 5.38401,0.84731 7.35351,-0.94532 1.05314,3.56256 2.01098,7.02071 2.95508,10.59766 -2.88147,0.39227 -5.71951,1.0815 -8.59272,1.54246 -1.85714,0.33973 -3.58828,0.55424 -5.48249,0.83688 -5.96956,0.81629 -11.9117,1.55042 -17.9326,1.78472 -0.75955,0.027 -1.82441,0.059 -2.70117,0.0879 -1.18606,0.016 -2.62433,0.0541 -3.90896,0.0556 -4.32488,0.0124 -8.65199,0.031 -12.97386,-0.15712 -1.38533,-0.0715 -3.00606,-0.15784 -4.47871,-0.28013 -1.2067,-0.0915 -2.21815,-0.20157 -3.44902,-0.32924 -0.60306,-0.0724 -1.56233,-0.18585 -2.24872,-0.27661 -3.84889,-0.48135 -7.71883,-1.0361 -11.59113,-1.66285 -0.29762,-0.19203 -1.66769,0.0605 -1.17867,-0.59392 1.98567,-4.42054 4.12397,-8.77299 6.05145,-13.21828 0.37987,-1.03712 0.58258,-2.13577 0.65066,-3.23662 7.41862,3.81893 15.57951,6.53754 23.98639,6.66848 6.0412,0.25417 12.14448,-0.28391 17.95775,-2.00198 4.16265,-1.20692 8.18908,-2.86652 12.06638,-4.79453 0.27856,-0.27184 0.11737,0.38985 0.19261,0.50498 z m -65.53125,5.31836 c 1.28266,3.67081 2.55912,7.34496 3.83789,11.01758 -2.12028,-0.34564 -4.19597,-0.93694 -6.3125,-1.28125 -0.85802,0.19606 -0.43294,-0.54339 -0.31118,-1.07975 0.82159,-3.09361 1.69062,-6.17477 2.58461,-9.24838 0.0671,0.19727 0.13412,0.39453 0.20118,0.5918 z m 91.27734,1.28515 c 0.62687,0.0832 0.79255,0.78375 0.44037,1.24705 -0.31978,0.71269 -1.32484,1.4286 -2.06146,0.88186 -0.3019,-0.65907 -0.0403,-1.46421 0.64085,-1.75295 0.29297,-0.24186 0.57194,-0.46956 0.98024,-0.37596 z m 10.10547,2.97852 c -0.30796,1.77797 -0.82243,3.52209 -1.13477,5.29297 -0.15275,1.92796 1.25419,3.40785 2.28321,4.86914 0.36571,0.44179 0.54459,1.28758 1.27382,0.94335 0.46526,0.0944 1.42483,-0.49214 1.50887,0.12792 2.68854,13.14347 4.28084,26.49216 5.1216,39.87599 0.23928,4.01696 0.47575,8.23508 0.52697,12.35095 0.0647,3.17362 0.0968,6.34786 0.10585,9.5221 -2.58365,-25.23123 -6.56745,-50.37317 -13.14454,-74.89062 1.153,0.63606 2.30599,1.27213 3.45899,1.9082 z m -122.72656,-1.7832 c -5.06329,18.85356 -8.64981,38.08453 -11.13928,57.44031 -0.78506,6.00837 -1.46704,12.02983 -2.08338,18.05773 0.0129,-8.2406 0.23501,-16.39496 0.86366,-24.62092 0.6606,-9.63594 1.70041,-19.3574 3.27306,-28.82244 0.54592,-3.20429 1.17257,-6.39436 1.8457,-9.57422 1.2767,10e-6 2.55339,0 3.83008,0 0.57335,-2.46652 1.7642,-5.04686 0.90625,-7.59374 -0.23918,-1.07063 -0.49306,-2.13805 -0.71289,-3.2129 1.08125,-0.58649 2.1698,-1.16026 3.24414,-1.75976 z m 144.24609,19.38281 c 0.65032,0.22342 0.91371,0.98139 0.99014,1.57996 -0.22973,0.6624 -0.29549,1.70123 -1.20416,1.71243 -0.68896,0.1023 -1.51559,-0.24486 -1.8224,-0.88929 -0.21785,-0.696 0.0128,-1.48508 0.56813,-1.95969 0.32719,-0.39657 0.97258,-0.55157 1.46829,-0.44341 z" />
      <path
         style="display:inline;fill:#020202;stroke-width:0.290645"
         d="m 121.43297,314.06659 c -2.13951,-0.55804 -5.21276,-1.94477 -6.6167,-2.98563 -1.63609,-1.21297 -3.53936,-3.59703 -4.41769,-5.53364 -0.36436,-0.80335 -1.23037,-4.14689 -1.92447,-7.43005 -2.00221,-9.47067 -3.1045,-16.82476 -4.21845,-28.14397 -0.56212,-5.71203 -0.56515,-33.23859 -0.004,-40.25746 0.62093,-7.7724 1.60031,-17.36544 2.47947,-24.28647 0.43341,-3.41198 0.78831,-6.37051 0.78866,-6.5745 6.4e-4,-0.29454 0.1211,-0.28096 0.58582,0.066 0.73908,0.55177 1.21143,0.55493 1.46501,0.01 0.29231,-0.6284 0.78793,-7.19969 1.13317,-15.02442 0.16677,-3.77963 0.38803,-7.05439 0.4917,-7.27724 0.15571,-0.33475 3.37235,-1.69286 3.52619,-1.48881 0.0262,0.0347 0.59672,1.36982 1.26789,2.96692 0.67117,1.5971 1.77618,3.90046 2.45558,5.11859 1.4174,2.54135 1.44591,2.85692 0.60335,6.68018 -2.97419,13.49592 -4.9513,30.57471 -5.80039,50.10532 -0.65286,15.01675 0.24825,57.9616 1.31384,62.61492 0.47597,2.07852 1.74511,5.06832 2.768,6.52076 0.47096,0.66874 1.93745,2.13652 3.25887,3.26175 1.32142,1.12523 2.34161,2.03412 2.26709,2.01976 -0.0745,-0.0143 -0.71466,-0.17716 -1.42252,-0.36179 z M 261.12,313.83848 c 0,-0.0251 0.98922,-0.89453 2.19827,-1.93227 3.15694,-2.70966 4.79466,-5.3811 5.80124,-9.46296 1.0885,-4.41409 1.99016,-48.39485 1.31241,-64.01596 -0.76643,-17.665 -2.55353,-33.16664 -5.48193,-47.55131 l -0.94746,-4.65402 1.4278,-2.65657 c 0.78529,-1.46112 1.93658,-3.86238 2.55841,-5.33613 0.62183,-1.47375 1.19938,-2.77134 1.28344,-2.88355 0.27264,-0.36391 3.07359,0.32797 3.40676,0.84153 0.17536,0.27031 0.45259,3.48569 0.61607,7.14529 0.33612,7.52416 0.89548,15.08365 1.15783,15.64765 0.21082,0.45322 0.80371,0.48931 1.30084,0.0792 0.26891,-0.22184 0.40912,-0.0695 0.54661,0.59396 0.28352,1.36809 1.69523,13.46746 2.24475,19.23917 2.54783,26.76035 1.93535,51.3289 -1.77357,71.14351 -0.76594,4.09192 -2.46864,12.35671 -2.74271,13.31284 -0.38954,1.35896 -1.79816,3.85167 -3.00516,5.31792 -1.43717,1.74585 -2.90716,2.7662 -5.5836,3.87564 -1.5749,0.65283 -4.32,1.4764 -4.32,1.29605 z M 123.5735,309.2476 c -1.50137,-5.70069 -1.9147,-13.99576 -1.20063,-24.09526 2.96315,-41.90978 6.79933,-69.53529 13.4879,-97.13072 1.1417,-4.71036 2.1474,-8.62335 2.23489,-8.69552 0.0875,-0.0722 0.84472,0.42586 1.6827,1.10676 0.838,0.68091 1.76793,1.23801 2.06654,1.23801 0.6523,0 0.78177,-0.45342 1.01753,-3.56377 0.0991,-1.30672 0.57035,-6.18271 1.04733,-10.83553 l 0.86724,-8.45968 1.92741,-1.09699 c 1.33111,-0.75761 1.99322,-0.99884 2.14013,-0.77975 0.11699,0.1745 0.67462,1.41075 1.23918,2.74725 l 1.02647,2.42999 -2.09964,6.80943 c -6.25935,20.29994 -10.77432,40.99326 -14.90584,68.31754 -1.33788,8.8482 -2.77403,19.3896 -5.46668,40.12547 -1.64065,12.63453 -4.41165,32.51936 -4.59833,32.99792 -0.0566,0.14519 -0.26643,-0.35665 -0.4662,-1.11515 z m 135.35075,-3.83454 c -0.38935,-2.64973 -2.21619,-15.8654 -4.05965,-29.36815 -4.63748,-33.96824 -5.47355,-39.62941 -7.83621,-53.06065 -3.52747,-20.05295 -8.09925,-39.27051 -13.1217,-55.15726 -0.8113,-2.56627 -1.26661,-4.52346 -1.16682,-5.01569 0.17704,-0.87328 1.97726,-5.06637 2.42829,-5.65599 0.21733,-0.28411 0.68115,-0.1255 2.17594,0.74413 l 1.89973,1.1052 0.85487,7.96732 c 0.47019,4.38203 0.93699,9.21465 1.03734,10.73915 0.23065,3.50397 0.34795,3.95975 1.01906,3.95975 0.29861,0 1.2166,-0.54739 2.03998,-1.21643 l 1.49707,-1.21643 0.37176,1.41442 c 6.36085,24.20078 10.56484,49.56944 13.44574,81.13738 2.0212,22.14763 2.62042,34.31699 1.96279,39.86149 -0.48563,4.0943 -1.33071,8.57945 -1.6165,8.57945 -0.12308,0 -0.54234,-2.16796 -0.93169,-4.81769 z M 189.6,202.35933 c -9.79915,-0.67083 -18.73761,-2.67596 -27.52,-6.17344 -5.16556,-2.05711 -13.5106,-6.21759 -10.88,-5.42429 3.27031,0.98621 16.70761,3.0246 24.8,3.76207 6.96035,0.63429 23.49069,0.63159 30.4,-0.005 9.06654,-0.83532 17.76152,-2.05037 24.05332,-3.36125 1.34932,-0.28113 2.625,-0.51115 2.83484,-0.51115 0.55619,0 -2.29124,1.90218 -5.59466,3.73741 -6.99906,3.88838 -14.93671,6.42628 -23.39699,7.48073 -3.24126,0.40397 -11.80981,0.69251 -14.69651,0.49489 z m 87.44004,-11.71303 c 0.12463,-1.5245 0.22817,-5.44465 0.23009,-8.71145 0.003,-5.3054 -0.0738,-6.19121 -0.72064,-8.29575 -1.03549,-3.36918 -4.44984,-10.2653 -7.08781,-14.31556 -1.44246,-2.21472 -2.26168,-3.77588 -2.26168,-4.31003 0,-1.97064 3.45453,-3.19695 5.03355,-1.78684 0.89023,0.795 1.34053,1.7425 3.94913,8.30961 3.90429,9.82897 4.45634,12.72418 3.69317,19.36859 -0.57437,5.00063 -1.54833,9.49289 -2.44667,11.28494 l -0.61575,1.22832 z m -170.76851,0.68202 c -0.8879,-2.37145 -1.52883,-5.57206 -2.09372,-10.45536 -0.78333,-6.77156 -0.23707,-9.43953 4.1727,-20.37983 2.34362,-5.81432 2.87528,-6.88653 3.69787,-7.45753 1.32086,-0.91686 2.35123,-0.85199 3.66362,0.23066 0.78541,0.64793 1.088,1.13322 1.088,1.74492 0,0.54392 -1.19798,2.8459 -3.3452,6.428 -6.34554,10.58593 -7.29127,14.17093 -6.63344,25.1455 0.20651,3.44526 0.31427,6.31458 0.23947,6.3763 -0.0748,0.0617 -0.42999,-0.67299 -0.7893,-1.63266 z m 16.52969,-8.00257 c -1.68297,-3.04537 -3.36059,-7.65846 -4.27791,-11.76333 -0.6647,-2.97437 -0.79439,-4.26369 -0.70847,-7.04326 0.12059,-3.90167 0.52531,-4.69821 2.60858,-5.13399 2.44998,-0.51248 4.14203,1.20485 3.49074,3.54288 -1.5464,5.55129 -1.69285,6.35194 -1.71419,9.37141 -0.0216,3.05649 0.55318,7.26191 1.51174,11.06066 0.25275,1.00168 0.4063,1.86516 0.34121,1.91886 -0.0651,0.0537 -0.62835,-0.82526 -1.2517,-1.95323 z m 137.16498,1.57892 c 0.40557,-1.10651 1.49891,-6.96801 1.80368,-9.66969 0.43564,-3.86188 -0.0808,-7.77814 -1.6272,-12.33959 -0.51256,-1.51188 -0.032,-2.70006 1.3265,-3.27958 1.60124,-0.68308 3.03399,-0.3079 4.14799,1.08619 0.53146,0.66509 0.61877,1.25761 0.6197,4.20593 0.002,5.96672 -1.86788,12.71896 -5.24492,18.9408 -0.77636,1.43036 -1.39727,2.06953 -1.02575,1.05594 z m -173.417653,-7.2 c 0.300935,-5.51422 1.752509,-10.65315 4.248461,-15.0406 3.306909,-5.81297 4.455366,-7.62842 7.294384,-11.5307 2.358328,-3.24158 3.327798,-4.34648 4.021778,-4.58362 2.01658,-0.68907 4.12683,0.56294 4.12683,2.44844 0,1.31264 -0.29821,1.72698 -3.1667,4.39982 -8.509319,7.9289 -11.176945,11.93931 -14.943306,22.46523 l -1.747476,4.88369 z M 296.675,178.1071 c -3.64162,-11.30965 -6.56539,-16.02364 -14.76562,-23.80665 -4.0738,-3.86653 -4.14938,-3.96269 -4.14938,-5.27912 0,-1.92598 2.09843,-3.16469 4.16491,-2.45856 1.63516,0.55874 8.1244,10.06315 12.05837,17.6612 2.17822,4.207 3.82262,11.04907 3.55869,14.80707 L 297.44,180.48295 Z M 97.983434,176.43087 c -1.037591,-0.99453 -2.354141,-2.3689 -2.925671,-3.05417 l -1.039142,-1.24596 0.691664,-1.49954 c 0.380416,-0.82475 1.085779,-2.13155 1.567472,-2.904 l 0.875805,-1.40444 1.62239,2.19639 1.622388,2.19641 -0.28878,2.90382 c -0.158827,1.5971 -0.205928,3.28989 -0.10467,3.76176 0.10126,0.47187 0.11233,0.85795 0.0246,0.85795 -0.08774,0 -1.008459,-0.8137 -2.046049,-1.80822 z m 185.955016,-2.35322 -0.34984,-3.62607 1.54174,-2.21052 1.54173,-2.21053 1.18196,1.93621 c 0.65008,1.06491 1.38118,2.40201 1.62467,2.97133 l 0.44272,1.03513 -2.05401,2.275 c -1.1297,1.25124 -2.39715,2.54061 -2.81656,2.86525 l -0.76256,0.59027 z m -39.9438,0.99364 c 0.73239,-6.38089 0.79157,-7.78672 0.45758,-10.86993 -0.49984,-4.61415 -0.46402,-6.30513 0.15443,-7.29174 1.126,-1.79628 3.2444,-2.09497 4.18752,-0.59043 0.68066,1.08584 0.61629,4.24351 -0.16163,7.92878 -0.71844,3.40347 -1.03581,4.28018 -3.24908,8.97543 -1.49253,3.16627 -1.54873,3.24104 -1.38882,1.84789 z m -105.87152,-2.97037 c -4.4661,-9.85102 -4.57175,-17.84022 -0.22086,-16.70104 0.36766,0.0963 0.98577,0.67126 1.37359,1.27777 0.79585,1.24459 0.86062,2.73132 0.33558,7.70231 -0.22183,2.10026 -0.18891,4.10351 0.11899,7.23914 0.23414,2.38443 0.37887,4.37396 0.32163,4.42117 -0.0572,0.0472 -0.92525,-1.72549 -1.92893,-3.93935 z m -12.29329,0.13745 0.0902,-3.09763 2.4,-1.37972 c 1.32,-0.75885 2.47832,-1.38456 2.57404,-1.39046 0.21942,-0.0135 1.91135,4.24339 1.89057,4.7567 -0.008,0.20914 -1.59704,1.24166 -3.53016,2.29449 l -3.51477,1.91425 z m 128.69708,1.14128 -3.55309,-1.95928 0.99309,-2.40056 c 0.54619,-1.32032 1.14487,-2.3528 1.33039,-2.29442 0.18552,0.0584 1.35613,0.64985 2.60136,1.31438 l 2.26405,1.20822 0.19804,2.1857 c 0.10892,1.20213 0.0903,2.57259 -0.0414,3.04547 l -0.2394,0.85977 z m -96.24509,-3.06006 c -0.45612,-2.81199 -2.87357,-9.2295 -6.09307,-16.17501 -1.13401,-2.44643 -1.1514,-4.7015 -0.0433,-5.61561 1.00459,-0.82875 2.11372,-0.82269 3.32506,0.0182 1.6307,1.13195 2.23631,2.57163 2.77865,6.6056 0.60849,4.526 0.95295,14.12696 0.55836,15.56283 l -0.29019,1.05594 -0.23551,-1.45191 z m 27.2092,0.76627 c -3.07324,-0.37046 -6.90245,-1.30342 -10.15171,-2.47343 -3.21214,-1.15664 -8.61932,-3.7199 -8.61932,-4.08596 0,-0.11772 0.972,-0.0435 2.16,0.16479 2.21406,0.3883 3.66034,0.55271 11.44,1.30049 9.49077,0.91226 22.22057,0.48244 32.35061,-1.09233 2.30483,-0.3583 4.39283,-0.64877 4.64,-0.64549 0.69842,0.009 -2.70314,1.70883 -6.59061,3.29294 -6.73688,2.74522 -12.3748,3.85215 -19.33639,3.79646 -2.21299,-0.0177 -4.86465,-0.13357 -5.89258,-0.25747 z m 39.62907,-1.1342 c -0.28136,-1.78431 -0.0545,-6.33612 0.66575,-13.35921 0.38579,-3.76162 0.65823,-5.17729 1.18579,-6.16155 1.48612,-2.77257 4.16463,-3.37361 5.50505,-1.23527 0.78045,1.24504 0.57581,2.38626 -1.07272,5.98238 -2.21654,4.83516 -4.73102,11.28593 -5.18181,13.29369 -0.68169,3.03608 -0.8261,3.23 -1.10206,1.47996 z M 76.951011,162.00411 c 0.446573,-3.10516 0.628259,-3.96097 1.46689,-6.90956 2.444525,-8.59487 8.510409,-17.48195 14.772457,-21.64301 1.105303,-0.73446 2.324176,-1.47086 2.708605,-1.63644 0.857591,-0.36939 2.185149,-0.38847 2.968416,-0.0427 1.216291,0.53699 1.542441,2.89809 0.549927,3.98103 -0.20752,0.22642 -1.413808,0.96247 -2.680647,1.63568 -2.828054,1.50284 -6.484797,4.563 -9.225069,7.72003 -2.466294,2.84138 -6.547968,9.34422 -8.616192,13.72713 -2.019401,4.27946 -2.13023,4.46001 -1.944387,3.1678 z m 229.966109,0.71448 c -0.0204,-0.18781 -0.74332,-1.79151 -1.60644,-3.56377 -5.59763,-11.49371 -11.54979,-18.536 -18.71073,-22.1376 -1.96021,-0.98588 -2.43995,-1.60558 -2.43995,-3.15175 0,-1.30167 1.11189,-2.35143 2.49059,-2.35143 1.93248,0 6.45447,3.19403 9.75041,6.88704 3.69431,4.13936 6.78105,9.40032 8.66936,14.77583 0.91358,2.60068 2.2392,8.76998 2.02718,9.43421 -0.0788,0.24691 -0.16,0.29527 -0.18042,0.10747 z M 86.79424,159.54847 c -0.374528,-0.97245 -0.906381,-2.58418 -1.181891,-3.58162 l -0.500931,-1.81354 1.753302,-2.67418 c 2.840077,-4.33176 3.366614,-4.7926 3.382205,-2.96017 0.0038,0.44767 0.287984,1.86262 0.631497,3.14432 l 0.62457,2.33038 -1.066512,1.76136 c -0.586579,0.96876 -1.385974,2.56194 -1.776429,3.54039 -0.390454,0.97846 -0.816774,1.83351 -0.947382,1.9001 -0.130605,0.0666 -0.543898,-0.67458 -0.918429,-1.64704 z m 207.53072,-2.24833 -1.83504,-3.7435 0.62966,-3.14136 c 0.34631,-1.72775 0.68437,-3.1865 0.75124,-3.24166 0.17834,-0.14711 2.50637,2.9402 3.75184,4.97547 l 1.07716,1.76025 -1.03565,3.37897 c -0.56961,1.85842 -1.14107,3.46364 -1.26991,3.56714 -0.12884,0.1035 -1.06003,-1.49639 -2.0693,-3.55531 z m -74.90226,-3.60373 c -0.84551,-0.44341 -3.18025,-1.75508 -5.1883,-2.91482 -2.00805,-1.15975 -3.93044,-2.10864 -4.27196,-2.10864 -0.34153,0 -1.53479,0.42974 -2.6517,0.95498 -1.11691,0.52523 -3.12292,1.34386 -4.4578,1.81917 -2.26431,0.80626 -3.1609,1.00819 -7.58869,1.70912 -4.99248,0.79031 -11.35409,-0.3045 -17.63588,-3.03507 -1.8324,-0.79651 -3.52859,-1.4482 -3.76932,-1.4482 -0.4077,0 -4.16433,1.96868 -8.53133,4.47087 -1.02976,0.59003 -1.97618,1.07278 -2.10317,1.07278 -0.12699,0 -0.39268,-0.80185 -0.59044,-1.78188 -0.19775,-0.98004 -0.45165,-2.03507 -0.56422,-2.3445 -0.1753,-0.48192 0.20084,-0.7816 2.62273,-2.08964 3.4083,-1.84079 8.37837,-3.81533 11.56492,-4.5946 10.01125,-2.44823 22.60982,-2.2304 32.54246,0.56266 3.34019,0.93926 7.64517,2.66192 10.97784,4.39283 2.13297,1.10782 2.31825,1.27298 2.1143,1.88478 -0.12295,0.36881 -0.38297,1.47736 -0.57784,2.46345 l -0.3543,1.7929 z M 83.973443,135.19711 c 0.688247,-6.75417 2.551715,-13.70711 6.240381,-23.28395 0.713037,-1.85125 2.167744,-5.8902 3.232688,-8.97544 1.064941,-3.085234 2.523222,-7.162028 3.240624,-9.059524 l 1.304365,-3.449998 -1.32784,-3.366992 C 95.227546,83.419671 94.27807,79.925845 93.92985,77.001478 l -0.220039,-1.847884 0.989859,0.923942 c 0.544423,0.508168 2.223162,2.260357 3.730532,3.893754 1.507369,1.633397 2.939678,2.969813 3.182898,2.969813 0.24952,0 0.60175,-0.488914 0.80828,-1.12193 2.79415,-8.563907 8.65064,-19.552633 14.10429,-26.464329 3.42221,-4.337138 8.51106,-9.181509 8.82603,-8.402004 0.17911,0.443255 -4.32797,9.875715 -10.3216,21.601171 -0.81638,1.597099 -3.18783,7.061554 -5.2699,12.143233 -2.08207,5.081679 -4.92994,11.73406 -6.32861,14.783067 -1.39866,3.049008 -3.657187,8.335269 -5.018944,11.747259 -1.361756,3.41198 -3.175964,7.9261 -4.031574,10.03137 -1.832442,4.50881 -2.93384,8.00205 -3.689494,11.70173 l -0.54848,2.68536 -2.133364,1.84788 c -1.173347,1.01634 -2.612675,2.31735 -3.198505,2.89112 l -1.065143,1.04325 z M 296.56,134.03684 c -1.87522,-1.64673 -3.12,-2.95817 -3.12,-3.28708 0,-1.27397 -1.78049,-7.356 -3.40842,-11.64294 -3.14619,-8.28505 -8.02275,-20.127674 -9.56588,-23.230534 -0.83038,-1.669695 -3.2023,-7.193546 -5.27094,-12.275225 -4.12215,-10.126179 -4.84496,-11.711755 -10.4697,-22.96655 -4.74656,-9.497603 -6.61582,-13.575486 -6.33036,-13.810029 0.32531,-0.267297 4.61242,3.517036 6.5457,5.778045 6.68816,7.82194 12.73764,18.589306 16.19246,28.820671 0.31152,0.922564 0.68804,1.517905 0.95999,1.517905 0.24609,0 1.72985,-1.395812 3.29724,-3.101805 1.5674,-1.705992 3.24399,-3.398785 3.72576,-3.761762 l 0.87595,-0.659958 -0.22159,1.715891 c -0.37198,2.880618 -1.37701,6.611562 -2.6968,10.011263 l -1.25637,3.236328 0.59433,1.769275 c 0.32688,0.9731 0.74976,2.106529 0.93974,2.518739 0.18998,0.41221 1.00318,2.723442 1.80712,5.136076 0.80394,2.41263 2.23,6.40608 3.16902,8.87433 3.97543,10.44952 5.86113,16.52663 6.69189,21.56607 0.54122,3.2831 0.9277,6.55132 0.77334,6.53964 -0.0619,-0.005 -1.51648,-1.24144 -3.23248,-2.74835 z M 179.68,93.360475 c -0.704,-0.338319 -3.44,-1.205397 -6.08,-1.92683 C 163.15695,88.579844 156.78714,85.79138 154.20645,82.943866 152.5578,81.124752 151.58729,79.551037 150.56538,77.0397 149.67767,74.858192 148.8,71.662758 148.8,70.61232 c 0,-0.669047 0.0129,-0.665401 0.88,0.248718 0.484,0.510245 1.95107,2.135849 3.26015,3.612456 3.89159,4.389597 6.34099,6.107806 12.35533,8.667048 7.38266,3.141492 13.55797,7.122262 15.60261,10.057864 0.67579,0.970271 0.50969,0.992371 -1.21809,0.162069 z m 22.88,0.176341 c 0,-0.566978 2.06491,-2.740205 3.9749,-4.183426 3.05729,-2.310127 6.96121,-4.429773 12.33985,-6.699947 5.68297,-2.39863 7.94355,-4.064306 12.64525,-9.317471 1.76,-1.966434 3.29127,-3.579541 3.40282,-3.584686 0.23798,-0.01098 -0.42695,3.080113 -1.1905,5.5343 -0.69489,2.233521 -2.60392,5.590354 -4.14076,7.281081 -1.56357,1.720148 -3.6756,3.003503 -7.67156,4.661558 -3.72586,1.545977 -7.43476,2.759517 -12.8,4.18812 -2.112,0.562367 -4.452,1.313854 -5.2,1.669975 -0.748,0.356122 -1.36,0.558837 -1.36,0.450496 z m -17.03926,-5.489393 c -2.43079,-3.943193 -2.87897,-5.601545 -2.75256,-10.185006 0.0943,-3.418405 0.0562,-3.709278 -0.53332,-4.069833 -0.39466,-0.24139 -0.99809,-0.332443 -1.59486,-0.240653 -0.528,0.08121 -2.112,0.218958 -3.52,0.306104 -2.52718,0.156421 -2.5788,0.147126 -4.02616,-0.724903 -1.4842,-0.894222 -4.78653,-3.200096 -6.43436,-4.49282 C 166.0469,68.159741 165.76,67.67085 165.76,67.107564 c 0,-0.730811 0.17386,-0.890542 1.49342,-1.372069 3.18683,-1.162918 10.03132,-0.484391 14.94759,1.481821 3.98069,1.592035 5.48562,3.005154 6.484,6.088395 0.62092,1.91757 0.5255,7.071699 -0.21001,11.343677 -0.34925,2.028489 -0.6372,4.107358 -0.6399,4.619709 -0.0104,1.981921 -0.49823,1.72443 -2.31436,-1.221674 z m 10.8133,1.331804 c -0.11169,-0.854935 -0.4471,-2.920546 -0.74534,-4.590241 -0.33443,-1.872294 -0.53802,-4.604028 -0.53121,-7.12755 0.01,-3.574976 0.0994,-4.27511 0.71029,-5.54365 1.06815,-2.217964 2.2717,-3.224726 5.49872,-4.599659 3.82172,-1.628318 6.97938,-2.282495 11.11628,-2.30298 2.85347,-0.01412 3.43556,0.06232 4.64,0.609387 2.46511,1.119675 2.21947,1.553357 -2.99327,5.284677 -3.95968,2.834374 -4.21983,2.933768 -7.14951,2.731594 -4.99358,-0.344599 -5.06515,-0.339461 -5.495,0.394521 -0.2893,0.493973 -0.30364,0.970521 -0.0556,1.847883 0.47773,1.689929 0.10964,5.861352 -0.70997,8.045819 -0.6931,1.847281 -2.26947,4.604917 -3.45392,6.042149 l -0.62837,0.762475 z M 95.68,70.512527 C 93.642157,69.751545 92.538128,68.778603 91.992477,67.262839 91.31527,65.381626 91.381776,65.300269 92.72,66.372851 c 2.65312,2.126478 5.829286,2.09412 7.73738,-0.07882 1.0689,-1.217271 3.26574,-5.65717 4.10452,-8.29538 0.30074,-0.945924 0.63762,-1.71986 0.74861,-1.71986 0.41803,0 0.62192,4.979602 0.29977,7.321219 -0.55703,4.048887 -1.7302,5.927221 -4.39439,7.035737 -1.393765,0.579919 -3.796146,0.526449 -5.53589,-0.123214 z m 186.88952,0.131316 c -0.61076,-0.218542 -1.38233,-0.599968 -1.71459,-0.847614 -0.88035,-0.656164 -2.00181,-2.618049 -2.41513,-4.225024 -0.40644,-1.580249 -0.4942,-8.928756 -0.10897,-9.125162 0.13796,-0.07034 0.52191,0.665106 0.85324,1.634315 1.66035,4.856983 3.96901,8.715146 5.64207,9.428873 1.92248,0.820122 4.22277,0.391038 6.15864,-1.1488 l 1.22478,-0.97422 -0.22755,1.055933 c -0.43969,2.04038 -1.52669,3.15128 -3.98201,4.069559 -1.69647,0.634471 -3.87822,0.687561 -5.43048,0.13214 z M 93.795222,64.093878 C 93.034378,63.745995 92.192973,62.755258 92.171341,62.181794 92.165101,62.016464 92.7,61.802756 93.36,61.706885 c 2.304272,-0.33471 4.411379,-1.019074 5.92,-1.922746 l 1.52,-0.910487 -0.007,0.88043 c -0.0102,1.197285 -1.513793,3.371222 -2.839844,4.10583 -1.22154,0.676711 -2.973514,0.775306 -4.157456,0.233966 z M 285.73317,63.861045 c -1.30307,-0.724421 -2.9505,-3.233429 -2.79909,-4.262981 l 0.10592,-0.720267 1.44,0.912262 c 1.47828,0.936516 3.61236,1.622693 5.98672,1.924927 l 1.34672,0.171426 -0.62776,1.015119 c -0.34527,0.558314 -0.90583,1.137881 -1.24569,1.287927 -1.06774,0.471408 -3.0459,0.316978 -4.20682,-0.328413 z M 150.15736,63.604323 c 0.17791,-0.449162 3.99283,-3.086585 7.16596,-4.95414 8.611,-5.068024 18.28914,-8.793341 26.1371,-10.060712 7.93379,-1.28123 17.93057,-0.182484 27.64598,3.038573 7.98899,2.648676 21.8536,8.957363 21.8536,9.943843 0,0.47664 -1.28826,0.242579 -8.86783,-1.611191 -18.80684,-4.599664 -29.74968,-6.220918 -37.33199,-5.530973 -7.57854,0.689598 -18.72615,3.531571 -31.49117,8.028361 -4.24554,1.495595 -5.34793,1.742797 -5.11165,1.146239 z M 92.892909,57.344088 c -1.512864,-0.760967 -2.212736,-2.143965 -2.430445,-4.802752 -0.310992,-3.797939 0.391578,-4.974 2.971424,-4.974 1.216346,0 2.226662,0.280205 4.713731,1.307322 1.741056,0.719027 3.420011,1.539271 3.731001,1.822763 0.54168,0.493764 0.5376,0.560489 -0.097,1.586632 -0.80301,1.298486 -3.245794,3.861126 -4.618952,4.845577 -1.21928,0.874133 -2.800406,0.953548 -4.269779,0.214458 z M 285.88858,56.494906 C 283.79198,54.859139 281.6,52.238835 281.6,51.368324 c 0,-0.712713 1.27532,-1.465829 4.92676,-2.909411 1.59055,-0.628819 2.70581,-0.891577 3.78421,-0.891577 2.68155,0 3.37115,1.184801 3.02752,5.201609 -0.21423,2.504297 -0.91717,3.753011 -2.58496,4.591983 -1.74784,0.879236 -2.88821,0.676238 -4.86495,-0.866022 z M 101.90368,46.229347 c -2.180141,-1.808407 -3.779782,-2.887458 -5.07479,-3.423246 -2.123453,-0.878542 -3.203274,-0.96378 -4.881482,-0.385327 l -1.152038,0.397092 0.170659,-1.049632 c 0.218473,-1.34372 1.332409,-2.82865 2.600445,-3.466524 2.06943,-1.041007 5.49974,-0.31184 7.774196,1.652534 1.53967,1.329765 3.21275,4.507856 3.58653,6.812789 0.17585,1.084336 0.28382,2.001136 0.23994,2.037331 -0.0439,0.03619 -1.51243,-1.122563 -3.26346,-2.575017 z M 278.72,47.762451 c 0,-2.380723 1.48623,-5.701473 3.38481,-7.562833 2.23152,-2.187766 5.96378,-3.011898 8.16787,-1.803573 1.21695,0.66716 2.52732,2.570042 2.52732,3.670105 0,0.722034 -6.4e-4,0.722274 -1.10972,0.340039 -2.73249,-0.941849 -5.14718,-0.03339 -9.66967,3.637931 L 278.72,48.723527 Z m 15.82596,-9.899794 c -1.57936,-2.45342 -8.17118,-6.762422 -18.92549,-12.371405 -5.87979,-3.066642 -8.31008,-3.908561 -13.96777,-4.838817 -11.00428,-1.80936 -29.42733,-1.240244 -43.00581,1.328514 -9.9685,1.885827 -12.34786,2.146941 -19.04689,2.090232 -7.67218,-0.06495 -8.20132,-0.06472 -15.28,0.0064 -6.71471,0.06742 -8.67682,-0.141438 -18.56,-1.975676 -15.03677,-2.790702 -33.96886,-3.297146 -45.28,-1.211265 -4.32493,0.797558 -6.77444,1.706456 -12.24506,4.543572 -9.596722,4.976944 -15.95535,8.9562 -18.165801,11.36824 l -1.518979,1.657506 0.22976,-1.055934 c 0.311632,-1.432207 1.488096,-3.794781 2.786605,-5.596055 2.404742,-3.335836 5.851718,-5.731459 18.159975,-12.621043 14.77115,-8.268205 19.59787,-10.4143667 30.1135,-13.3897357 3.68473,-1.0425832 18.89766,-4.5003142 19.09257,-4.3395278 0.0569,0.046974 -2.81159,1.2537144 -6.37452,2.6816443 -13.49407,5.4080774 -20.66237,8.4379462 -23.75282,10.0397492 -3.16192,1.638848 -4.04322,2.29495 -3.58757,2.670839 0.12927,0.106637 2.71618,-0.124699 5.74869,-0.514081 8.64507,-1.110049 11.66029,-1.264468 24.68186,-1.264028 14.1483,4.75e-4 16.05637,0.132765 32.83179,2.276257 l 3.36,0.429326 7.52,-0.931981 c 13.15928,-1.630876 14.9951,-1.742569 28.8,-1.752216 13.30858,-0.0093 17.11436,0.192279 25.78239,1.365621 2.35955,0.319398 4.39469,0.494435 4.52253,0.38897 1.06723,-0.880408 -6.95563,-4.600767 -27.98418,-12.9768179 -3.21159,-1.2792353 -5.79367,-2.3634885 -5.73795,-2.4094518 0.14246,-0.117528 12.48871,2.5782185 16.53721,3.6108236 11.01267,2.8088804 16.02358,4.9198066 30.17235,12.7105821 15.65757,8.62157 18.95454,11.001913 21.66397,15.640927 1.27757,2.187412 2.43452,5.098682 2.12705,5.352333 -0.0393,0.03241 -0.35312,-0.378645 -0.69741,-0.913456 z"
         id="path2146" />
    </g>
  </g>
</svg>
