<?xml version="1.0" encoding="UTF-8" standalone="no"?>
<!-- Created with Inkscape (http://www.inkscape.org/) -->

<svg
   xmlns:dc="http://purl.org/dc/elements/1.1/"
   xmlns:cc="http://creativecommons.org/ns#"
   xmlns:rdf="http://www.w3.org/1999/02/22-rdf-syntax-ns#"
   xmlns:svg="http://www.w3.org/2000/svg"
   xmlns="http://www.w3.org/2000/svg"
   xmlns:sodipodi="http://sodipodi.sourceforge.net/DTD/sodipodi-0.dtd"
   xmlns:inkscape="http://www.inkscape.org/namespaces/inkscape"
   id="svg2223"
   sodipodi:version="0.32"
   inkscape:version="0.92.3 (2405546, 2018-03-11)"
   width="228.7216"
   height="229.85072"
   version="1.0"
   sodipodi:docname="pepa_orkkis.svg"
   inkscape:output_extension="org.inkscape.output.svg.inkscape">
  <metadata
     id="metadata2228">
    <rdf:RDF>
      <cc:Work
         rdf:about="">
        <dc:format>image/svg+xml</dc:format>
        <dc:type
           rdf:resource="http://purl.org/dc/dcmitype/StillImage" />
        <dc:title></dc:title>
      </cc:Work>
    </rdf:RDF>
  </metadata>
  <defs
     id="defs2226" />
  <sodipodi:namedview
     inkscape:window-height="1993"
     inkscape:window-width="3681"
     inkscape:pageshadow="2"
     inkscape:pageopacity="0.0"
     guidetolerance="10.0"
     gridtolerance="10.0"
     objecttolerance="10.0"
     borderopacity="1.0"
     bordercolor="#666666"
     pagecolor="#ffffff"
     id="base"
     inkscape:zoom="4"
     inkscape:cx="-143.47793"
     inkscape:cy="65.225842"
     inkscape:window-x="83"
     inkscape:window-y="55"
     inkscape:current-layer="g2287"
     showgrid="false"
     fit-margin-top="0"
     fit-margin-left="0"
     fit-margin-right="0"
     fit-margin-bottom="0"
     inkscape:window-maximized="0" />
  <g
     id="g2287"
     style="display:inline"
     transform="translate(-29.80294,-26.617826)">
    <ellipse
       style="fill:#ff0000;fill-opacity:1;stroke:#fffffd;stroke-width:2.08192611;stroke-miterlimit:4;stroke-dasharray:none;stroke-opacity:1"
       id="path4547"
       cx="144.17793"
       cy="141.21855"
       rx="113.88404"
       ry="114.25904" />
    <path
       style="fill:#010101"
       d="M 135.69393,255.91042 C 101.08733,253.18815 68.910039,234.45782 49.431079,205.697 18.740099,160.38158 24.577859,98.577137 63.180539,60.131378 85.153999,38.247219 113.26175,26.630213 144.26771,26.617836 c 53.09735,-0.02119 97.7906,35.230602 111.56387,87.995984 2.87349,11.00832 3.59074,33.66673 1.453,45.90117 -4.063,23.2529 -13.82318,42.76014 -29.88345,59.7267 -15.79079,16.68188 -34.94781,27.90552 -55.94012,32.77396 -6.61204,1.53343 -25.32385,3.73304 -29.12303,3.42346 -1.17923,-0.0961 -4.16905,-0.334 -6.64405,-0.52869 z m 21.03785,-3.29146 c 48.78256,-5.59054 88.27502,-42.32447 97.53505,-90.72228 1.87378,-9.7934 1.83004,-30.9378 -0.0849,-41.0325 -7.52518,-39.669502 -36.38301,-72.735686 -74.98801,-85.923546 -20.85377,-7.123859 -49.21287,-7.119976 -70,0.0096 -34.798751,11.93526 -60.031291,37.568004 -71.485531,72.619346 -7.15807,21.90453 -6.61488,49.53369 1.41383,71.91426 9.5052,26.49641 30.26296,49.52483 56.07171,62.20533 19.878041,9.76659 40.197091,13.37548 61.537841,10.9298 z m -23.03785,-7.03687 c -15.91005,-1.88198 -39.454291,-10.21159 -41.927841,-14.83345 -1.10711,-2.06866 -5.07215,-23.09175 -5.07215,-26.89312 v -2.40851 l 2.75,2.10755 c 14.125451,10.8255 37.546481,25.50393 57.561251,36.07477 10.40014,5.49285 10.69009,5.73422 7.625,6.34724 -3.91921,0.78384 -12.31171,0.62571 -20.93626,-0.39448 z m 31,-4.75611 c -1.925,-0.91296 -8.45,-3.99629 -14.5,-6.85185 -21.69151,-10.23825 -58.401321,-34.51205 -58.470121,-38.66248 -0.0271,-1.63498 0.73548,-1.75304 8.220131,-1.27262 4.53749,0.29125 12.29999,0.77023 17.24999,1.06439 11.33391,0.67354 45.06356,-1.01449 61.5,-3.07782 16.69717,-2.09607 37.97788,-6.49125 51.75,-10.68811 7.91132,-2.41086 11.25,-3.05382 11.25,-2.1665 0,0.69397 -2.22007,5.69001 -4.93349,11.1023 -11.48637,22.91117 -33.38912,42.36634 -56.74144,50.40071 -6.77062,2.32944 -10.65268,2.36794 -15.32507,0.15198 z M 152.37187,223.5937 c 3.54023,-6.40929 3.70831,-5.09042 3.33451,-11.51236 -0.56986,-9.79051 -3.53817,-14.25452 -8.8472,-13.30529 -5.22996,0.93509 -7.16525,4.34456 -7.16525,12.62327 0,5.43873 0.40279,7.05498 2.53026,10.15317 l 2.53026,1.68473 c 2.97209,1.68755 4.54383,2.85967 7.61742,0.35648 z m -7.97002,-8.44551 c -1.23748,-5.386 0.60346,-10.94846 3.33694,-10.08266 1.48093,0.46909 2.6277,3.31406 2.89501,7.18207 0.35813,5.18214 -0.11779,6.40528 -2.49203,6.40528 -1.61409,0 -3.29705,-1.57711 -3.73992,-3.50469 z m -7.93638,3.26563 c 1.45466,-1.45467 1.01381,-1.97624 -2.39608,-2.83486 -1.79706,-0.45251 -3.26738,-1.09572 -3.26738,-1.42937 0,-0.33364 1.55201,-1.78973 3.4489,-3.23574 3.86519,-2.94646 4.74074,-4.9923 3.71948,-8.691 -0.78792,-2.85362 -2.41323,-3.99416 -5.6918,-3.99416 -7.61835,0 -11.00969,6.6049 -5.46515,10.64381 l 1.94548,1.4172 -2.97191,1.96672 c -4.17137,2.76049 -4.00976,3.29245 1.73698,5.71749 3.44518,1.45381 7.71739,1.664 8.94148,0.43991 z m -6.99222,-13.77378 c 0.30963,-2.18598 3.14397,-2.40202 3.14397,-0.23964 0,0.96811 -0.56393,1.53204 -1.6918,1.6918 -1.40774,0.1994 -1.65157,-0.0444 -1.45217,-1.45216 z m 53.70276,17.97309 c 3.56693,-5.64566 4.76861,-8.78977 4.74958,-12.42687 -0.0592,-11.32148 -11.57883,-17.54429 -17.72797,-9.57652 -3.87199,5.01715 -1.2985,17.47027 3.61031,17.47027 1.86407,0 1.91448,0.70156 0.30395,4.23042 -0.96976,2.12483 -0.80765,3.26661 0.75038,5.28546 1.09305,1.41632 2.33642,2.57513 2.76303,2.57513 0.42661,0 2.92444,-3.40105 5.55072,-7.55789 z m -7.31603,-12.71084 c -0.98312,-1.86535 1.19602,-4.49523 2.77597,-3.35017 1.31575,0.95355 0.47326,4.81067 -1.05075,4.81067 -0.52551,0 -1.30185,-0.65723 -1.72522,-1.4605 z m -11.96392,3.35132 c -0.18418,-14.14298 -0.24492,-14.4752 -2.62884,-14.37347 -3.15667,0.1347 -3.44736,1.24506 -3.50845,13.40193 -0.0547,10.88286 1.31472,15.66298 4.44879,15.52924 1.67981,-0.0717 1.85722,-1.60128 1.6885,-14.5577 z m -88.889801,6.54046 c -6.63301,-5.52005 -14.31629,-13.88349 -14.30471,-15.57104 0.004,-0.61007 3.21731,-2.76573 7.14027,-4.79035 6.70574,-3.46081 7.2739,-3.5886 9.49239,-2.13499 2.05066,1.34364 2.36236,2.34968 2.37984,7.68114 0.0111,3.37424 0.4404,9.04315 0.95409,12.59756 0.51369,3.55442 0.78119,6.61537 0.59444,6.80212 -0.18675,0.18675 -3.0021,-1.87624 -6.25632,-4.58444 z M 52.363949,191.7983 c -4.37199,-8.32876 -7.15732,-15.35969 -9.65407,-24.36953 -2.29189,-8.27054 -2.77857,-8.44942 9.98406,3.66969 4.675,4.43928 10.85594,10.14664 13.73542,12.68304 5.90497,5.2014 6.14598,4.54257 -3.89598,10.65023 l -6.66057,4.05105 z m 26.52999,-1.38448 c -1.41103,-1.41103 -1.59812,-5.43592 -0.29024,-6.24423 1.26458,-0.78155 3.83274,0.33081 4.44452,1.9251 0.74647,1.94525 -0.40028,5.51913 -1.77091,5.51913 -0.65085,0 -1.72337,-0.54 -2.38337,-1.2 z m 23.983101,-2.54713 C 93.126659,187.59131 91.604009,187.3249 91.877039,185.9421 156.27457,128.766 171.78738,117.44624 223.72553,72.613818 c 1.73106,0 10.40105,12.96017 15.02876,22.46548 7.64171,15.696042 9.40453,24.385652 9.33883,46.034522 -0.0377,12.41444 -0.49598,19.54454 -1.47691,22.97742 -1.41373,4.94749 -1.46642,4.99436 -8.76003,7.7928 -17.95075,6.8874 -41.97643,11.49752 -76.61024,14.70019 -20.48589,1.89439 -29.60667,2.09478 -58.3689,1.28246 z M 64.608279,172.74722 c -12.07949,-10.09358 -24.65554,-23.27344 -25.08207,-26.28633 -0.18275,-1.29089 -0.0276,-7.07207 0.34485,-12.84707 0.51948,-8.05552 1.51066,-13.03764 4.25752,-21.40018 3.81401,-11.61138 10.70051,-26.961562 14.80648,-33.004042 l 2.49399,-3.67023 0.63244,3.16223 c 3.762504,30.101262 1.745787,47.859332 11.11712,90.456102 1.70677,6.92637 0,0 3.86024,9.99468 -1.0147,0.76881 -2.10846,1.41214 -2.43057,1.42964 -0.32211,0.0175 -4.82211,-3.50817 -10,-7.8348 z m 5.64231,-95.755352 -1.48359,-8.87805 4.56387,-4.25331 c 11.98442,-11.168904 32.087491,-21.306845 50.022121,-25.226065 4.8273,-1.054899 8.95598,-1.738919 9.17486,-1.520044 0.21887,0.218875 -4.55315,10.498815 -10.60449,22.844309 C 111.95606,80.293238 85.776515,161.96225 81.557425,174.76295 74.60247,166.13322 73.448766,95.976586 70.250589,76.991868 Z M 87.254675,179.75923 C 101.42751,141.03338 126.12804,70.834118 132.15861,58.691428 l 10.96468,-22.077613 6.53532,0.01314 c 13.90248,0.02795 33.99283,5.995843 47.60132,14.140109 8.78588,5.258074 19.434,13.631724 19.434,15.282824 C 200.36276,82.568626 101.78645,162.54534 87.254675,179.75923 Z"
       id="path2289"
       inkscape:connector-curvature="0"
       sodipodi:nodetypes="sssssssscscsssssssccscscsscscscssssssscccsscccccsscscsscsccssssscscsssccscccscsscsscccccsscscscscssscsssccsccssssscssccccssccsscscccscsscc" />
    <text
       xml:space="preserve"
       style="font-style:normal;font-variant:normal;font-weight:normal;font-stretch:normal;font-size:111.78580475px;line-height:1.25;font-family:'Reason BRK';-inkscape-font-specification:'Reason BRK';letter-spacing:0px;word-spacing:0px;fill:#000000;fill-opacity:1;stroke:#fffffd;stroke-width:3.39653182;stroke-miterlimit:4;stroke-dasharray:none;stroke-opacity:1"
       x="68.581032"
       y="155.27589"
       id="text3719"
       transform="matrix(0.92853698,-0.0070226,0.00313639,1.0769393,0,0)"><tspan
         sodipodi:role="line"
         id="tspan3717"
         x="68.581032"
         y="155.27589"
         style="font-style:normal;font-variant:normal;font-weight:normal;font-stretch:normal;font-family:'Reason BRK';-inkscape-font-specification:'Reason BRK';fill:#000000;fill-opacity:1;stroke:#fffffd;stroke-width:3.39653182;stroke-miterlimit:4;stroke-dasharray:none;stroke-opacity:1">PEPA</tspan></text>
  </g>
</svg>
