<?xml version="1.0" encoding="UTF-8" standalone="no"?>
<!-- Generator: Adobe Illustrator 15.0.2, SVG Export Plug-In . SVG Version: 6.00 Build 0)  -->

<svg
   xmlns:dc="http://purl.org/dc/elements/1.1/"
   xmlns:cc="http://creativecommons.org/ns#"
   xmlns:rdf="http://www.w3.org/1999/02/22-rdf-syntax-ns#"
   xmlns:svg="http://www.w3.org/2000/svg"
   xmlns="http://www.w3.org/2000/svg"
   xmlns:sodipodi="http://sodipodi.sourceforge.net/DTD/sodipodi-0.dtd"
   xmlns:inkscape="http://www.inkscape.org/namespaces/inkscape"
   version="1.1"
   id="Layer_1"
   x="0px"
   y="0px"
   width="2000px"
   height="2000px"
   viewBox="0 0 2000 2000"
   enable-background="new 0 0 2000 2000"
   xml:space="preserve"
   inkscape:version="0.48.4 r9939"
   sodipodi:docname="perhe_logo.svg"
   inkscape:export-filename="/home/risto/Lataukset/perhe_logo.png"
   inkscape:export-xdpi="90"
   inkscape:export-ydpi="90"><metadata
     id="metadata3084"><rdf:RDF><cc:Work
         rdf:about=""><dc:format>image/svg+xml</dc:format><dc:type
           rdf:resource="http://purl.org/dc/dcmitype/StillImage" /><dc:title></dc:title></cc:Work></rdf:RDF></metadata><defs
     id="defs3082" /><sodipodi:namedview
     pagecolor="#ffffff"
     bordercolor="#666666"
     borderopacity="1"
     objecttolerance="10"
     gridtolerance="10"
     guidetolerance="10"
     inkscape:pageopacity="0"
     inkscape:pageshadow="2"
     inkscape:window-width="1391"
     inkscape:window-height="1147"
     id="namedview3080"
     showgrid="false"
     showguides="true"
     inkscape:guide-bbox="true"
     inkscape:zoom="0.23334524"
     inkscape:cx="1202.3686"
     inkscape:cy="-260.36558"
     inkscape:window-x="410"
     inkscape:window-y="24"
     inkscape:window-maximized="0"
     inkscape:current-layer="Layer_1"><sodipodi:guide
       orientation="0,1"
       position="2153.5714,-107.14286"
       id="guide3086" /></sodipodi:namedview><path
     fill="#FFFFFF"
     d="M1000.346,58.663c-519.251,0-941.657,422.432-941.657,941.658c0,519.276,422.406,941.685,941.657,941.685  c519.226,0,941.659-422.406,941.659-941.685C1942.005,481.095,1519.571,58.663,1000.346,58.663z M1152.201,431.712  c0,72.708-60.059,143.467-151.855,143.467c-91.822,0-151.854-70.759-151.854-143.467c0-106.389,92.27-163.214,151.854-311.729  C1059.931,268.498,1152.201,325.323,1152.201,431.712z M1000.346,1898.459c-496.006,0-898.085-402.079-898.085-898.139  c0-478.363,374.076-869.398,845.681-896.509L843.891,267.973c-44.412,70.128-51.934,128.661-51.934,160.769  c0,123.562,109.546,205.05,208.389,205.05c98.871,0,208.39-81.489,208.39-205.05c0-32.107-7.52-90.641-51.933-160.769  l-104.024-164.162c471.605,27.111,845.681,418.146,845.681,896.509C1898.459,1496.38,1496.354,1898.459,1000.346,1898.459z"
     id="path3054" /><path
     d="m 1210.551,211.385 c 34.499,48.015 79.253,117.251 79.253,214.174 0,150.829 -127.531,291.72 -289.458,291.72 -161.926,0 -289.458,-140.892 -289.458,-291.72 0,-96.923 44.781,-166.159 79.28,-214.174 -348.99,92.717 -606.157,410.812 -606.157,788.937 0,450.857 365.502,816.359 816.333,816.359 450.857,0 816.335,-365.502 816.335,-816.359 0,-378.127 -257.163,-696.22 -606.128,-788.937 z"
     id="path3056"
     inkscape:connector-curvature="0"
     style="fill:#ffffff"
     sodipodi:nodetypes="cssscsssc" /><path
     fill="#FFFFFF"
     d="M401.631,913.598c0,0,0,237.053,0,280.174c0,45.309,63.688,43.231,63.688-2.051V911.548  C462.504,868.372,401.631,870.422,401.631,913.598z"
     id="path3058" /><path
     fill="#FFFFFF"
     d="M1289.438,911.39c0,0,0,16.25,0,50.803c0,36.182,50.933,34.524,50.933-1.657c0-32.896,1.396-29.424,0-50.75  C1337.898,871.947,1289.438,873.577,1289.438,911.39z"
     id="path3060" /><path
     fill="#B77B32"
     d="M1000.346,119.983c-59.585,148.515-151.854,205.34-151.854,311.729c0,72.708,60.031,143.467,151.854,143.467  c91.797,0,151.855-70.759,151.855-143.467C1152.201,325.323,1059.931,268.498,1000.346,119.983z"
     id="path3062"
     style="fill:#be2f37;fill-opacity:1" /><path
     d="M1000.346,31C465.87,31,31,465.818,31,1000.32s434.87,969.372,969.346,969.372  c534.504,0,969.346-434.87,969.346-969.372S1534.852,31,1000.346,31z M1000.346,1942.005  c-519.251,0-941.657-422.407-941.657-941.685c0-519.227,422.406-941.658,941.657-941.658c519.226,0,941.659,422.432,941.659,941.658  C1942.005,1519.598,1519.571,1942.005,1000.346,1942.005z"
     id="path3064"
     style="fill:#be2f37;fill-opacity:1"
     fill="#E22739" /><path
     fill="#0E2752"
     d="M1052.778,103.811l104.024,164.162c44.413,70.128,51.933,128.661,51.933,160.769  c0,123.562-109.52,205.05-208.39,205.05c-98.843,0-208.389-81.489-208.389-205.05c0-32.107,7.521-90.641,51.934-160.769  l104.051-164.162c-471.605,27.111-845.681,418.147-845.681,896.509c0,496.06,402.08,898.139,898.085,898.139  c496.006,0,898.113-402.079,898.113-898.139C1898.459,521.958,1524.385,130.922,1052.778,103.811z M1000.346,1816.681  c-450.831,0-816.333-365.502-816.333-816.359c0-378.125,257.167-696.219,606.157-788.937  c-34.499,48.015-79.28,117.251-79.28,214.174c0,150.829,127.532,291.72,289.458,291.72s289.458-140.892,289.458-291.72  c0-96.923-44.754-166.159-79.253-214.174c348.964,92.717,606.13,410.812,606.13,788.937  C1816.682,1451.179,1451.203,1816.681,1000.346,1816.681z"
     id="path3066" /><g
     id="g4701"
     transform="translate(4753.1678,837.49477)"><path
       sodipodi:nodetypes="cccscccccsssccccccccsscscsccc"
       d="m -3919.1088,267.45663 -66.7881,0 c 0,0 0.025,44.80801 0,83.85501 -0.028,30.924 -3.263,42.915 -27.899,42.915 -25.4,0 -26.164,-17.06601 -26.586,-42.915 -0.051,-4.20701 -0.051,-64.082 -0.051,-110.282 l 64.027,0 0,-88.37704 -64.003,0 c 0.025,-30.97599 0.025,-58.427994 0.025,-61.925008 0,-23.63999 4.3641,-41.862982 32.134,-41.862982 22.614,0 25.6641,20.562983 25.6641,38.022989 0,17.459001 0,39.811011 0,39.811011 l 64.503,0 c 0,-9.22901 0,-197.266996 0,-197.266996 l -253.8025,0 c 0,0 0,118.380988 0,120.457984 35.024,0 49.304,14.566008 49.304,35.946009 0.736,18.484003 0,270.576023 0,270.576023 0,20.616 -8.5713,35.99901 -47.2095,35.99901 0,16.43399 -0.4314,322.72204 -0.6135,337.04509 -0.2249,17.69171 -10.5559,32.58694 -25.6037,40.33144 -7.3423,3.77877 -31.483,3.54476 -31.483,3.54476 48.4773,48.95218 93.8229,77.40152 145.957,104.05781 52.1682,26.6737 74.4498,38.55281 105.5824,45.86739 27.5012,5.13054 56.5547,-10.51763 56.5716,-48.53861 l 0.2697,-607.26189 0,0 z"
       id="path3072-0"
       inkscape:connector-curvature="0"
       style="font-size:526.33581543px;font-style:normal;font-variant:normal;font-weight:normal;font-stretch:normal;line-height:125%;letter-spacing:0px;word-spacing:0px;fill:#0e2752;fill-opacity:1;stroke:none;font-family:Ultra;-inkscape-font-specification:Ultra" /><path
       sodipodi:nodetypes="csccsscccscccccscsssscccccccssccs"
       d="m -3656.8869,356.61791 c 0,-15.40799 0,-95.55799 0,-125.34899 0,-29.818 -25.688,-42.15 -25.688,-42.15 0,0 -3.0779,1.05199 14.382,-13.35801 17.487,-14.38402 13.358,-49.30403 13.358,-62.66203 0,-13.382998 0,-73.99299 0,-113.04198394 0,-53.48300306 -26.218,-66.81499406 -63.1879,-70.89200406 l -180.8581,0 c 0,0 0,119.16899 0,121.246998 11.466,0 29.793,15.749987 29.793,36.998001 0,18.485989 0,269.525019 0,269.525019 0,20.616 -16.592,36.00001 -32.87,36.00001 0,16.433 0.7052,479.1244 0.8091,493.50541 -3.1554,50.42308 -42.1563,48.10927 -42.1563,48.10927 69.9094,20.51693 107.3247,21.01533 149.2194,22.70311 16.4129,0.11566 39.6379,-6.33497 39.2565,-31.74393 -0.1381,-9.20296 -0.2147,-523.50386 -0.2147,-531.73387 -17.1199,0 -37.9729,-15.275 -37.9729,-36.839 0,-10.257 0,-84.565 0,-95.87299 0,-17.46001 5.812,-35.94401 27.3739,-35.94401 17.645,0 27.582,16.43401 27.582,40.021 0,23.666 1.5257,663.88859 1.5257,663.88859 -0.7368,11.88469 -5.5689,24.72591 -19.9393,28.91635 38.6238,0.44703 73.8584,-2.68956 99.7845,-7.1703 22.108,-4.41575 28.9558,-26.17665 28.5972,-42.70487 l 0,-515.13377 c -17.302,0 -28.794,-16.25199 -28.794,-36.318 z m -81.594,-227.08502 c 0,36.182 -50.9339,37.839 -50.9339,1.657 0,-34.553002 0,-50.803005 0,-50.803005 0,-37.812992 48.4629,-39.441995 50.9339,-1.604005 1.396,21.32601 0,17.855003 0,50.75001 z"
       id="path3078-0"
       inkscape:connector-curvature="0"
       style="font-size:526.33581543px;font-style:normal;font-variant:normal;font-weight:normal;font-stretch:normal;line-height:125%;letter-spacing:0px;word-spacing:0px;fill:#0e2752;fill-opacity:1;stroke:none;font-family:Ultra;-inkscape-font-specification:Ultra" /><path
       d="m -4246.1111,222.53475 c 29.3089,-2.56887 59.1226,-18.53378 58.676,-65.91851 0.6313,-38.63683 0.6313,-118.187169 0.6313,-157.23616302 0,-53.48300398 -26.218,-66.81499398 -63.188,-70.89200498 l -180.858,0 c 0,0 0,119.168991 0,121.246999 11.466,0 29.793,15.749985 29.793,36.997983 0,18.486006 0,269.525036 0,269.525036 0,20.616 -7.5145,29.63554 -23.7925,29.63554 9.1038,68.80479 32.2669,133.48213 44.3604,160.68144 24.8486,57.65497 48.5458,91.82808 59.3967,108.27038 14.7897,22.41084 70.4467,94.35141 85.2774,100.51629 17.6082,7.31939 47.6371,-0.57095 49.3557,-27.57082 0.4601,-7.22769 0.012,-335.47285 0.012,-335.47285 0,0 -84.7822,0.80253 -100.5658,0.78003 -17.1199,0 -37.9729,-15.27501 -37.9729,-36.839 0,-10.25701 0,-84.56502 0,-95.87299 0,-17.46002 3.9179,-32.7873 27.3739,-35.94402 25.5154,0.6321 34.9458,0.34896 51.5008,-1.90734 z m -24.3387,-93.67869 c 0,36.182 -50.934,37.83901 -50.934,1.65702 0,-34.553013 0,-50.803032 0,-50.803032 0,-37.812975 48.463,-39.441978 50.934,-1.604005 1.396,21.326024 0,17.855004 0,50.750017 z"
       id="path3078-0-4"
       inkscape:connector-curvature="0"
       style="font-size:526.33581543px;font-style:normal;font-variant:normal;font-weight:normal;font-stretch:normal;line-height:125%;letter-spacing:0px;word-spacing:0px;fill:#0e2752;fill-opacity:1;stroke:none;font-family:Ultra;-inkscape-font-specification:Ultra"
       sodipodi:nodetypes="ccscccscccsssccssccssccs" /><path
       sodipodi:nodetypes="scssccccsccscccs"
       d="m -3489.4247,857.67355 c 0,-9.23 0.3814,-456.10152 0.3814,-464.30353 -13.5169,0 -24.6919,-16.697 -24.6919,-35.99898 0,-10.25601 0,-259.271028 0,-270.577024 0,-21.53501 15.727,-35.944999 29.819,-35.944999 0,-9.255992 0,-121.246998 0,-121.246998 l -127.4001,0 c 0,0 0,119.169006 0,121.246998 15.067,0 29.793,11.09698 29.793,35.944999 0,18.511984 0,271.183014 0,271.183014 0,16.54001 -13.174,35.395 -30.161,35.395 0,16.43401 0.4139,504.6406 0.2929,517.3889 -0.084,8.85875 -0.5509,15.72476 -5.2531,24.44155 -4.3775,6.49259 -10.0643,10.40152 -10.0643,10.40152 32.0506,-5.1751 81.0173,-20.70681 100.1644,-28.06452 31.2323,-11.45146 37.1197,-31.07292 37.1197,-59.86593 z"
       id="path3068-8-3"
       inkscape:connector-curvature="0"
       style="font-size:526.33581543px;font-style:normal;font-variant:normal;font-weight:normal;font-stretch:normal;line-height:125%;letter-spacing:0px;word-spacing:0px;fill:#0e2752;fill-opacity:1;stroke:none;font-family:Ultra;-inkscape-font-specification:Ultra" /><path
       d="m -3349.9155,802.52602 c 0,-9.23 4.0829,-399.90352 4.0829,-408.10553 -13.517,0 -29.1563,-17.58986 -29.1563,-36.89184 0,-10.25601 0,-259.27103 0,-270.577026 0,-21.53501 15.727,-35.944994 29.819,-35.944994 0,-9.255992 0,-121.247006 0,-121.247006 l -127.4,0 c 0,0 0,119.169014 0,121.247006 15.067,0 29.793,11.096975 29.793,35.944994 0,18.511986 0,271.183016 0,271.183016 0,16.54001 -13.174,35.395 -30.161,35.395 0,16.43401 -0.52,464.56531 -1.1442,478.93474 -0.3815,8.78003 -1.2628,14.0563 -5.1758,21.25141 -3.8579,5.80313 -7.8078,9.18275 -7.8078,9.18275 50.0079,-18.46493 83.3142,-42.96505 88.8307,-45.19528 26.9963,-16.98033 48.3195,-26.38423 48.3195,-55.17724 z"
       id="path3068-8-5"
       inkscape:connector-curvature="0"
       style="font-size:526.33581543px;font-style:normal;font-variant:normal;font-weight:normal;font-stretch:normal;line-height:125%;letter-spacing:0px;word-spacing:0px;fill:#0e2752;fill-opacity:1;stroke:none;font-family:Ultra;-inkscape-font-specification:Ultra"
       sodipodi:nodetypes="scssccccsccscccs" /><path
       d="m -3079.2502,267.82831 -66.788,0 c 0,0 0.025,44.80802 0,83.85501 -0.028,30.924 -3.263,42.91501 -27.899,42.91501 -25.4,0 -26.164,-17.06602 -26.586,-42.91501 -0.051,-4.20701 -0.051,-64.082 -0.051,-110.282 l 64.027,0 0,-88.37704 -64.0029,0 c 0.025,-30.97599 0.025,-58.427993 0.025,-61.925007 0,-23.63999 4.3641,-41.862974 32.1341,-41.862974 22.614,0 25.664,20.562974 25.664,38.022997 0,17.458984 0,39.810994 0,39.810994 l 64.503,0 c 0,-9.22899 0,-197.267003 0,-197.267003 l -253.8024,0 c 0,0 0,118.381003 0,120.457984 35.0239,0 49.3039,14.566016 49.3039,35.946017 0.736,18.484002 0,270.576022 0,270.576022 0,20.616 -3.4757,39.12402 -44.0155,37.78473 0,16.43399 -2.2875,413.27418 -2.2875,413.27418 l 31.9695,-26.68111 c 9.7373,-8.12651 37.7804,-41.78024 60.9152,-70.70447 39.7522,-49.7001 80.8624,-114.97369 117.0235,-200.66339 19.9885,-46.00923 33.7435,-108.21519 37.0442,-180.32241 l 2.8216,-61.64253 0,0 z"
       id="path3072-0-8"
       inkscape:connector-curvature="0"
       style="font-size:526.33581543px;font-style:normal;font-variant:normal;font-weight:normal;font-stretch:normal;line-height:125%;letter-spacing:0px;word-spacing:0px;fill:#0e2752;fill-opacity:1;stroke:none;font-family:Ultra;-inkscape-font-specification:Ultra"
       sodipodi:nodetypes="cccscccccssscccccccccsscsccc" /><path
       sodipodi:nodetypes="ccccc"
       style="fill:#0e2752"
       inkscape:connector-curvature="0"
       id="path3072-1-9"
       d="m -3522.8616,242.83137 94.3841,0 0,-88.37703 -94.3695,0 c 0,38.60115 -0.016,40.01202 -0.016,88.37703 z" /></g></svg>