<?xml version="1.0" encoding="UTF-8" standalone="no"?>
<!-- Created with Inkscape (http://www.inkscape.org/) -->
<svg
   xmlns:svg="http://www.w3.org/2000/svg"
   xmlns="http://www.w3.org/2000/svg"
   version="1.0"
   width="500"
   height="511.23801"
   viewBox="0 0 500 511.238"
   id="Layer_1"
   xml:space="preserve"><defs
   id="defs20" />
<path
   d="M 263.164,6.592 C 264.303,38.862 253.364,70.726 254.688,101.858 C 271.661,68.11 307.501,44.337 336.737,22.623 C 341.445,20.74 347.862,23.006 349.953,28.295 C 345.803,70.935 338.247,112.238 326.356,151.867 C 334.098,158.284 346.745,159.401 352.778,169.782 L 358.428,187.707 C 399.94,211.469 445.394,225.627 493.311,233.916 C 502.377,238.635 499.914,249.016 498.972,256.55 C 475.572,288.82 435.013,291.645 397.114,294.295 C 398.811,310.501 401.998,330.507 398.056,348.049 C 390.49,340.515 383.142,332.948 374.458,328.24 C 372.772,334.657 377.108,340.69 378.225,347.107 C 378.805,366.17 382.014,385.202 375.4,402.766 C 359.369,391.444 341.269,375.785 321.646,368.81 C 321.821,381.818 325.237,393.327 322.587,407.474 C 303.906,386.144 279.192,380.11 253.744,375.402 C 238.83,411.241 231.297,451.045 234.855,493.301 C 235.797,499.149 236.738,505.39 237.68,511.238 C 202.048,500.299 161.862,480.851 145.272,443.314 C 142.064,449.72 140.18,456.52 139.589,464.076 C 124.138,440.861 113.199,414.263 111.294,384.819 C 93.369,396.152 74.688,410.125 61.307,428.214 C 54.507,407.672 46.415,384.086 53.773,361.255 C 36.034,364.276 18.108,372.577 0.96,380.11 C 6.402,359.371 13.958,339.573 26.408,321.648 C 17.166,319.567 9.052,325.217 -0.004,326.356 C 15.085,304.094 32.638,280.136 56.597,265.988 C 46.775,260.338 34.149,261.28 22.64,259.396 C 38.299,252.016 54.713,247.307 70.744,241.459 C 62.827,237.889 52.621,240.331 43.38,239.576 C 52.622,224.476 65.094,209.211 80.161,198.086 L 55.659,198.086 C 68.865,180.139 85.454,164.491 103.763,152.807 C 131.302,91.291 192.054,31.503 251.841,0 C 256.363,0.756 261.28,1.697 263.164,6.592"
   id="path3" />
<path
   d="M 253.746,9.439 C 249.957,47.545 246.191,87.907 242.413,127.328 C 238.646,126.573 235.449,124.689 231.091,125.445 C 234.682,99.033 236.949,71.111 238.646,45.279 L 235.799,42.454 C 201.087,70.552 186.962,116.948 172.606,158.459 L 173.57,159.4 C 184.487,149.216 191.484,138.475 206.563,136.766 C 251.841,129.419 289.576,151.1 329.182,163.167 C 337.307,167.317 347.687,172.409 348.071,182.987 C 338.424,189.02 330.332,179.581 320.707,180.14 C 299.968,169.223 279.962,154.484 253.747,159.4 C 250.539,162.225 247.133,165.817 251.842,168.839 C 288.437,161.284 309.385,193.357 341.447,194.298 C 309.199,201.854 279.404,169.584 240.531,176.373 C 234.859,173.548 224.303,173.548 219.769,176.373 C 218.652,179.965 221.477,181.848 223.558,183.929 C 233.183,182.988 241.658,184.871 249.017,189.59 C 267.698,201.854 289.762,210.154 310.326,219.769 C 315.615,215.422 317.685,209.585 322.59,204.68 C 334.099,205.063 345.421,204.68 354.663,199.03 C 364.836,200.147 372.402,207.889 382.017,210.331 C 408.057,219.211 432.563,231.278 460.31,235.801 C 467.844,244.485 469.727,257.493 466.902,268.816 C 451.813,270.699 432.945,269.757 417.857,265.991 C 383.517,258.26 348.806,247.868 315.999,238.637 C 311.466,236.743 307.315,234.859 302.793,232.976 C 282.579,228.07 256.364,217.69 236.742,231.093 C 227.884,239.01 215.236,249.194 212.236,261.282 C 183.93,223.362 136.954,214.12 89.606,214.12 L 87.723,216.003 C 98.848,222.42 110.357,228.628 119.796,236.743 C 110.554,236.743 100.94,236.743 89.607,236.743 L 87.724,238.637 C 78.865,235.242 71.309,229.012 60.37,230.151 C 70.926,214.296 88.293,202.798 104.707,195.242 L 104.707,192.417 L 75.459,187.709 C 85.457,175.434 100.557,166.378 112.24,156.578 C 140.183,93.382 192.995,46.22 250.899,9.439 L 253.746,9.439"
   style="fill:#ea4a15"
   id="path5" />
<path
   d="M 330.123,97.149 L 316.939,149.02 C 297.119,140.917 276.544,134.303 255.629,129.211 C 255.246,119.039 262.976,107.913 267.893,98.091 C 285.807,70.727 313.708,49.046 340.503,31.12 C 340.712,53.568 333.156,74.899 330.123,97.149"
   style="fill:#ea4a15"
   id="path7" />
<path
   d="M 220.71,124.502 C 212.234,126.572 201.471,127.535 192.426,131.094 C 201.471,107.912 211.085,85.082 227.324,65.076 C 228.09,84.874 222.791,104.705 220.71,124.502"
   style="fill:#ffffff"
   id="path9" />
<polyline
   fill="#FFFFFF"
   points="271.661,194.298 257.513,185.823 272.603,188.648 271.661,194.298 "
   id="polyline11"
   style="fill:#ffffff" />
<path
   d="M 314.092,202.796 C 311.267,205.063 312.209,209.388 308.442,211.271 C 300.525,211.096 295.05,204.854 287.692,202.796 C 289.378,187.137 304.675,204.121 314.092,202.796"
   style="fill:#ffffff"
   id="path13" />
<path
   d="M 211.293,282.961 C 222.791,265.813 229.415,238.635 254.688,234.857 C 298.258,236.182 334.098,256.549 374.46,265.988 C 396.908,272.022 420.681,276.73 443.325,280.135 C 384.085,288.435 316.742,288.994 269.777,253.723 C 273.16,250.898 281.077,249.956 281.077,243.364 C 273.347,237.506 263.743,244.481 256.571,249.014 L 241.471,264.103 C 241.657,266.753 244.296,268.636 246.191,270.695 C 252.98,269.578 256.747,255.803 264.105,261.278 C 289.761,282.204 320.881,290.318 353.721,294.293 C 325.973,310.127 284.111,294.665 265.047,330.121 C 235.066,379.167 220.907,436.71 226.382,498.03 C 196.762,485.58 151.1,464.435 151.867,424.445 C 151.681,423.329 152.622,421.423 150.925,420.678 C 143.381,425.211 139.8,432.942 135.825,439.545 C 128.269,417.853 113.936,392.755 126.408,368.808 C 102.822,374.457 83.954,390.872 65.098,410.297 C 59.623,389.558 58.298,364.46 69.806,346.162 C 52.833,350.312 33.945,355.984 16.972,363.135 C 21.319,344.454 32.641,323.331 50.928,310.322 L 21.702,311.264 C 36.035,291.641 55.833,272.785 78.281,265.985 C 72.631,261.638 64.889,259.196 57.541,256.546 C 80.931,245.979 113.759,242.421 138.648,253.721 C 137.531,243.362 128.848,233.912 120.733,225.415 C 156.389,231.474 200.167,241.833 211.293,282.961"
   style="fill:#ffffff"
   id="path15" />
<path
   d="M 386.724,296.178 C 389.374,306.362 389.374,317.685 390.491,328.241 C 380.691,320.127 369.751,314.476 358.429,310.326 C 365.043,332.39 373.157,357.664 369.751,383.878 L 369.751,386.736 C 350.128,371.439 328.447,361.256 305.616,353.721 C 307.116,364.846 314.092,375.785 314.092,388.619 C 298.061,374.285 278.077,369.937 257.513,366.927 C 266.755,344.457 281.844,313.534 311.267,314.093 C 331.273,310.501 352.954,311.443 367.868,295.237 L 386.724,296.178"
   style="fill:#ffffff"
   id="path17" />
</svg>