<?xml version="1.0" encoding="UTF-8" standalone="no"?>
<!-- Created with Inkscape (http://www.inkscape.org/) -->

<svg
   xmlns:dc="http://purl.org/dc/elements/1.1/"
   xmlns:cc="http://creativecommons.org/ns#"
   xmlns:rdf="http://www.w3.org/1999/02/22-rdf-syntax-ns#"
   xmlns:svg="http://www.w3.org/2000/svg"
   xmlns="http://www.w3.org/2000/svg"
   xmlns:sodipodi="http://sodipodi.sourceforge.net/DTD/sodipodi-0.dtd"
   xmlns:inkscape="http://www.inkscape.org/namespaces/inkscape"
   version="1.1"
   id="svg2"
   xml:space="preserve"
   width="1066.6667"
   height="1066.6667"
   viewBox="0 0 1066.6667 1066.6667"
   sodipodi:docname="ursut_uusi.svg"
   inkscape:version="0.92.4 (5da689c313, 2019-01-14)"><metadata
     id="metadata8"><rdf:RDF><cc:Work
         rdf:about=""><dc:format>image/svg+xml</dc:format><dc:type
           rdf:resource="http://purl.org/dc/dcmitype/StillImage" /></cc:Work></rdf:RDF></metadata><defs
     id="defs6"><clipPath
       clipPathUnits="userSpaceOnUse"
       id="clipPath22"><path
         d="m 2142.01,3114.86 -243.54,-263.82 v 852.47 l -174.77,-66.53 314.97,1077.18 57.05,80.39 -254.48,727.12 456.42,1297.37 759.75,-492.57 252.71,-319.14 387.34,67.99 302.54,-81.26 302.53,81.26 387.34,-67.99 252.72,319.14 759.74,492.57 456.43,-1297.37 -254.49,-727.12 57.06,-80.39 314.97,-1077.18 -174.78,66.54 V 2851.06 L 5857.99,3114.85 4000,1180.96 Z"
         id="path20"
         inkscape:connector-curvature="0" /></clipPath><linearGradient
       x1="0"
       y1="0"
       x2="1"
       y2="0"
       gradientUnits="userSpaceOnUse"
       gradientTransform="matrix(4552.6,0,0,-4552.6,1723.7,4000)"
       spreadMethod="pad"
       id="linearGradient36"><stop
         style="stop-opacity:1;stop-color:#fcfbc2"
         offset="0"
         id="stop24" /><stop
         style="stop-opacity:1;stop-color:#ebd670"
         offset="0.129214"
         id="stop26" /><stop
         style="stop-opacity:1;stop-color:#bd8d1c"
         offset="0.404494"
         id="stop28" /><stop
         style="stop-opacity:1;stop-color:#fcfbc2"
         offset="0.747191"
         id="stop30" /><stop
         style="stop-opacity:1;stop-color:#f8c717"
         offset="0.994382"
         id="stop32" /><stop
         style="stop-opacity:1;stop-color:#f8c717"
         offset="1"
         id="stop34" /></linearGradient><clipPath
       clipPathUnits="userSpaceOnUse"
       id="clipPath48"><path
         d="M 5030.71,3375.65 4607.05,2844.49 4000,2446.11 l -607.05,398.38 -423.67,531.16 -246.62,461.62 101.18,594.4 75.88,-442.64 196.03,-341.46 v 442.64 l 126.46,-215 v -467.93 l 290.88,-467.93 486.91,-252.94 486.9,252.94 290.88,467.93 v 467.93 l 126.47,215 v -442.64 l 196.02,341.46 75.88,442.64 101.18,-594.4 z m -1897.02,1694.69 211.83,-28.46 341.47,-278.23 230.8,-297.2 -189.7,104.34 -183.38,-148.6 -18.97,101.17 -392.05,-101.17 205.51,164.41 -344.63,309.85 221.32,44.26 z m 1070.8,-805.23 101.18,-244.46 -236.12,-269.76 179.21,17.83 186.54,179.21 159.1,-173.9 27.45,-320.34 -280.39,-375.23 -149.61,-92.7 -191.85,-37.95 -191.86,37.95 -149.61,92.7 -280.38,375.23 27.45,320.34 159.09,173.9 186.54,-179.21 179.21,-17.83 -236.12,269.76 101.18,244.46 z m 108.52,498.54 341.46,278.23 211.84,28.46 -82.21,-129.63 221.32,-44.26 -344.63,-309.85 205.52,-164.41 -392.05,101.17 -18.98,-101.17 -183.38,148.6 -189.7,-104.34 z m 1417.46,-161.24 -556.47,784.1 312.01,699.75 168.58,-345.64 -177.06,134.95 -42.11,-489.06 278.23,-370.93 177.05,505.88 -320.34,910.57 -455.29,-295.18 -320.47,-404.7 -480.58,84.35 -314.02,-593.17 -314.02,593.17 -480.59,-84.35 -320.47,404.7 -455.29,295.18 -320.34,-910.57 177.05,-505.88 278.24,370.93 -42.12,489.06 -177.05,-134.95 168.58,345.64 312,-699.75 -556.46,-784.1 -160.24,-547.99 354.11,134.81 -312,-328.82 v -362.45 l 303.53,328.82 -160.11,-505.88 577.96,-601.58 63.89,335.99 210.39,-621.47 852.94,-887.8 509.89,530.73 229.95,653.23 139.22,-268.97 826.12,859.87 -160.11,505.88 303.52,-328.82 v 362.45 l -312,328.82 354.11,-134.81 z"
         id="path46"
         inkscape:connector-curvature="0" /></clipPath><linearGradient
       x1="0"
       y1="0"
       x2="1"
       y2="0"
       gradientUnits="userSpaceOnUse"
       gradientTransform="matrix(3781.42,0,0,-3781.42,2109.29,3989.03)"
       spreadMethod="pad"
       id="linearGradient62"><stop
         style="stop-opacity:1;stop-color:#f8c717"
         offset="0"
         id="stop50" /><stop
         style="stop-opacity:1;stop-color:#f8c717"
         offset="0.005618"
         id="stop52" /><stop
         style="stop-opacity:1;stop-color:#fcfbc2"
         offset="0.252809"
         id="stop54" /><stop
         style="stop-opacity:1;stop-color:#bd8d1c"
         offset="0.595506"
         id="stop56" /><stop
         style="stop-opacity:1;stop-color:#ebd670"
         offset="0.870786"
         id="stop58" /><stop
         style="stop-opacity:1;stop-color:#fcfbc2"
         offset="1"
         id="stop60" /></linearGradient><clipPath
       clipPathUnits="userSpaceOnUse"
       id="clipPath74"><path
         d="m 4347.78,3462.04 -82.2,-149.62 -42.11,124.33 16.81,54.88 -50.58,-54.88 -15.81,-52.62 -26.3,65.26 -31.62,-25.29 -115.97,4.3 -115.98,-4.3 -31.61,25.29 -26.31,-65.26 -15.81,52.62 -50.58,54.88 16.82,-54.88 -42.12,-124.33 -82.2,149.62 29.46,187.68 158.09,-105.48 160.24,-18.97 160.23,18.97 158.09,105.48 z"
         id="path72"
         inkscape:connector-curvature="0" /></clipPath><linearGradient
       x1="0"
       y1="0"
       x2="1"
       y2="0"
       gradientUnits="userSpaceOnUse"
       gradientTransform="matrix(695.578,0,0,-695.578,3652.21,3481.07)"
       spreadMethod="pad"
       id="linearGradient88"><stop
         style="stop-opacity:1;stop-color:#f8c717"
         offset="0"
         id="stop76" /><stop
         style="stop-opacity:1;stop-color:#f8c717"
         offset="0.005618"
         id="stop78" /><stop
         style="stop-opacity:1;stop-color:#fcfbc2"
         offset="0.252809"
         id="stop80" /><stop
         style="stop-opacity:1;stop-color:#bd8d1c"
         offset="0.595506"
         id="stop82" /><stop
         style="stop-opacity:1;stop-color:#ebd670"
         offset="0.870786"
         id="stop84" /><stop
         style="stop-opacity:1;stop-color:#fcfbc2"
         offset="1"
         id="stop86" /></linearGradient><clipPath
       clipPathUnits="userSpaceOnUse"
       id="clipPath98"><path
         d="m 4214.99,3234.39 -41.1,-96.87 -55.9,-54.89 -117.99,-27.32 -118,27.32 -55.9,54.89 -41.1,96.87 107.5,-69.56 107.5,-33.64 107.49,33.64 z"
         id="path96"
         inkscape:connector-curvature="0" /></clipPath><linearGradient
       x1="0"
       y1="0"
       x2="1"
       y2="0"
       gradientUnits="userSpaceOnUse"
       gradientTransform="matrix(429.994,0,0,-429.994,3785,3144.85)"
       spreadMethod="pad"
       id="linearGradient112"><stop
         style="stop-opacity:1;stop-color:#f8c717"
         offset="0"
         id="stop100" /><stop
         style="stop-opacity:1;stop-color:#f8c717"
         offset="0.005618"
         id="stop102" /><stop
         style="stop-opacity:1;stop-color:#fcfbc2"
         offset="0.252809"
         id="stop104" /><stop
         style="stop-opacity:1;stop-color:#bd8d1c"
         offset="0.595506"
         id="stop106" /><stop
         style="stop-opacity:1;stop-color:#ebd670"
         offset="0.870786"
         id="stop108" /><stop
         style="stop-opacity:1;stop-color:#fcfbc2"
         offset="1"
         id="stop110" /></linearGradient><clipPath
       clipPathUnits="userSpaceOnUse"
       id="clipPath124"><path
         d="m 3373.97,4890.12 -113.81,-34.78 94.84,-158.08 208.68,-69.56 -37.94,118.56 -113.82,12.65 44.26,55.33 z"
         id="path122"
         inkscape:connector-curvature="0" /></clipPath><linearGradient
       x1="0"
       y1="0"
       x2="1"
       y2="0"
       gradientUnits="userSpaceOnUse"
       gradientTransform="matrix(303.525,0,0,-303.525,3260.16,4758.91)"
       spreadMethod="pad"
       id="linearGradient138"><stop
         style="stop-opacity:1;stop-color:#f8c717"
         offset="0"
         id="stop126" /><stop
         style="stop-opacity:1;stop-color:#f8c717"
         offset="0.005618"
         id="stop128" /><stop
         style="stop-opacity:1;stop-color:#fcfbc2"
         offset="0.252809"
         id="stop130" /><stop
         style="stop-opacity:1;stop-color:#bd8d1c"
         offset="0.595506"
         id="stop132" /><stop
         style="stop-opacity:1;stop-color:#ebd670"
         offset="0.870786"
         id="stop134" /><stop
         style="stop-opacity:1;stop-color:#fcfbc2"
         offset="1"
         id="stop136" /></linearGradient><clipPath
       clipPathUnits="userSpaceOnUse"
       id="clipPath152"><path
         d="m 4626.02,4890.12 113.82,-34.78 -94.85,-158.08 -208.67,-69.56 37.94,118.56 113.82,12.65 -44.27,55.33 z"
         id="path150"
         inkscape:connector-curvature="0" /></clipPath><linearGradient
       x1="0"
       y1="0"
       x2="1"
       y2="0"
       gradientUnits="userSpaceOnUse"
       gradientTransform="matrix(303.525,0,0,-303.525,4436.31,4758.91)"
       spreadMethod="pad"
       id="linearGradient166"><stop
         style="stop-opacity:1;stop-color:#f8c717"
         offset="0"
         id="stop154" /><stop
         style="stop-opacity:1;stop-color:#f8c717"
         offset="0.005618"
         id="stop156" /><stop
         style="stop-opacity:1;stop-color:#fcfbc2"
         offset="0.252809"
         id="stop158" /><stop
         style="stop-opacity:1;stop-color:#bd8d1c"
         offset="0.595506"
         id="stop160" /><stop
         style="stop-opacity:1;stop-color:#ebd670"
         offset="0.870786"
         id="stop162" /><stop
         style="stop-opacity:1;stop-color:#fcfbc2"
         offset="1"
         id="stop164" /></linearGradient><clipPath
       clipPathUnits="userSpaceOnUse"
       id="clipPath176"><path
         d="m 4223.47,4117.65 -8.48,-103.32 -63.23,88.53 -151.76,27.44 -151.77,-27.44 -63.23,-88.53 -8.47,103.32 97,103.2 h 252.93 z"
         id="path174"
         inkscape:connector-curvature="0" /></clipPath><linearGradient
       x1="0"
       y1="0"
       x2="1"
       y2="0"
       gradientUnits="userSpaceOnUse"
       gradientTransform="matrix(446.94,0,0,-446.94,3776.53,4117.59)"
       spreadMethod="pad"
       id="linearGradient190"><stop
         style="stop-opacity:1;stop-color:#f8c717"
         offset="0"
         id="stop178" /><stop
         style="stop-opacity:1;stop-color:#f8c717"
         offset="0.005618"
         id="stop180" /><stop
         style="stop-opacity:1;stop-color:#fcfbc2"
         offset="0.252809"
         id="stop182" /><stop
         style="stop-opacity:1;stop-color:#bd8d1c"
         offset="0.595506"
         id="stop184" /><stop
         style="stop-opacity:1;stop-color:#ebd670"
         offset="0.870786"
         id="stop186" /><stop
         style="stop-opacity:1;stop-color:#fcfbc2"
         offset="1"
         id="stop188" /></linearGradient><clipPath
       clipPathUnits="userSpaceOnUse"
       id="clipPath22-9"><path
         d="m 2142.01,3114.86 -243.54,-263.82 v 852.47 l -174.77,-66.53 314.97,1077.18 57.05,80.39 -254.48,727.12 456.42,1297.37 759.75,-492.57 252.71,-319.14 387.34,67.99 302.54,-81.26 302.53,81.26 387.34,-67.99 252.72,319.14 759.74,492.57 456.43,-1297.37 -254.49,-727.12 57.06,-80.39 314.97,-1077.18 -174.78,66.54 V 2851.06 L 5857.99,3114.85 4000,1180.96 Z"
         id="path20-0"
         inkscape:connector-curvature="0" /></clipPath></defs><sodipodi:namedview
     pagecolor="#ffffff"
     bordercolor="#666666"
     borderopacity="1"
     objecttolerance="10"
     gridtolerance="10"
     guidetolerance="10"
     inkscape:pageopacity="0"
     inkscape:pageshadow="2"
     inkscape:window-width="2443"
     inkscape:window-height="1044"
     id="namedview4"
     showgrid="false"
     inkscape:zoom="0.62578945"
     inkscape:cx="-239.43589"
     inkscape:cy="628.13057"
     inkscape:window-x="0"
     inkscape:window-y="27"
     inkscape:window-maximized="0"
     inkscape:current-layer="g4865" /><g
     id="g10"
     inkscape:groupmode="layer"
     inkscape:label="ink_ext_XXXXXX"
     transform="matrix(1.3333333,0,0,-1.3333333,0,1066.6667)"><g
       id="g12"
       transform="scale(0.1)"><g
         id="g4865"
         transform="matrix(1.1332208,0,0,1.1332208,-522.6346,-190.12052)"><path
           sodipodi:nodetypes="ccccccccccccccccccccccccc"
           inkscape:connector-curvature="0"
           id="path38-6-9"
           style="opacity:1;fill:#100f0d;fill-opacity:1;fill-rule:nonzero;stroke:none;stroke-width:1.15722489"
           d="m 1969.3831,2645.8798 -266.1674,-323.265 v 1044.552 l -191.008,-81.5208 344.234,1319.8946 62.3506,98.5038 -278.1239,890.9577 498.8262,1589.6987 922.2334,-603.5579 333.6236,-367.0802 273.9992,59.34 330.6492,-99.5698 330.6381,99.5698 285.4862,-47.3551 333.6346,367.0802 910.7355,591.573 498.8373,-1589.6987 -278.1348,-890.9577 62.3614,-98.5038 344.2341,-1319.8946 -191.0189,81.5331 V 2322.6393 L 6138.4809,2478.6817 3997.819,167.63487 1804.3783,2455.4513" /><g
           style="fill:#f0e6a2;fill-opacity:1"
           id="g16"><g
             style="fill:#f0e6a2;fill-opacity:1"
             clip-path="url(#clipPath22)"
             id="g18"><path
               inkscape:connector-curvature="0"
               id="path38"
               style="fill:#f0e6a2;fill-opacity:1;fill-rule:nonzero;stroke:none"
               d="m 2142.01,3114.86 -243.54,-263.82 v 852.47 l -174.77,-66.53 314.97,1077.18 57.05,80.39 -254.48,727.12 456.42,1297.37 759.75,-492.57 252.71,-319.14 387.34,67.99 302.54,-81.26 302.53,81.26 387.34,-67.99 252.72,319.14 759.74,492.57 456.43,-1297.37 -254.49,-727.12 57.06,-80.39 314.97,-1077.18 -174.78,66.54 V 2851.06 L 5857.99,3114.85 4000,1180.96 2142.01,3114.86" /></g></g><path
           inkscape:connector-curvature="0"
           id="path40"
           style="fill:#100f0d;fill-opacity:1;fill-rule:nonzero;stroke:none"
           d="m 2151.58,3287.44 11.67,36.89 -138.31,-149.84 v 712.48 l -108.45,-41.28 237.61,812.59 82.58,116.37 -261.42,746.92 388.39,1103.97 607.52,-393.88 286.59,-361.92 433.96,76.17 308.28,-82.8 308.28,82.8 433.96,-76.17 286.59,361.92 607.52,393.88 388.39,-1103.97 -261.43,-746.92 82.59,-116.37 237.61,-812.59 -108.45,41.28 v -712.48 l -138.33,149.84 11.69,-36.89 L 4000,1363.5 2151.58,3287.44" /><g
           id="g42"
           style="fill:#f0e6a2;fill-opacity:1"><g
             clip-path="url(#clipPath48)"
             id="g44"
             style="fill:#f0e6a2;fill-opacity:1"><path
               inkscape:connector-curvature="0"
               id="path64"
               style="fill:#f0e6a2;fill-opacity:1;fill-rule:nonzero;stroke:none"
               d="M 5030.71,3375.65 4607.05,2844.49 4000,2446.11 l -607.05,398.38 -423.67,531.16 -246.62,461.62 101.18,594.4 75.88,-442.64 196.03,-341.46 v 442.64 l 126.46,-215 v -467.93 l 290.88,-467.93 486.91,-252.94 486.9,252.94 290.88,467.93 v 467.93 l 126.47,215 v -442.64 l 196.02,341.46 75.88,442.64 101.18,-594.4 z m -1897.02,1694.69 211.83,-28.46 341.47,-278.23 230.8,-297.2 -189.7,104.34 -183.38,-148.6 -18.97,101.17 -392.05,-101.17 205.51,164.41 -344.63,309.85 221.32,44.26 z m 1070.8,-805.23 101.18,-244.46 -236.12,-269.76 179.21,17.83 186.54,179.21 159.1,-173.9 27.45,-320.34 -280.39,-375.23 -149.61,-92.7 -191.85,-37.95 -191.86,37.95 -149.61,92.7 -280.38,375.23 27.45,320.34 159.09,173.9 186.54,-179.21 179.21,-17.83 -236.12,269.76 101.18,244.46 z m 108.52,498.54 341.46,278.23 211.84,28.46 -82.21,-129.63 221.32,-44.26 -344.63,-309.85 205.52,-164.41 -392.05,101.17 -18.98,-101.17 -183.38,148.6 -189.7,-104.34 z m 1417.46,-161.24 -556.47,784.1 312.01,699.75 168.58,-345.64 -177.06,134.95 -42.11,-489.06 278.23,-370.93 177.05,505.88 -320.34,910.57 -455.29,-295.18 -320.47,-404.7 -480.58,84.35 -314.02,-593.17 -314.02,593.17 -480.59,-84.35 -320.47,404.7 -455.29,295.18 -320.34,-910.57 177.05,-505.88 278.24,370.93 -42.12,489.06 -177.05,-134.95 168.58,345.64 312,-699.75 -556.46,-784.1 -160.24,-547.99 354.11,134.81 -312,-328.82 v -362.45 l 303.53,328.82 -160.11,-505.88 577.96,-601.58 63.89,335.99 210.39,-621.47 852.94,-887.8 509.89,530.73 229.95,653.23 139.22,-268.97 826.12,859.87 -160.11,505.88 303.52,-328.82 v 362.45 l -312,328.82 354.11,-134.81 -160.23,547.99" /></g></g><path
           inkscape:connector-curvature="0"
           id="path66"
           style="fill:#593217;fill-opacity:1;fill-rule:nonzero;stroke:none"
           d="m 3917.79,4466.45 -189.7,104.34 -183.38,-148.6 -18.97,101.17 -392.05,-101.17 205.51,164.41 -344.63,309.85 221.32,44.26 -82.2,129.63 211.83,-28.46 341.47,-278.23 230.8,-297.2" /><g
           id="g68"
           style="fill:#f0e6a2;fill-opacity:1"><g
             clip-path="url(#clipPath74)"
             id="g70"
             style="fill:#f0e6a2;fill-opacity:1"><path
               inkscape:connector-curvature="0"
               id="path90"
               style="fill:#f0e6a2;fill-opacity:1;fill-rule:nonzero;stroke:none"
               d="m 4347.78,3462.04 -82.2,-149.62 -42.11,124.33 16.81,54.88 -50.58,-54.88 -15.81,-52.62 -26.3,65.26 -31.62,-25.29 -115.97,4.3 -115.98,-4.3 -31.61,25.29 -26.31,-65.26 -15.81,52.62 -50.58,54.88 16.82,-54.88 -42.12,-124.33 -82.2,149.62 29.46,187.68 158.09,-105.48 160.24,-18.97 160.23,18.97 158.09,105.48 29.46,-187.68" /></g></g><g
           id="g92"
           style="fill:#f0e6a2;fill-opacity:1"><g
             clip-path="url(#clipPath98)"
             id="g94"
             style="fill:#f0e6a2;fill-opacity:1"><path
               inkscape:connector-curvature="0"
               id="path114"
               style="fill:#f0e6a2;fill-opacity:1;fill-rule:nonzero;stroke:none"
               d="m 4214.99,3234.39 -41.1,-96.87 -55.9,-54.89 -117.99,-27.32 -118,27.32 -55.9,54.89 -41.1,96.87 107.5,-69.56 107.5,-33.64 107.49,33.64 107.5,69.56" /></g></g><path
           inkscape:connector-curvature="0"
           id="path116"
           style="fill:#100f0d;fill-opacity:1;fill-rule:nonzero;stroke:none"
           d="m 3917.79,4466.45 -189.7,104.34 -183.38,-148.6 -18.97,101.17 -392.05,-101.17 205.51,164.41 -344.63,309.85 221.32,44.26 -82.2,129.63 211.83,-28.46 341.47,-278.23 230.8,-297.2" /><g
           id="g118"
           style="fill:#f0e6a2;fill-opacity:1"><g
             clip-path="url(#clipPath124)"
             id="g120"
             style="fill:#f0e6a2;fill-opacity:1"><path
               inkscape:connector-curvature="0"
               id="path140"
               style="fill:#ff0000;fill-opacity:1;fill-rule:nonzero;stroke:none"
               d="m 3373.97,4890.12 -113.81,-34.78 94.84,-158.08 208.68,-69.56 -37.94,118.56 -113.82,12.65 44.26,55.33 -82.21,75.88" /></g></g><path
           inkscape:connector-curvature="0"
           id="path142"
           style="fill:#593217;fill-opacity:1;fill-rule:nonzero;stroke:none"
           d="m 4660.79,4586.6 205.52,-164.41 -392.05,101.17 -18.98,-101.17 -183.38,148.6 -189.7,-104.34 230.81,297.2 341.46,278.23 211.84,28.46 -82.21,-129.63 221.32,-44.26 -344.63,-309.85" /><path
           inkscape:connector-curvature="0"
           id="path144"
           style="fill:#100f0d;fill-opacity:1;fill-rule:nonzero;stroke:none"
           d="m 4660.79,4586.6 205.52,-164.41 -392.05,101.17 -18.98,-101.17 -183.38,148.6 -189.7,-104.34 230.81,297.2 341.46,278.23 211.84,28.46 -82.21,-129.63 221.32,-44.26 -344.63,-309.85" /><g
           id="g146"
           style="fill:#f0e6a2;fill-opacity:1"><g
             clip-path="url(#clipPath152)"
             id="g148"
             style="fill:#f0e6a2;fill-opacity:1"><path
               inkscape:connector-curvature="0"
               id="path168"
               style="fill:#ff0000;fill-opacity:1;fill-rule:nonzero;stroke:none"
               d="m 4626.02,4890.12 113.82,-34.78 -94.85,-158.08 -208.67,-69.56 37.94,118.56 113.82,12.65 -44.27,55.33 82.21,75.88" /></g></g><g
           id="g170"
           style="fill:#f0e6a2;fill-opacity:1"><g
             clip-path="url(#clipPath176)"
             id="g172"
             style="fill:#f0e6a2;fill-opacity:1"><path
               inkscape:connector-curvature="0"
               id="path192"
               style="fill:#f0e6a2;fill-opacity:1;fill-rule:nonzero;stroke:none"
               d="m 4223.47,4117.65 -8.48,-103.32 -63.23,88.53 -151.76,27.44 -151.77,-27.44 -63.23,-88.53 -8.47,103.32 97,103.2 h 252.93 l 97.01,-103.2" /></g></g><text
           transform="matrix(0.68944891,0.72433431,0.72433431,-0.68944891,0,0)"
           id="text3899"
           y="2645.7161"
           x="3809.5725"
           style="font-style:normal;font-weight:normal;font-size:300px;line-height:1.25;font-family:sans-serif;letter-spacing:0px;word-spacing:0px;fill:#f0e6a2;fill-opacity:1;stroke:none;stroke-width:7.5"
           xml:space="preserve"><tspan
             style="font-style:normal;font-variant:normal;font-weight:normal;font-stretch:normal;font-size:720px;font-family:Uroob;-inkscape-font-specification:Uroob;fill:#f0e6a2;fill-opacity:1;stroke-width:7.5"
             y="2645.7161"
             x="3809.5725"
             id="tspan3897"
             sodipodi:role="line">SUDET</tspan></text>
<text
           transform="matrix(0.69448246,-0.71950964,-0.71950964,-0.69448246,0,0)"
           id="text3899-7"
           y="-3145.9482"
           x="175.94106"
           style="font-style:normal;font-weight:normal;font-size:300px;line-height:1.25;font-family:sans-serif;letter-spacing:0px;word-spacing:0px;fill:#f0e6a2;fill-opacity:1;stroke:none;stroke-width:7.5"
           xml:space="preserve"><tspan
             style="font-style:normal;font-variant:normal;font-weight:normal;font-stretch:normal;font-size:720px;font-family:Uroob;-inkscape-font-specification:Uroob;fill:#f0e6a2;fill-opacity:1;stroke-width:7.5"
             y="-3145.9482"
             x="175.94106"
             id="tspan3897-6"
             sodipodi:role="line">URALIN</tspan></text>
</g></g></g></svg>