<?xml version="1.0" encoding="UTF-8" standalone="no"?>
<!-- Generator: Adobe Illustrator 15.0.2, SVG Export Plug-In . SVG Version: 6.00 Build 0)  -->

<svg
   xmlns:dc="http://purl.org/dc/elements/1.1/"
   xmlns:cc="http://creativecommons.org/ns#"
   xmlns:rdf="http://www.w3.org/1999/02/22-rdf-syntax-ns#"
   xmlns:svg="http://www.w3.org/2000/svg"
   xmlns="http://www.w3.org/2000/svg"
   xmlns:sodipodi="http://sodipodi.sourceforge.net/DTD/sodipodi-0.dtd"
   xmlns:inkscape="http://www.inkscape.org/namespaces/inkscape"
   version="1.1"
   id="Layer_1"
   x="0px"
   y="0px"
   width="1910.6833"
   height="1897.8298"
   viewBox="0 0 1910.6833 1897.8298"
   enable-background="new 0 0 2000 2000"
   xml:space="preserve"
   inkscape:version="0.92.4 (5da689c313, 2019-01-14)"
   sodipodi:docname="uus_perhe_logo_2.svg"
   inkscape:export-filename="/home/risto/Lataukset/perhe_logo.png"
   inkscape:export-xdpi="90"
   inkscape:export-ydpi="90"><metadata
     id="metadata3084"><rdf:RDF><cc:Work
         rdf:about=""><dc:format>image/svg+xml</dc:format><dc:type
           rdf:resource="http://purl.org/dc/dcmitype/StillImage" /><dc:title></dc:title></cc:Work></rdf:RDF></metadata><defs
     id="defs3082" /><sodipodi:namedview
     pagecolor="#ffffff"
     bordercolor="#666666"
     borderopacity="1"
     objecttolerance="10"
     gridtolerance="10"
     guidetolerance="10"
     inkscape:pageopacity="0"
     inkscape:pageshadow="2"
     inkscape:window-width="2560"
     inkscape:window-height="1389"
     id="namedview3080"
     showgrid="false"
     showguides="true"
     inkscape:guide-bbox="true"
     inkscape:zoom="0.46669048"
     inkscape:cx="693.29781"
     inkscape:cy="963.89173"
     inkscape:window-x="0"
     inkscape:window-y="27"
     inkscape:window-maximized="1"
     inkscape:current-layer="Layer_1"
     fit-margin-top="0"
     fit-margin-left="0"
     fit-margin-right="0"
     fit-margin-bottom="0"><sodipodi:guide
       orientation="0,1"
       position="2110.3926,-163.17662"
       id="guide3086"
       inkscape:locked="false" /></sodipodi:namedview><g
     id="g946"
     transform="matrix(1.2643695,0,0,1.2643695,-260.62158,-253.77907)" /><g
     id="g3810"
     transform="matrix(1.0852808,0,0,1.0852808,-76.697949,-84.471061)"><path
       d="m 1118.2822,322.80054 -320.51432,1.69472 c -270.30256,71.81192 -472.87506,336.82732 -472.87506,629.69575 0,349.20139 283.09157,632.29299 632.2729,632.29299 349.20138,0 632.27438,-283.0916 632.27438,-632.29299 0,-292.86998 -200.8747,-559.57855 -471.1579,-631.39047 z"
       id="path3056"
       inkscape:connector-curvature="0"
       style="fill:#ffffff;stroke-width:0.77452809"
       sodipodi:nodetypes="ccsssc"
       transform="matrix(1.2643695,0,0,1.2643695,-260.62158,-253.77907)" /><path
       d="m 493.44562,887.02085 c 0,0 0,183.60415 0,217.00265 0,35.0931 49.32815,33.4836 49.32815,-1.5886 V 885.43306 c -2.1803,-33.44102 -49.32815,-31.85324 -49.32815,1.58779 z"
       id="path3058"
       inkscape:connector-curvature="0"
       style="fill:#ffffff;stroke-width:0.77452809"
       transform="matrix(1.2643695,0,0,1.2643695,-260.62158,-253.77907)" /><path
       d="m 1181.0771,885.31069 c 0,0 0,12.58608 0,39.34835 0,28.02398 39.449,26.73981 39.449,-1.28339 0,-25.47888 1.0813,-22.78972 0,-39.30731 -1.9154,-29.30736 -39.449,-28.04488 -39.449,1.24235 z"
       id="path3060"
       inkscape:connector-curvature="0"
       style="fill:#ffffff;stroke-width:0.77452809"
       transform="matrix(1.2643695,0,0,1.2643695,-260.62158,-253.77907)" /><path
       sodipodi:nodetypes="cc"
       d="m 839.55203,513.78659 c -422.28289,791.95881 -211.14144,395.9794 0,0 z"
       id="path3062"
       style="fill:#be2f37;fill-opacity:1;stroke-width:0.77452809"
       inkscape:connector-curvature="0"
       transform="matrix(1.2643695,0,0,1.2643695,-260.62158,-253.77907)" /><path
       sodipodi:nodetypes="ccssccsscccs"
       d="m 997.77732,259.81805 c -25.56949,-1.2439 -52.89679,-1.49774 -81.19925,0 -365.27132,20.99823 -655.0037,323.86661 -655.0037,694.37146 0,384.21239 311.42226,695.63389 695.59205,695.63389 384.17058,0 695.61378,-311.4215 695.61378,-695.63389 8e-4,-370.50485 -289.7301,-673.37323 -655.00288,-694.37146 z M 957.16722,1586.484 c -349.18128,0 -632.27285,-283.0916 -632.27285,-632.29299 0,-292.86843 199.18307,-539.24117 469.48563,-611.05387 109.42501,-28.77164 217.8304,-18.74764 325.5984,0 270.2825,71.81192 469.4648,318.18544 469.4648,611.05387 -8e-4,349.20139 -283.0746,632.29299 -632.27598,632.29299 z"
       id="path3066"
       inkscape:connector-curvature="0"
       style="fill:#0000ff;stroke-width:0.77452809"
       transform="matrix(1.2643695,0,0,1.2643695,-260.62158,-253.77907)" /><g
       id="g4701"
       transform="matrix(0.97928972,0,0,0.97928972,4624.6913,793.21592)"><path
         sodipodi:nodetypes="cccscccccsssccccccccsscscsccc"
         d="m -3919.1088,267.45663 h -66.7881 c 0,0 0.025,44.80801 0,83.85501 -0.028,30.924 -3.263,42.915 -27.899,42.915 -25.4,0 -26.164,-17.06601 -26.586,-42.915 -0.051,-4.20701 -0.051,-64.082 -0.051,-110.282 h 64.027 V 152.6526 h -64.003 c 0.025,-30.97599 0.025,-58.427994 0.025,-61.925008 0,-23.63999 4.3641,-41.862982 32.134,-41.862982 22.614,0 25.6641,20.562983 25.6641,38.022989 0,17.459001 0,39.811011 0,39.811011 h 64.503 c 0,-9.22901 0,-197.266996 0,-197.266996 h -253.8025 c 0,0 0,118.380988 0,120.457984 35.024,0 49.304,14.566008 49.304,35.946009 0.736,18.484003 0,270.576023 0,270.576023 0,20.616 -8.5713,35.99901 -47.2095,35.99901 0,16.43399 -0.4314,322.72204 -0.6135,337.04509 -0.2249,17.69171 -10.5559,32.58694 -25.6037,40.33144 -7.3423,3.77877 -31.483,3.54476 -31.483,3.54476 48.4773,48.95218 93.8229,77.40152 145.957,104.05781 52.1682,26.6737 74.4498,38.55281 105.5824,45.86739 27.5012,5.13054 56.5547,-10.51763 56.5716,-48.53861 l 0.2697,-607.26189 v 0 z"
         id="path3072-0"
         inkscape:connector-curvature="0"
         style="font-style:normal;font-variant:normal;font-weight:normal;font-stretch:normal;font-size:526.33581543px;line-height:125%;font-family:Ultra;-inkscape-font-specification:Ultra;letter-spacing:0px;word-spacing:0px;fill:#0000ff;fill-opacity:1;stroke:none" /><path
         sodipodi:nodetypes="csccsscccscccccscsssscccccccssccs"
         d="m -3656.8869,356.61791 c 0,-15.40799 0,-95.55799 0,-125.34899 0,-29.818 -25.688,-42.15 -25.688,-42.15 0,0 -3.0779,1.05199 14.382,-13.35801 17.487,-14.38402 13.358,-49.30403 13.358,-62.66203 0,-13.382998 0,-73.99299 0,-113.04198394 0,-53.48300306 -26.218,-66.81499406 -63.1879,-70.89200406 h -180.8581 c 0,0 0,119.16899 0,121.246998 11.466,0 29.793,15.749987 29.793,36.998001 0,18.485989 0,269.525019 0,269.525019 0,20.616 -16.592,36.00001 -32.87,36.00001 0,16.433 0.7052,479.1244 0.8091,493.50541 -3.1554,50.42308 -42.1563,48.10927 -42.1563,48.10927 69.9094,20.51693 107.3247,21.01533 149.2194,22.70311 16.4129,0.11566 39.6379,-6.33497 39.2565,-31.74393 -0.1381,-9.20296 -0.2147,-523.50386 -0.2147,-531.73387 -17.1199,0 -37.9729,-15.275 -37.9729,-36.839 0,-10.257 0,-84.565 0,-95.87299 0,-17.46001 5.812,-35.94401 27.3739,-35.94401 17.645,0 27.582,16.43401 27.582,40.021 0,23.666 1.5257,663.88859 1.5257,663.88859 -0.7368,11.88469 -5.5689,24.72591 -19.9393,28.91635 38.6238,0.44703 73.8584,-2.68956 99.7845,-7.1703 22.108,-4.41575 28.9558,-26.17665 28.5972,-42.70487 V 392.93591 c -17.302,0 -28.794,-16.25199 -28.794,-36.318 z m -81.594,-227.08502 c 0,36.182 -50.9339,37.839 -50.9339,1.657 0,-34.553002 0,-50.803005 0,-50.803005 0,-37.812992 48.4629,-39.441995 50.9339,-1.604005 1.396,21.32601 0,17.855003 0,50.75001 z"
         id="path3078-0"
         inkscape:connector-curvature="0"
         style="font-style:normal;font-variant:normal;font-weight:normal;font-stretch:normal;font-size:526.33581543px;line-height:125%;font-family:Ultra;-inkscape-font-specification:Ultra;letter-spacing:0px;word-spacing:0px;fill:#0000ff;fill-opacity:1;stroke:none" /><path
         d="m -4246.1111,222.53475 c 29.3089,-2.56887 59.1226,-18.53378 58.676,-65.91851 0.6313,-38.63683 0.6313,-118.187169 0.6313,-157.23616302 0,-53.48300398 -26.218,-66.81499398 -63.188,-70.89200498 h -180.858 c 0,0 0,119.168991 0,121.246999 11.466,0 29.793,15.749985 29.793,36.997983 0,18.486006 0,269.525036 0,269.525036 0,20.616 -7.5145,29.63554 -23.7925,29.63554 9.1038,68.80479 32.2669,133.48213 44.3604,160.68144 24.8486,57.65497 48.5458,91.82808 59.3967,108.27038 14.7897,22.41084 70.4467,94.35141 85.2774,100.51629 17.6082,7.31939 47.6371,-0.57095 49.3557,-27.57082 0.4601,-7.22769 0.012,-335.47285 0.012,-335.47285 0,0 -84.7822,0.80253 -100.5658,0.78003 -17.1199,0 -37.9729,-15.27501 -37.9729,-36.839 0,-10.25701 0,-84.56502 0,-95.87299 0,-17.46002 3.9179,-32.7873 27.3739,-35.94402 25.5154,0.6321 34.9458,0.34896 51.5008,-1.90734 z m -24.3387,-93.67869 c 0,36.182 -50.934,37.83901 -50.934,1.65702 0,-34.553013 0,-50.803032 0,-50.803032 0,-37.812975 48.463,-39.441978 50.934,-1.604005 1.396,21.326024 0,17.855004 0,50.750017 z"
         id="path3078-0-4"
         inkscape:connector-curvature="0"
         style="font-style:normal;font-variant:normal;font-weight:normal;font-stretch:normal;font-size:526.33581543px;line-height:125%;font-family:Ultra;-inkscape-font-specification:Ultra;letter-spacing:0px;word-spacing:0px;fill:#0000ff;fill-opacity:1;stroke:none"
         sodipodi:nodetypes="ccscccscccsssccssccssccs" /><path
         sodipodi:nodetypes="scssccccsccscccs"
         d="m -3489.4247,857.67355 c 0,-9.23 0.3814,-456.10152 0.3814,-464.30353 -13.5169,0 -24.6919,-16.697 -24.6919,-35.99898 0,-10.25601 0,-259.271028 0,-270.577024 0,-21.53501 15.727,-35.944999 29.819,-35.944999 0,-9.255992 0,-121.246998 0,-121.246998 h -127.4001 c 0,0 0,119.169006 0,121.246998 15.067,0 29.793,11.09698 29.793,35.944999 0,18.511984 0,271.183014 0,271.183014 0,16.54001 -13.174,35.395 -30.161,35.395 0,16.43401 0.4139,504.6406 0.2929,517.3889 -0.084,8.85875 -0.5509,15.72476 -5.2531,24.44155 -4.3775,6.49259 -10.0643,10.40152 -10.0643,10.40152 32.0506,-5.1751 81.0173,-20.70681 100.1644,-28.06452 31.2323,-11.45146 37.1197,-31.07292 37.1197,-59.86593 z"
         id="path3068-8-3"
         inkscape:connector-curvature="0"
         style="font-style:normal;font-variant:normal;font-weight:normal;font-stretch:normal;font-size:526.33581543px;line-height:125%;font-family:Ultra;-inkscape-font-specification:Ultra;letter-spacing:0px;word-spacing:0px;fill:#0000ff;fill-opacity:1;stroke:none" /><path
         d="m -3349.9155,802.52602 c 0,-9.23 4.0829,-399.90352 4.0829,-408.10553 -13.517,0 -29.1563,-17.58986 -29.1563,-36.89184 0,-10.25601 0,-259.27103 0,-270.577026 0,-21.53501 15.727,-35.944994 29.819,-35.944994 0,-9.255992 0,-121.247006 0,-121.247006 h -127.4 c 0,0 0,119.169014 0,121.247006 15.067,0 29.793,11.096975 29.793,35.944994 0,18.511986 0,271.183016 0,271.183016 0,16.54001 -13.174,35.395 -30.161,35.395 0,16.43401 -0.52,464.56531 -1.1442,478.93474 -0.3815,8.78003 -1.2628,14.0563 -5.1758,21.25141 -3.8579,5.80313 -7.8078,9.18275 -7.8078,9.18275 50.0079,-18.46493 83.3142,-42.96505 88.8307,-45.19528 26.9963,-16.98033 48.3195,-26.38423 48.3195,-55.17724 z"
         id="path3068-8-5"
         inkscape:connector-curvature="0"
         style="font-style:normal;font-variant:normal;font-weight:normal;font-stretch:normal;font-size:526.33581543px;line-height:125%;font-family:Ultra;-inkscape-font-specification:Ultra;letter-spacing:0px;word-spacing:0px;fill:#0000ff;fill-opacity:1;stroke:none"
         sodipodi:nodetypes="scssccccsccscccs" /><path
         d="m -3079.2502,267.82831 h -66.788 c 0,0 0.025,44.80802 0,83.85501 -0.028,30.924 -3.263,42.91501 -27.899,42.91501 -25.4,0 -26.164,-17.06602 -26.586,-42.91501 -0.051,-4.20701 -0.051,-64.082 -0.051,-110.282 h 64.027 v -88.37704 h -64.0029 c 0.025,-30.97599 0.025,-58.427993 0.025,-61.925007 0,-23.63999 4.3641,-41.862974 32.1341,-41.862974 22.614,0 25.664,20.562974 25.664,38.022997 0,17.458984 0,39.810994 0,39.810994 h 64.503 c 0,-9.22899 0,-197.267003 0,-197.267003 h -253.8024 c 0,0 0,118.381003 0,120.457984 35.0239,0 49.3039,14.566016 49.3039,35.946017 0.736,18.484002 0,270.576022 0,270.576022 0,20.616 -3.4757,39.12402 -44.0155,37.78473 0,16.43399 -2.2875,413.27418 -2.2875,413.27418 l 31.9695,-26.68111 c 9.7373,-8.12651 37.7804,-41.78024 60.9152,-70.70447 39.7522,-49.7001 80.8624,-114.97369 117.0235,-200.66339 19.9885,-46.00923 33.7435,-108.21519 37.0442,-180.32241 l 2.8216,-61.64253 v 0 z"
         id="path3072-0-8"
         inkscape:connector-curvature="0"
         style="font-style:normal;font-variant:normal;font-weight:normal;font-stretch:normal;font-size:526.33581543px;line-height:125%;font-family:Ultra;-inkscape-font-specification:Ultra;letter-spacing:0px;word-spacing:0px;fill:#0000ff;fill-opacity:1;stroke:none"
         sodipodi:nodetypes="cccscccccssscccccccccsscsccc" /><path
         sodipodi:nodetypes="ccccc"
         style="fill:#0000ff"
         inkscape:connector-curvature="0"
         id="path3072-1-9"
         d="m -3522.8616,242.83137 h 94.3841 v -88.37703 h -94.3695 c 0,38.60115 -0.016,40.01202 -0.016,88.37703 z" /></g><text
       transform="scale(0.89182478,1.1212965)"
       id="text3745"
       y="605.58716"
       x="514.44214"
       style="font-style:normal;font-variant:normal;font-weight:bold;font-stretch:normal;font-size:475.10223389px;line-height:1.25;font-family:Purisa;-inkscape-font-specification:'Purisa Bold';letter-spacing:0px;word-spacing:0px;fill:#ff0000;fill-opacity:1;stroke:none;stroke-width:2.47449064"
       xml:space="preserve"><tspan
         dx="0"
         style="font-style:italic;font-variant:normal;font-weight:bold;font-stretch:normal;line-height:0;font-family:Purisa;-inkscape-font-specification:'Purisa Bold Italic';letter-spacing:-24.33004761px;fill:#ff0000;stroke-width:2.47449064"
         y="605.58716"
         x="514.44214"
         id="tspan3743"
         sodipodi:role="line">UUS!</tspan></text>
</g><flowRoot
     xml:space="preserve"
     id="flowRoot3747"
     style="font-style:normal;font-variant:normal;font-weight:bold;font-stretch:normal;font-size:192px;line-height:1.25;font-family:Purisa;-inkscape-font-specification:'Purisa Bold';letter-spacing:0px;word-spacing:0px;fill:#ff2a2a;fill-opacity:1;stroke:none"
     transform="matrix(1.9812999,0,0,2.4993687,1580.2767,-1706.8783)"><flowRegion
       id="flowRegion3749"
       style="font-style:normal;font-variant:normal;font-weight:bold;font-stretch:normal;font-family:Purisa;-inkscape-font-specification:'Purisa Bold';fill:#ff2a2a"><rect
         id="rect3751"
         width="681.81818"
         height="196.9697"
         x="-1581.8182"
         y="767.52679"
         style="font-style:normal;font-variant:normal;font-weight:bold;font-stretch:normal;font-family:Purisa;-inkscape-font-specification:'Purisa Bold';fill:#ff2a2a" /></flowRegion><flowPara
       id="flowPara3753"></flowPara></flowRoot><flowRoot
     xml:space="preserve"
     id="flowRoot3755"
     style="font-style:normal;font-variant:normal;font-weight:bold;font-stretch:normal;font-size:192px;line-height:1.25;font-family:Purisa;-inkscape-font-specification:'Purisa Bold';letter-spacing:0px;word-spacing:0px;fill:#ff2a2a;fill-opacity:1;stroke:none"
     transform="matrix(1.9812999,0,0,2.4993687,1580.2767,-1706.8783)"><flowRegion
       id="flowRegion3757"
       style="font-style:normal;font-variant:normal;font-weight:bold;font-stretch:normal;font-family:Purisa;-inkscape-font-specification:'Purisa Bold';fill:#ff2a2a"><rect
         id="rect3759"
         width="775.75757"
         height="915.15149"
         x="-1593.9395"
         y="403.89044"
         style="font-style:normal;font-variant:normal;font-weight:bold;font-stretch:normal;font-family:Purisa;-inkscape-font-specification:'Purisa Bold';fill:#ff2a2a" /></flowRegion><flowPara
       id="flowPara3761"></flowPara></flowRoot></svg>