<?xml version="1.0" encoding="UTF-8"?>
<!DOCTYPE svg PUBLIC "-//W3C//DTD SVG 1.1//EN" "http://www.w3.org/Graphics/SVG/1.1/DTD/svg11.dtd">
<!-- Creator: CorelDRAW -->
<svg xmlns="http://www.w3.org/2000/svg" xml:space="preserve" width="500px" height="579px" shape-rendering="geometricPrecision" text-rendering="geometricPrecision" image-rendering="optimizeQuality" fill-rule="evenodd" clip-rule="evenodd"
viewBox="0 0 500 579"
 xmlns:xlink="http://www.w3.org/1999/xlink"
 xmlns:svg="http://www.w3.org/2000/svg"
 version="1.0">
 <g id="Layer_x0020_1">
  <metadata id="CorelCorpID_0Corel-Layer"/>
  <path id="path1937" fill="black" stroke="black" stroke-width="1.98425" d="M0.823182 1.40287l498.224 -0.072567 0.0660473 332.587c-9.62901,324.475 -478.349,325.946 -498.24,0.628158l-0.0504567 -333.142z"/>
  <path fill="#BF9F4F" d="M398.361 28.548c3.85455,16.0135 -11.9356,20.1753 -12.1193,34.4257 -0.124441,9.64517 5.79742,13.7435 5.54967,24.499 0.270425,19.0176 -21.2851,28.6282 -21.121,46.9588 0.117638,13.1275 6.25096,13.4606 6.27251,31.5692 0.0175748,14.8249 -8.19156,13.4864 -7.89704,27.1945 20.8324,15.9591 43.0311,42.8777 57.4124,80.921 1.93153,-6.13758 8.90561,-19.4769 8.60032,-30.3426 -0.609449,-21.6924 -13.5692,-29.3145 -13.2585,-47.0084 0.279213,-15.9129 6.87855,-18.0885 7.46589,-33.4831 0.554457,-14.5366 -14.8017,-26.8838 -15.4633,-40.4272 -0.771591,-15.8009 6.8692,-11.7791 6.61862,-28.5679 -0.217417,-14.559 -13.1803,-22.5658 -13.6709,-32.5953 -0.464032,-9.48813 9.48558,-25.0379 -8.38942,-33.1435z"/>
  <path fill="#F00000" d="M397.632 144.576c9.51563,27.3538 -21.6646,26.5436 -18.1681,60.558 15.3899,15.1804 28.6977,40.0473 40.3186,61.8237 11.1915,-34.9688 -11.9804,-44.8424 -12.1147,-74.9279 -0.0598111,-13.4311 1.55112,-13.6766 1.99758,-25.2139 0.428882,-12.4798 -7.0064,-16.9376 -12.0334,-22.2398z"/>
  <path fill="#BF9F4F" d="M319.294 28.6393c5.68318,15.1773 -9.47963,17.2191 -9.82744,31.4884 -0.031748,12.1921 5.67355,14.4522 5.87396,24.9591 0.587906,17.5456 -18.9578,28.0704 -18.8762,44.8195 0.0510236,10.4542 3.43474,13.9221 1.36375,26.576 21.3078,5.61912 39.4994,13.2667 55.5585,25.5175 4.44076,-29.0577 -15.7357,-37.8916 -15.4449,-56.446 0.216284,-13.8042 9.00482,-18.9326 8.97789,-31.468 -0.0311811,-14.5973 -18.4606,-26.3634 -17.9992,-37.787 0.38211,-9.45326 7.02085,-19.6818 -9.62646,-27.6594z"/>
  <path fill="#F00000" d="M324.091 116.037c-12.1799,4.99947 -12.5901,11.8738 -13.1292,19.6183 -0.638929,9.17717 2.64076,11.0387 -5.80167,25.7151 11.4117,3.55947 27.576,11.2589 37.7311,16.7032 2.70992,-34.1119 -30.0855,-37.656 -18.8002,-62.0365z"/>
  <path fill="#BF9F4F" d="M246.854 29.4704c14.2257,4.87673 9.85947,23.4048 9.49635,31.1658 -0.570048,12.1785 18.976,22.532 19.3456,40.2517 0.198425,9.50911 -4.76051,11.0599 -4.84243,27.809 -0.0510236,10.4545 8.5252,18.6568 9.28432,23.4394 -23.6699,-3.36359 -40.9439,-2.16199 -57.7245,-0.166961 -1.90687,-5.62876 -1.89836,-7.34826 -1.44794,-13.9915 0.97852,-14.4269 16.8925,-24.6322 17.5354,-42.5109 0.367654,-10.2319 -7.1847,-19.993 -7.45229,-28.1339 -0.483591,-14.7076 19.709,-19.9905 15.8054,-37.8627z"/>
  <path fill="#F00000" d="M251.646 103.649c7.24649,7.81229 3.22299,19.2903 4.47392,26.5057 1.57153,9.06435 8.43818,9.63808 16.8806,24.3145 -11.4117,-1.77987 -29.2881,-1.97972 -41.0137,-0.304441 -1.45786,-7.73604 -1.02161,-9.3172 -0.537449,-13.4221 0.882993,-12.0742 18.3648,-20.7559 20.1966,-37.0936z"/>
  <path fill="#BF9F4F" d="M175.369 29.84c12.6692,12.8174 5.54088,18.5363 5.56073,26.2463 0.031748,12.1921 17.0878,23.7909 16.8871,37.2498 -0.202961,13.6111 -5.82123,12.1071 -5.86659,28.857 -0.0515906,18.9828 14.4094,19.8159 16.4804,32.4697 -18.3912,4.81522 -41.8646,14.7688 -55.6614,22.9737 2.72183,-6.13361 3.3806,-6.68438 3.36784,-14.2713 -0.0133228,-7.83667 -8.34945,-20.7312 -8.2783,-30.8449 0.110835,-15.7725 19.3521,-32.0913 19.4017,-45.8893 0.0286299,-8.03821 -5.87537,-16.1362 -5.78466,-24.2816 0.171496,-15.3638 14.7895,-17.7364 13.8932,-32.5094z"/>
  <path fill="#F00000" d="M173.937 114.508c-0.282898,7.62322 0.433701,11.2309 2.35332,15.7799 2.85704,6.77084 21.5283,18.1627 22.1227,30.7987 -11.4117,3.55947 -24.1838,8.78514 -34.3389,14.2294 6.38022,-20.6187 -1.06044,-22.0382 -0.888945,-37.4505 0.0839056,-7.53563 3.56995,-14.9219 10.7518,-23.3575z"/>
  <path fill="#BF9F4F" d="M93.4637 30.8656c8.64993,4.57625 11.1699,10.3898 10.1067,23.9445 -1.83713,23.4201 14.5823,21.9149 14.8099,41.8204 0.0972284,8.51471 -6.5092,16.4492 -6.09279,30.2154 0.485575,16.0503 22.4022,33.2348 22.7007,47.4066 0.378425,17.9657 -0.274677,9.71717 -0.569197,15.8873 -22.4615,17.2205 -47.3786,49.4175 -56.0588,75.2732 0.728504,-14.8989 -10.5982,-10.6506 -11.221,-46.0403 -0.280063,-15.9134 15.5894,-37.4978 13.5357,-52.767 -1.8669,-13.8813 -9.89944,-24.2598 -9.23783,-37.8034 0.771874,-15.8009 15.5852,-22.686 16.1286,-39.4688 0.532347,-16.4446 -5.83654,-17.1269 -5.37676,-27.1588 0.464882,-10.1449 12.422,-14.0204 11.2748,-31.3092z"/>
  <path fill="#F00000" d="M101.21 142.914c1.8771,20.4296 17.7636,21.6272 22.7945,36.4856 3.53282,10.4346 -2.0571,19.2186 -0.576851,25.3049 -15.3899,15.1804 -25.2303,29.0308 -36.8513,50.8071 -3.11925,-9.01163 -5.91279,-17.3954 -6.0463,-27.1911 -0.262772,-19.2986 19.4046,-36.4116 18.383,-49.6891 -1.16022,-15.0792 -8.68366,-22.4992 2.29691,-35.7174z"/>
  <ellipse fill="#BF9F4F" cx="249.89" cy="337.301" rx="184.568" ry="184.401"/>
  <path fill="black" d="M207.786 379.543l-0.096378 79.1042c-36.9179,-12.867 -66.2329,-41.9735 -79.3834,-78.7578l79.4798 -0.346394zm0.125291 -23.3867l-85.5908 -0.0643465c-1.6251,-6.40262 -1.53978,-12.9974 -1.53978,-19.8085 0,-6.35698 0.458362,-12.6074 1.34334,-18.7197l85.9933 0.136347 -0.206079 38.4562zm0.670961 -64.0265l-80.0071 -0.043937c13.6542,-37.1855 43.7145,-65.7848 80.0992,-78.3545l-0.092126 78.3984zm61.7981 87.4134l0.0864567 84.6794c-6.66652,1.05846 -13.1746,1.60838 -20.1385,1.60838 -6.535,0 -12.9575,-0.484441 -19.2328,-1.41874l0.254835 -84.8708 39.03 0.00170079zm-0.11452 -23.3844l-38.8443 -0.219969 -0.213449 -38.2346 39.1981 -0.00141732 -0.140315 38.456zm-0.64063 -64.0338l-37.6846 -0.00396851 -0.0759685 -84.0085c6.07323,-0.908221 12.2423,-1.37679 18.4638,-1.37679 6.52848,0 13.273,0.483024 19.5423,1.41562l-0.24548 83.9736zm102.674 87.3944c-11.8553,36.7679 -43.6592,65.7003 -76.222,77.9984l-0.30189 -77.9749 76.5238 -0.0235276zm6.08372 -23.51l-82.698 0.148819 -0.148536 -38.4571 82.8465 -1.14406c0.982772,6.43238 1.49301,13.0201 1.49301,19.7263 0,6.70621 -0.509953,13.2939 -1.49301,19.726zm-6.2127 -64.0729l-77.0604 -0.139465 0.0286299 -77.099c35.43,13.0663 63.5843,40.8512 77.0318,77.2385z"/>
 </g>
</svg>
